%TF.GenerationSoftware,KiCad,Pcbnew,9.0.6*%
%TF.CreationDate,2026-01-20T16:44:33-03:00*%
%TF.ProjectId,pcb_fotometro,7063625f-666f-4746-9f6d-6574726f2e6b,rev?*%
%TF.SameCoordinates,Original*%
%TF.FileFunction,Copper,L2,Bot*%
%TF.FilePolarity,Positive*%
%FSLAX46Y46*%
G04 Gerber Fmt 4.6, Leading zero omitted, Abs format (unit mm)*
G04 Created by KiCad (PCBNEW 9.0.6) date 2026-01-20 16:44:33*
%MOMM*%
%LPD*%
G01*
G04 APERTURE LIST*
G04 Aperture macros list*
%AMRoundRect*
0 Rectangle with rounded corners*
0 $1 Rounding radius*
0 $2 $3 $4 $5 $6 $7 $8 $9 X,Y pos of 4 corners*
0 Add a 4 corners polygon primitive as box body*
4,1,4,$2,$3,$4,$5,$6,$7,$8,$9,$2,$3,0*
0 Add four circle primitives for the rounded corners*
1,1,$1+$1,$2,$3*
1,1,$1+$1,$4,$5*
1,1,$1+$1,$6,$7*
1,1,$1+$1,$8,$9*
0 Add four rect primitives between the rounded corners*
20,1,$1+$1,$2,$3,$4,$5,0*
20,1,$1+$1,$4,$5,$6,$7,0*
20,1,$1+$1,$6,$7,$8,$9,0*
20,1,$1+$1,$8,$9,$2,$3,0*%
G04 Aperture macros list end*
%TA.AperFunction,ComponentPad*%
%ADD10RoundRect,0.250000X-0.600000X-0.725000X0.600000X-0.725000X0.600000X0.725000X-0.600000X0.725000X0*%
%TD*%
%TA.AperFunction,ComponentPad*%
%ADD11O,1.700000X1.950000*%
%TD*%
%TA.AperFunction,ComponentPad*%
%ADD12C,1.348000*%
%TD*%
%TA.AperFunction,ComponentPad*%
%ADD13C,1.600000*%
%TD*%
%TA.AperFunction,ComponentPad*%
%ADD14RoundRect,0.250000X0.600000X0.750000X-0.600000X0.750000X-0.600000X-0.750000X0.600000X-0.750000X0*%
%TD*%
%TA.AperFunction,ComponentPad*%
%ADD15O,1.700000X2.000000*%
%TD*%
%TA.AperFunction,ComponentPad*%
%ADD16RoundRect,0.250000X-0.600000X-0.750000X0.600000X-0.750000X0.600000X0.750000X-0.600000X0.750000X0*%
%TD*%
%TA.AperFunction,ComponentPad*%
%ADD17R,1.050000X1.500000*%
%TD*%
%TA.AperFunction,ComponentPad*%
%ADD18O,1.050000X1.500000*%
%TD*%
%TA.AperFunction,Conductor*%
%ADD19C,1.200000*%
%TD*%
G04 APERTURE END LIST*
D10*
%TO.P,J3,1,Pin_1*%
%TO.N,SCL*%
X131500000Y-76500000D03*
D11*
%TO.P,J3,2,Pin_2*%
%TO.N,SDA*%
X134000000Y-76500000D03*
%TO.P,J3,3,Pin_3*%
%TO.N,GND*%
X136500000Y-76500000D03*
%TO.P,J3,4,Pin_4*%
%TO.N,+5V*%
X139000000Y-76500000D03*
%TD*%
D12*
%TO.P,U1,0,GPIO0*%
%TO.N,unconnected-(U1-GPIO0-Pad0)*%
X119500000Y-56760000D03*
%TO.P,U1,1,GPIO1*%
%TO.N,unconnected-(U1-GPIO1-Pad1)*%
X116960000Y-56760000D03*
%TO.P,U1,2,GPIO2*%
%TO.N,unconnected-(U1-GPIO2-Pad2)*%
X114420000Y-56760000D03*
%TO.P,U1,3,GPIO3*%
%TO.N,unconnected-(U1-GPIO3-Pad3)*%
X111880000Y-56760000D03*
%TO.P,U1,3.3,3V3*%
%TO.N,+3.3V*%
X106800000Y-56760000D03*
%TO.P,U1,4,GPIO4*%
%TO.N,D_LDR*%
X109340000Y-56760000D03*
%TO.P,U1,5,GPIO5*%
%TO.N,Net-(U1-GPIO5)*%
X101720000Y-72000000D03*
%TO.P,U1,5V,5V*%
%TO.N,+5V*%
X101720000Y-56760000D03*
%TO.P,U1,6,GPIO6*%
%TO.N,unconnected-(U1-GPIO6-Pad6)*%
X104260000Y-72000000D03*
%TO.P,U1,7,GPIO7*%
%TO.N,unconnected-(U1-GPIO7-Pad7)*%
X106800000Y-72000000D03*
%TO.P,U1,8,GPIO8*%
%TO.N,SDA*%
X109340000Y-72000000D03*
%TO.P,U1,9,GPIO9*%
%TO.N,SCL*%
X111880000Y-72000000D03*
%TO.P,U1,10,GPIO10*%
%TO.N,unconnected-(U1-GPIO10-Pad10)*%
X114420000Y-72000000D03*
%TO.P,U1,20,GPIO20*%
%TO.N,unconnected-(U1-GPIO20-Pad20)*%
X116960000Y-72000000D03*
%TO.P,U1,21,GPIO21*%
%TO.N,unconnected-(U1-GPIO21-Pad21)*%
X119500000Y-72000000D03*
%TO.P,U1,G,GND*%
%TO.N,GND*%
X104260000Y-56760000D03*
%TD*%
D13*
%TO.P,R2,1*%
%TO.N,D_LDR*%
X149500000Y-54000000D03*
%TO.P,R2,2*%
%TO.N,GND*%
X141880000Y-54000000D03*
%TD*%
D14*
%TO.P,J1,1,Pin_1*%
%TO.N,GND*%
X170000000Y-78000000D03*
D15*
%TO.P,J1,2,Pin_2*%
%TO.N,Net-(J1-Pin_2)*%
X167500000Y-78000000D03*
%TD*%
D13*
%TO.P,R1,1*%
%TO.N,+5V*%
X149880000Y-77500000D03*
%TO.P,R1,2*%
%TO.N,Net-(J1-Pin_2)*%
X157500000Y-77500000D03*
%TD*%
D16*
%TO.P,J4,1,Pin_1*%
%TO.N,+3.3V*%
X174500000Y-53000000D03*
D15*
%TO.P,J4,2,Pin_2*%
%TO.N,GND*%
X177000000Y-53000000D03*
%TD*%
D17*
%TO.P,U2,1,+V_{S}*%
%TO.N,+5V*%
X129500000Y-63000000D03*
D18*
%TO.P,U2,2,V_{OUT}*%
%TO.N,Net-(U1-GPIO5)*%
X128230000Y-63000000D03*
%TO.P,U2,3,GND*%
%TO.N,GND*%
X126960000Y-63000000D03*
%TD*%
D14*
%TO.P,J2,1,Pin_1*%
%TO.N,+5V*%
X157500000Y-54000000D03*
D15*
%TO.P,J2,2,Pin_2*%
%TO.N,D_LDR*%
X155000000Y-54000000D03*
%TD*%
D19*
%TO.N,GND*%
X136000000Y-54000000D02*
X141500000Y-59500000D01*
X126500000Y-54000000D02*
X136000000Y-54000000D01*
X177000000Y-55500000D02*
X177000000Y-53000000D01*
X173000000Y-59500000D02*
X177000000Y-55500000D01*
X136000000Y-54000000D02*
X141880000Y-54000000D01*
X117500000Y-63000000D02*
X126904000Y-63000000D01*
X110500000Y-63000000D02*
X117500000Y-63000000D01*
X117500000Y-63000000D02*
X126500000Y-54000000D01*
X141500000Y-59500000D02*
X173000000Y-59500000D01*
X104260000Y-56760000D02*
X110500000Y-63000000D01*
%TO.N,+5V*%
X139000000Y-76500000D02*
X139000000Y-72444000D01*
X139000000Y-72444000D02*
X129556000Y-63000000D01*
%TD*%
%TA.AperFunction,Conductor*%
%TO.N,GND*%
G36*
X187942539Y-47020185D02*
G01*
X187988294Y-47072989D01*
X187999500Y-47124500D01*
X187999500Y-54070186D01*
X188000000Y-54077816D01*
X188000000Y-54500000D01*
X188422184Y-54500000D01*
X188429813Y-54500500D01*
X188434108Y-54500500D01*
X188565892Y-54500500D01*
X195375500Y-54500500D01*
X195442539Y-54520185D01*
X195488294Y-54572989D01*
X195499500Y-54624500D01*
X195499500Y-74375500D01*
X195479815Y-74442539D01*
X195427011Y-74488294D01*
X195375500Y-74499500D01*
X188429813Y-74499500D01*
X188422184Y-74500000D01*
X188000000Y-74500000D01*
X188000000Y-74922185D01*
X187999500Y-74929815D01*
X187999500Y-81875500D01*
X187979815Y-81942539D01*
X187927011Y-81988294D01*
X187875500Y-81999500D01*
X108124500Y-81999500D01*
X108057461Y-81979815D01*
X108011706Y-81927011D01*
X108000500Y-81875500D01*
X108000500Y-74929815D01*
X108000000Y-74922185D01*
X108000000Y-74500000D01*
X107577816Y-74500000D01*
X107570187Y-74499500D01*
X107565892Y-74499500D01*
X100624500Y-74499500D01*
X100557461Y-74479815D01*
X100511706Y-74427011D01*
X100500500Y-74375500D01*
X100500500Y-72701314D01*
X100520185Y-72634275D01*
X100572989Y-72588520D01*
X100642147Y-72578576D01*
X100705703Y-72607601D01*
X100724814Y-72628424D01*
X100777772Y-72701314D01*
X100824141Y-72765136D01*
X100954865Y-72895860D01*
X100954870Y-72895864D01*
X100994761Y-72924846D01*
X101104428Y-73004523D01*
X101212106Y-73059388D01*
X101269147Y-73088452D01*
X101269150Y-73088453D01*
X101444969Y-73145580D01*
X101627560Y-73174500D01*
X101627565Y-73174500D01*
X101812440Y-73174500D01*
X101995030Y-73145580D01*
X102170849Y-73088453D01*
X102170852Y-73088452D01*
X102335572Y-73004523D01*
X102485136Y-72895859D01*
X102615859Y-72765136D01*
X102724523Y-72615572D01*
X102808452Y-72450852D01*
X102865580Y-72275029D01*
X102867527Y-72262737D01*
X102897456Y-72199602D01*
X102956768Y-72162671D01*
X103026630Y-72163669D01*
X103084863Y-72202279D01*
X103112473Y-72262737D01*
X103114420Y-72275030D01*
X103171546Y-72450849D01*
X103171547Y-72450852D01*
X103228588Y-72562799D01*
X103241693Y-72588520D01*
X103255479Y-72615575D01*
X103364135Y-72765129D01*
X103364139Y-72765134D01*
X103494865Y-72895860D01*
X103494870Y-72895864D01*
X103534761Y-72924846D01*
X103644428Y-73004523D01*
X103752106Y-73059388D01*
X103809147Y-73088452D01*
X103809150Y-73088453D01*
X103984969Y-73145580D01*
X104167560Y-73174500D01*
X104167565Y-73174500D01*
X104352440Y-73174500D01*
X104535030Y-73145580D01*
X104710849Y-73088453D01*
X104710852Y-73088452D01*
X104875572Y-73004523D01*
X105025136Y-72895859D01*
X105155859Y-72765136D01*
X105264523Y-72615572D01*
X105348452Y-72450852D01*
X105405580Y-72275029D01*
X105407527Y-72262737D01*
X105437456Y-72199602D01*
X105496768Y-72162671D01*
X105566630Y-72163669D01*
X105624863Y-72202279D01*
X105652473Y-72262737D01*
X105654420Y-72275030D01*
X105711546Y-72450849D01*
X105711547Y-72450852D01*
X105768588Y-72562799D01*
X105781693Y-72588520D01*
X105795479Y-72615575D01*
X105904135Y-72765129D01*
X105904139Y-72765134D01*
X106034865Y-72895860D01*
X106034870Y-72895864D01*
X106074761Y-72924846D01*
X106184428Y-73004523D01*
X106292106Y-73059388D01*
X106349147Y-73088452D01*
X106349150Y-73088453D01*
X106524969Y-73145580D01*
X106707560Y-73174500D01*
X106707565Y-73174500D01*
X106892440Y-73174500D01*
X107075030Y-73145580D01*
X107250849Y-73088453D01*
X107250852Y-73088452D01*
X107415572Y-73004523D01*
X107565136Y-72895859D01*
X107695859Y-72765136D01*
X107804523Y-72615572D01*
X107888452Y-72450852D01*
X107945580Y-72275029D01*
X107947527Y-72262737D01*
X107977456Y-72199602D01*
X108036768Y-72162671D01*
X108106630Y-72163669D01*
X108164863Y-72202279D01*
X108192473Y-72262737D01*
X108194420Y-72275030D01*
X108251546Y-72450849D01*
X108251547Y-72450852D01*
X108308588Y-72562799D01*
X108321693Y-72588520D01*
X108335479Y-72615575D01*
X108444135Y-72765129D01*
X108444139Y-72765134D01*
X108574865Y-72895860D01*
X108574870Y-72895864D01*
X108614761Y-72924846D01*
X108724428Y-73004523D01*
X108832106Y-73059388D01*
X108889147Y-73088452D01*
X108889150Y-73088453D01*
X109064969Y-73145580D01*
X109247560Y-73174500D01*
X109247565Y-73174500D01*
X109432440Y-73174500D01*
X109615030Y-73145580D01*
X109790849Y-73088453D01*
X109790852Y-73088452D01*
X109955572Y-73004523D01*
X110105136Y-72895859D01*
X110235859Y-72765136D01*
X110344523Y-72615572D01*
X110428452Y-72450852D01*
X110485580Y-72275029D01*
X110487527Y-72262737D01*
X110517456Y-72199602D01*
X110576768Y-72162671D01*
X110646630Y-72163669D01*
X110704863Y-72202279D01*
X110732473Y-72262737D01*
X110734420Y-72275030D01*
X110791546Y-72450849D01*
X110791547Y-72450852D01*
X110848588Y-72562799D01*
X110861693Y-72588520D01*
X110875479Y-72615575D01*
X110984135Y-72765129D01*
X110984139Y-72765134D01*
X111114865Y-72895860D01*
X111114870Y-72895864D01*
X111154761Y-72924846D01*
X111264428Y-73004523D01*
X111372106Y-73059388D01*
X111429147Y-73088452D01*
X111429150Y-73088453D01*
X111604969Y-73145580D01*
X111787560Y-73174500D01*
X111787565Y-73174500D01*
X111972440Y-73174500D01*
X112155030Y-73145580D01*
X112330849Y-73088453D01*
X112330852Y-73088452D01*
X112495572Y-73004523D01*
X112645136Y-72895859D01*
X112775859Y-72765136D01*
X112884523Y-72615572D01*
X112968452Y-72450852D01*
X113025580Y-72275029D01*
X113027527Y-72262737D01*
X113057456Y-72199602D01*
X113116768Y-72162671D01*
X113186630Y-72163669D01*
X113244863Y-72202279D01*
X113272473Y-72262737D01*
X113274420Y-72275030D01*
X113331546Y-72450849D01*
X113331547Y-72450852D01*
X113388588Y-72562799D01*
X113401693Y-72588520D01*
X113415479Y-72615575D01*
X113524135Y-72765129D01*
X113524139Y-72765134D01*
X113654865Y-72895860D01*
X113654870Y-72895864D01*
X113694761Y-72924846D01*
X113804428Y-73004523D01*
X113912106Y-73059388D01*
X113969147Y-73088452D01*
X113969150Y-73088453D01*
X114144969Y-73145580D01*
X114327560Y-73174500D01*
X114327565Y-73174500D01*
X114512440Y-73174500D01*
X114695030Y-73145580D01*
X114870849Y-73088453D01*
X114870852Y-73088452D01*
X115035572Y-73004523D01*
X115185136Y-72895859D01*
X115315859Y-72765136D01*
X115424523Y-72615572D01*
X115508452Y-72450852D01*
X115565580Y-72275029D01*
X115567527Y-72262737D01*
X115597456Y-72199602D01*
X115656768Y-72162671D01*
X115726630Y-72163669D01*
X115784863Y-72202279D01*
X115812473Y-72262737D01*
X115814420Y-72275030D01*
X115871546Y-72450849D01*
X115871547Y-72450852D01*
X115928588Y-72562799D01*
X115941693Y-72588520D01*
X115955479Y-72615575D01*
X116064135Y-72765129D01*
X116064139Y-72765134D01*
X116194865Y-72895860D01*
X116194870Y-72895864D01*
X116234761Y-72924846D01*
X116344428Y-73004523D01*
X116452106Y-73059388D01*
X116509147Y-73088452D01*
X116509150Y-73088453D01*
X116684969Y-73145580D01*
X116867560Y-73174500D01*
X116867565Y-73174500D01*
X117052440Y-73174500D01*
X117235030Y-73145580D01*
X117410849Y-73088453D01*
X117410852Y-73088452D01*
X117575572Y-73004523D01*
X117725136Y-72895859D01*
X117855859Y-72765136D01*
X117964523Y-72615572D01*
X118048452Y-72450852D01*
X118105580Y-72275029D01*
X118107527Y-72262737D01*
X118137456Y-72199602D01*
X118196768Y-72162671D01*
X118266630Y-72163669D01*
X118324863Y-72202279D01*
X118352473Y-72262737D01*
X118354420Y-72275030D01*
X118411546Y-72450849D01*
X118411547Y-72450852D01*
X118468588Y-72562799D01*
X118481693Y-72588520D01*
X118495479Y-72615575D01*
X118604135Y-72765129D01*
X118604139Y-72765134D01*
X118734865Y-72895860D01*
X118734870Y-72895864D01*
X118774761Y-72924846D01*
X118884428Y-73004523D01*
X118992106Y-73059388D01*
X119049147Y-73088452D01*
X119049150Y-73088453D01*
X119224969Y-73145580D01*
X119407560Y-73174500D01*
X119407565Y-73174500D01*
X119592440Y-73174500D01*
X119775030Y-73145580D01*
X119950849Y-73088453D01*
X119950852Y-73088452D01*
X120115572Y-73004523D01*
X120265136Y-72895859D01*
X120395859Y-72765136D01*
X120504523Y-72615572D01*
X120588452Y-72450852D01*
X120645580Y-72275029D01*
X120647527Y-72262737D01*
X120674500Y-72092440D01*
X120674500Y-71907559D01*
X120645580Y-71724969D01*
X120588453Y-71549150D01*
X120588452Y-71549147D01*
X120522757Y-71420215D01*
X120504523Y-71384428D01*
X120462633Y-71326771D01*
X120395864Y-71234870D01*
X120395860Y-71234865D01*
X120265134Y-71104139D01*
X120265129Y-71104135D01*
X120115575Y-70995479D01*
X120115574Y-70995478D01*
X120115572Y-70995477D01*
X120062799Y-70968588D01*
X119950852Y-70911547D01*
X119950849Y-70911546D01*
X119775030Y-70854419D01*
X119592440Y-70825500D01*
X119592435Y-70825500D01*
X119407565Y-70825500D01*
X119407560Y-70825500D01*
X119224969Y-70854419D01*
X119049150Y-70911546D01*
X119049147Y-70911547D01*
X118884424Y-70995479D01*
X118734870Y-71104135D01*
X118734865Y-71104139D01*
X118604139Y-71234865D01*
X118604135Y-71234870D01*
X118495479Y-71384424D01*
X118411547Y-71549147D01*
X118411546Y-71549150D01*
X118354420Y-71724969D01*
X118352473Y-71737263D01*
X118322543Y-71800397D01*
X118263231Y-71837328D01*
X118193369Y-71836330D01*
X118135136Y-71797719D01*
X118107527Y-71737263D01*
X118107192Y-71735150D01*
X118105580Y-71724971D01*
X118048452Y-71549148D01*
X118048452Y-71549147D01*
X117982757Y-71420215D01*
X117964523Y-71384428D01*
X117922633Y-71326771D01*
X117855864Y-71234870D01*
X117855860Y-71234865D01*
X117725134Y-71104139D01*
X117725129Y-71104135D01*
X117575575Y-70995479D01*
X117575574Y-70995478D01*
X117575572Y-70995477D01*
X117522799Y-70968588D01*
X117410852Y-70911547D01*
X117410849Y-70911546D01*
X117235030Y-70854419D01*
X117052440Y-70825500D01*
X117052435Y-70825500D01*
X116867565Y-70825500D01*
X116867560Y-70825500D01*
X116684969Y-70854419D01*
X116509150Y-70911546D01*
X116509147Y-70911547D01*
X116344424Y-70995479D01*
X116194870Y-71104135D01*
X116194865Y-71104139D01*
X116064139Y-71234865D01*
X116064135Y-71234870D01*
X115955479Y-71384424D01*
X115871547Y-71549147D01*
X115871546Y-71549150D01*
X115814420Y-71724969D01*
X115812473Y-71737263D01*
X115782543Y-71800397D01*
X115723231Y-71837328D01*
X115653369Y-71836330D01*
X115595136Y-71797719D01*
X115567527Y-71737263D01*
X115567192Y-71735150D01*
X115565580Y-71724971D01*
X115508452Y-71549148D01*
X115508452Y-71549147D01*
X115442757Y-71420215D01*
X115424523Y-71384428D01*
X115382633Y-71326771D01*
X115315864Y-71234870D01*
X115315860Y-71234865D01*
X115185134Y-71104139D01*
X115185129Y-71104135D01*
X115035575Y-70995479D01*
X115035574Y-70995478D01*
X115035572Y-70995477D01*
X114982799Y-70968588D01*
X114870852Y-70911547D01*
X114870849Y-70911546D01*
X114695030Y-70854419D01*
X114512440Y-70825500D01*
X114512435Y-70825500D01*
X114327565Y-70825500D01*
X114327560Y-70825500D01*
X114144969Y-70854419D01*
X113969150Y-70911546D01*
X113969147Y-70911547D01*
X113804424Y-70995479D01*
X113654870Y-71104135D01*
X113654865Y-71104139D01*
X113524139Y-71234865D01*
X113524135Y-71234870D01*
X113415479Y-71384424D01*
X113331547Y-71549147D01*
X113331546Y-71549150D01*
X113274420Y-71724969D01*
X113272473Y-71737263D01*
X113242543Y-71800397D01*
X113183231Y-71837328D01*
X113113369Y-71836330D01*
X113055136Y-71797719D01*
X113027527Y-71737263D01*
X113027192Y-71735150D01*
X113025580Y-71724971D01*
X112968452Y-71549148D01*
X112968452Y-71549147D01*
X112902757Y-71420215D01*
X112884523Y-71384428D01*
X112842633Y-71326771D01*
X112775864Y-71234870D01*
X112775860Y-71234865D01*
X112645134Y-71104139D01*
X112645129Y-71104135D01*
X112495575Y-70995479D01*
X112495574Y-70995478D01*
X112495572Y-70995477D01*
X112442799Y-70968588D01*
X112330852Y-70911547D01*
X112330849Y-70911546D01*
X112155030Y-70854419D01*
X111972440Y-70825500D01*
X111972435Y-70825500D01*
X111787565Y-70825500D01*
X111787560Y-70825500D01*
X111604969Y-70854419D01*
X111429150Y-70911546D01*
X111429147Y-70911547D01*
X111264424Y-70995479D01*
X111114870Y-71104135D01*
X111114865Y-71104139D01*
X110984139Y-71234865D01*
X110984135Y-71234870D01*
X110875479Y-71384424D01*
X110791547Y-71549147D01*
X110791546Y-71549150D01*
X110734420Y-71724969D01*
X110732473Y-71737263D01*
X110702543Y-71800397D01*
X110643231Y-71837328D01*
X110573369Y-71836330D01*
X110515136Y-71797719D01*
X110487527Y-71737263D01*
X110487192Y-71735150D01*
X110485580Y-71724971D01*
X110428452Y-71549148D01*
X110428452Y-71549147D01*
X110362757Y-71420215D01*
X110344523Y-71384428D01*
X110302633Y-71326771D01*
X110235864Y-71234870D01*
X110235860Y-71234865D01*
X110105134Y-71104139D01*
X110105129Y-71104135D01*
X109955575Y-70995479D01*
X109955574Y-70995478D01*
X109955572Y-70995477D01*
X109902799Y-70968588D01*
X109790852Y-70911547D01*
X109790849Y-70911546D01*
X109615030Y-70854419D01*
X109432440Y-70825500D01*
X109432435Y-70825500D01*
X109247565Y-70825500D01*
X109247560Y-70825500D01*
X109064969Y-70854419D01*
X108889150Y-70911546D01*
X108889147Y-70911547D01*
X108724424Y-70995479D01*
X108574870Y-71104135D01*
X108574865Y-71104139D01*
X108444139Y-71234865D01*
X108444135Y-71234870D01*
X108335479Y-71384424D01*
X108251547Y-71549147D01*
X108251546Y-71549150D01*
X108194420Y-71724969D01*
X108192473Y-71737263D01*
X108162543Y-71800397D01*
X108103231Y-71837328D01*
X108033369Y-71836330D01*
X107975136Y-71797719D01*
X107947527Y-71737263D01*
X107947192Y-71735150D01*
X107945580Y-71724971D01*
X107888452Y-71549148D01*
X107888452Y-71549147D01*
X107822757Y-71420215D01*
X107804523Y-71384428D01*
X107762633Y-71326771D01*
X107695864Y-71234870D01*
X107695860Y-71234865D01*
X107565134Y-71104139D01*
X107565129Y-71104135D01*
X107415575Y-70995479D01*
X107415574Y-70995478D01*
X107415572Y-70995477D01*
X107362799Y-70968588D01*
X107250852Y-70911547D01*
X107250849Y-70911546D01*
X107075030Y-70854419D01*
X106892440Y-70825500D01*
X106892435Y-70825500D01*
X106707565Y-70825500D01*
X106707560Y-70825500D01*
X106524969Y-70854419D01*
X106349150Y-70911546D01*
X106349147Y-70911547D01*
X106184424Y-70995479D01*
X106034870Y-71104135D01*
X106034865Y-71104139D01*
X105904139Y-71234865D01*
X105904135Y-71234870D01*
X105795479Y-71384424D01*
X105711547Y-71549147D01*
X105711546Y-71549150D01*
X105654420Y-71724969D01*
X105652473Y-71737263D01*
X105622543Y-71800397D01*
X105563231Y-71837328D01*
X105493369Y-71836330D01*
X105435136Y-71797719D01*
X105407527Y-71737263D01*
X105407192Y-71735150D01*
X105405580Y-71724971D01*
X105348452Y-71549148D01*
X105348452Y-71549147D01*
X105282757Y-71420215D01*
X105264523Y-71384428D01*
X105222633Y-71326771D01*
X105155864Y-71234870D01*
X105155860Y-71234865D01*
X105025134Y-71104139D01*
X105025129Y-71104135D01*
X104875575Y-70995479D01*
X104875574Y-70995478D01*
X104875572Y-70995477D01*
X104822799Y-70968588D01*
X104710852Y-70911547D01*
X104710849Y-70911546D01*
X104535030Y-70854419D01*
X104352440Y-70825500D01*
X104352435Y-70825500D01*
X104167565Y-70825500D01*
X104167560Y-70825500D01*
X103984969Y-70854419D01*
X103809150Y-70911546D01*
X103809147Y-70911547D01*
X103644424Y-70995479D01*
X103494870Y-71104135D01*
X103494865Y-71104139D01*
X103364139Y-71234865D01*
X103364135Y-71234870D01*
X103255479Y-71384424D01*
X103171547Y-71549147D01*
X103171546Y-71549150D01*
X103114420Y-71724969D01*
X103112473Y-71737263D01*
X103082543Y-71800397D01*
X103023231Y-71837328D01*
X102953369Y-71836330D01*
X102895136Y-71797719D01*
X102867527Y-71737263D01*
X102867192Y-71735150D01*
X102865580Y-71724971D01*
X102808452Y-71549148D01*
X102808452Y-71549147D01*
X102742757Y-71420215D01*
X102724523Y-71384428D01*
X102682633Y-71326771D01*
X102615864Y-71234870D01*
X102615860Y-71234865D01*
X102485134Y-71104139D01*
X102485129Y-71104135D01*
X102335575Y-70995479D01*
X102335574Y-70995478D01*
X102335572Y-70995477D01*
X102282799Y-70968588D01*
X102170852Y-70911547D01*
X102170849Y-70911546D01*
X101995030Y-70854419D01*
X101812440Y-70825500D01*
X101812435Y-70825500D01*
X101627565Y-70825500D01*
X101627560Y-70825500D01*
X101444969Y-70854419D01*
X101269150Y-70911546D01*
X101269147Y-70911547D01*
X101104424Y-70995479D01*
X100954870Y-71104135D01*
X100954865Y-71104139D01*
X100824139Y-71234865D01*
X100824135Y-71234870D01*
X100724818Y-71371570D01*
X100669489Y-71414236D01*
X100599875Y-71420215D01*
X100538080Y-71387610D01*
X100503723Y-71326771D01*
X100500500Y-71298685D01*
X100500500Y-62674041D01*
X125935000Y-62674041D01*
X125935000Y-62750000D01*
X126679670Y-62750000D01*
X126659925Y-62769745D01*
X126610556Y-62855255D01*
X126585000Y-62950630D01*
X126585000Y-63049370D01*
X126610556Y-63144745D01*
X126659925Y-63230255D01*
X126679670Y-63250000D01*
X125935000Y-63250000D01*
X125935000Y-63325958D01*
X125974387Y-63523974D01*
X125974390Y-63523983D01*
X126051652Y-63710513D01*
X126051659Y-63710526D01*
X126163829Y-63878399D01*
X126163832Y-63878403D01*
X126306596Y-64021167D01*
X126306600Y-64021170D01*
X126474473Y-64133340D01*
X126474486Y-64133347D01*
X126661016Y-64210609D01*
X126661025Y-64210612D01*
X126710000Y-64220353D01*
X126710000Y-63280330D01*
X126729745Y-63300075D01*
X126815255Y-63349444D01*
X126910630Y-63375000D01*
X127009370Y-63375000D01*
X127104745Y-63349444D01*
X127190255Y-63300075D01*
X127204500Y-63285830D01*
X127204500Y-63326002D01*
X127207617Y-63341671D01*
X127210000Y-63365865D01*
X127210000Y-64220352D01*
X127258974Y-64210612D01*
X127258983Y-64210609D01*
X127445515Y-64133346D01*
X127445518Y-64133344D01*
X127525658Y-64079796D01*
X127592335Y-64058917D01*
X127659716Y-64077401D01*
X127663422Y-64079783D01*
X127744244Y-64133786D01*
X127930873Y-64211091D01*
X128096777Y-64244091D01*
X128128992Y-64250499D01*
X128128996Y-64250500D01*
X128128997Y-64250500D01*
X128331004Y-64250500D01*
X128331005Y-64250499D01*
X128529127Y-64211091D01*
X128530284Y-64210612D01*
X128572879Y-64192968D01*
X128609798Y-64177674D01*
X128679267Y-64170205D01*
X128724658Y-64189962D01*
X128724886Y-64189546D01*
X128729540Y-64192087D01*
X128731562Y-64192967D01*
X128732669Y-64193796D01*
X128732670Y-64193796D01*
X128732671Y-64193797D01*
X128777618Y-64210561D01*
X128867517Y-64244091D01*
X128927127Y-64250500D01*
X129198795Y-64250499D01*
X129265834Y-64270183D01*
X129286476Y-64286818D01*
X137863181Y-72863523D01*
X137896666Y-72924846D01*
X137899500Y-72951204D01*
X137899500Y-75551810D01*
X137893503Y-75572230D01*
X137892289Y-75593479D01*
X137880959Y-75614951D01*
X137879815Y-75618849D01*
X137875819Y-75624694D01*
X137850010Y-75660218D01*
X137794681Y-75702885D01*
X137725067Y-75708865D01*
X137663272Y-75676259D01*
X137649373Y-75660219D01*
X137529727Y-75495540D01*
X137529723Y-75495535D01*
X137379464Y-75345276D01*
X137379459Y-75345272D01*
X137207557Y-75220379D01*
X137018215Y-75123903D01*
X136816124Y-75058241D01*
X136750000Y-75047768D01*
X136750000Y-76095854D01*
X136683343Y-76057370D01*
X136562535Y-76025000D01*
X136437465Y-76025000D01*
X136316657Y-76057370D01*
X136250000Y-76095854D01*
X136250000Y-75047768D01*
X136249999Y-75047768D01*
X136183875Y-75058241D01*
X135981784Y-75123903D01*
X135792442Y-75220379D01*
X135620540Y-75345272D01*
X135620535Y-75345276D01*
X135470276Y-75495535D01*
X135470272Y-75495540D01*
X135350627Y-75660218D01*
X135295297Y-75702884D01*
X135225684Y-75708863D01*
X135163889Y-75676257D01*
X135149991Y-75660218D01*
X135030109Y-75495214D01*
X135030105Y-75495209D01*
X134879786Y-75344890D01*
X134707820Y-75219951D01*
X134518414Y-75123444D01*
X134518413Y-75123443D01*
X134518412Y-75123443D01*
X134316243Y-75057754D01*
X134316241Y-75057753D01*
X134316240Y-75057753D01*
X134154957Y-75032208D01*
X134106287Y-75024500D01*
X133893713Y-75024500D01*
X133845042Y-75032208D01*
X133683760Y-75057753D01*
X133481585Y-75123444D01*
X133292179Y-75219951D01*
X133120215Y-75344889D01*
X132981398Y-75483706D01*
X132920075Y-75517190D01*
X132850383Y-75512206D01*
X132794450Y-75470334D01*
X132788178Y-75461120D01*
X132692712Y-75306344D01*
X132568657Y-75182289D01*
X132568656Y-75182288D01*
X132419334Y-75090186D01*
X132252797Y-75035001D01*
X132252795Y-75035000D01*
X132150010Y-75024500D01*
X130849998Y-75024500D01*
X130849981Y-75024501D01*
X130747203Y-75035000D01*
X130747200Y-75035001D01*
X130580668Y-75090185D01*
X130580663Y-75090187D01*
X130431342Y-75182289D01*
X130307289Y-75306342D01*
X130215187Y-75455663D01*
X130215185Y-75455668D01*
X130210325Y-75470334D01*
X130160001Y-75622203D01*
X130160001Y-75622204D01*
X130160000Y-75622204D01*
X130149500Y-75724983D01*
X130149500Y-77275001D01*
X130149501Y-77275018D01*
X130160000Y-77377796D01*
X130160001Y-77377799D01*
X130205894Y-77516294D01*
X130215186Y-77544334D01*
X130307288Y-77693656D01*
X130431344Y-77817712D01*
X130580666Y-77909814D01*
X130747203Y-77964999D01*
X130849991Y-77975500D01*
X132150008Y-77975499D01*
X132252797Y-77964999D01*
X132419334Y-77909814D01*
X132568656Y-77817712D01*
X132692712Y-77693656D01*
X132784814Y-77544334D01*
X132784814Y-77544331D01*
X132788178Y-77538879D01*
X132840126Y-77492154D01*
X132909088Y-77480931D01*
X132973170Y-77508774D01*
X132981398Y-77516294D01*
X133120213Y-77655109D01*
X133292179Y-77780048D01*
X133292181Y-77780049D01*
X133292184Y-77780051D01*
X133481588Y-77876557D01*
X133683757Y-77942246D01*
X133893713Y-77975500D01*
X133893714Y-77975500D01*
X134106286Y-77975500D01*
X134106287Y-77975500D01*
X134316243Y-77942246D01*
X134518412Y-77876557D01*
X134707816Y-77780051D01*
X134757831Y-77743713D01*
X134879786Y-77655109D01*
X134879788Y-77655106D01*
X134879792Y-77655104D01*
X135030104Y-77504792D01*
X135149991Y-77339779D01*
X135205320Y-77297115D01*
X135274933Y-77291136D01*
X135336729Y-77323741D01*
X135350627Y-77339781D01*
X135470272Y-77504459D01*
X135470276Y-77504464D01*
X135620535Y-77654723D01*
X135620540Y-77654727D01*
X135792442Y-77779620D01*
X135981782Y-77876095D01*
X136183871Y-77941757D01*
X136250000Y-77952231D01*
X136250000Y-76904145D01*
X136316657Y-76942630D01*
X136437465Y-76975000D01*
X136562535Y-76975000D01*
X136683343Y-76942630D01*
X136750000Y-76904145D01*
X136750000Y-77952230D01*
X136816126Y-77941757D01*
X136816129Y-77941757D01*
X137018217Y-77876095D01*
X137207557Y-77779620D01*
X137379459Y-77654727D01*
X137379464Y-77654723D01*
X137529721Y-77504466D01*
X137649371Y-77339781D01*
X137704701Y-77297115D01*
X137774314Y-77291136D01*
X137836110Y-77323741D01*
X137850008Y-77339781D01*
X137969890Y-77504785D01*
X137969894Y-77504790D01*
X138120213Y-77655109D01*
X138292179Y-77780048D01*
X138292181Y-77780049D01*
X138292184Y-77780051D01*
X138481588Y-77876557D01*
X138683757Y-77942246D01*
X138893713Y-77975500D01*
X138893714Y-77975500D01*
X139106286Y-77975500D01*
X139106287Y-77975500D01*
X139316243Y-77942246D01*
X139518412Y-77876557D01*
X139707816Y-77780051D01*
X139757831Y-77743713D01*
X139879786Y-77655109D01*
X139879788Y-77655106D01*
X139879792Y-77655104D01*
X140030104Y-77504792D01*
X140030106Y-77504788D01*
X140030109Y-77504786D01*
X140107948Y-77397648D01*
X148579500Y-77397648D01*
X148579500Y-77602351D01*
X148611522Y-77804534D01*
X148674781Y-77999223D01*
X148767715Y-78181613D01*
X148888028Y-78347213D01*
X149032786Y-78491971D01*
X149187749Y-78604556D01*
X149198390Y-78612287D01*
X149308541Y-78668412D01*
X149380776Y-78705218D01*
X149380778Y-78705218D01*
X149380781Y-78705220D01*
X149485137Y-78739127D01*
X149575465Y-78768477D01*
X149676557Y-78784488D01*
X149777648Y-78800500D01*
X149777649Y-78800500D01*
X149982351Y-78800500D01*
X149982352Y-78800500D01*
X150184534Y-78768477D01*
X150379219Y-78705220D01*
X150561610Y-78612287D01*
X150654590Y-78544732D01*
X150727213Y-78491971D01*
X150727215Y-78491968D01*
X150727219Y-78491966D01*
X150871966Y-78347219D01*
X150871968Y-78347215D01*
X150871971Y-78347213D01*
X150942599Y-78250000D01*
X150992287Y-78181610D01*
X151085220Y-77999219D01*
X151148477Y-77804534D01*
X151180500Y-77602352D01*
X151180500Y-77397648D01*
X156199500Y-77397648D01*
X156199500Y-77602351D01*
X156231522Y-77804534D01*
X156294781Y-77999223D01*
X156387715Y-78181613D01*
X156508028Y-78347213D01*
X156652786Y-78491971D01*
X156807749Y-78604556D01*
X156818390Y-78612287D01*
X156928541Y-78668412D01*
X157000776Y-78705218D01*
X157000778Y-78705218D01*
X157000781Y-78705220D01*
X157105137Y-78739127D01*
X157195465Y-78768477D01*
X157296557Y-78784488D01*
X157397648Y-78800500D01*
X157397649Y-78800500D01*
X157602351Y-78800500D01*
X157602352Y-78800500D01*
X157804534Y-78768477D01*
X157999219Y-78705220D01*
X158181610Y-78612287D01*
X158274590Y-78544732D01*
X158347213Y-78491971D01*
X158347215Y-78491968D01*
X158347219Y-78491966D01*
X158491966Y-78347219D01*
X158491968Y-78347215D01*
X158491971Y-78347213D01*
X158562599Y-78250000D01*
X158612287Y-78181610D01*
X158705220Y-77999219D01*
X158768477Y-77804534D01*
X158778110Y-77743713D01*
X166149500Y-77743713D01*
X166149500Y-78256286D01*
X166182703Y-78465925D01*
X166182754Y-78466243D01*
X166193722Y-78500000D01*
X166248444Y-78668414D01*
X166344951Y-78857820D01*
X166469890Y-79029786D01*
X166620213Y-79180109D01*
X166792179Y-79305048D01*
X166792181Y-79305049D01*
X166792184Y-79305051D01*
X166981588Y-79401557D01*
X167183757Y-79467246D01*
X167393713Y-79500500D01*
X167393714Y-79500500D01*
X167606286Y-79500500D01*
X167606287Y-79500500D01*
X167816243Y-79467246D01*
X168018412Y-79401557D01*
X168207816Y-79305051D01*
X168265141Y-79263402D01*
X168379784Y-79180110D01*
X168379784Y-79180109D01*
X168379792Y-79180104D01*
X168518967Y-79040928D01*
X168580286Y-79007446D01*
X168649978Y-79012430D01*
X168705912Y-79054301D01*
X168712184Y-79063515D01*
X168807684Y-79218345D01*
X168931654Y-79342315D01*
X169080875Y-79434356D01*
X169080880Y-79434358D01*
X169247302Y-79489505D01*
X169247309Y-79489506D01*
X169350019Y-79499999D01*
X169749999Y-79499999D01*
X169750000Y-79499998D01*
X169750000Y-78433012D01*
X169807007Y-78465925D01*
X169934174Y-78500000D01*
X170065826Y-78500000D01*
X170192993Y-78465925D01*
X170250000Y-78433012D01*
X170250000Y-79499999D01*
X170649972Y-79499999D01*
X170649986Y-79499998D01*
X170752697Y-79489505D01*
X170919119Y-79434358D01*
X170919124Y-79434356D01*
X171068345Y-79342315D01*
X171192315Y-79218345D01*
X171284356Y-79069124D01*
X171284358Y-79069119D01*
X171339505Y-78902697D01*
X171339506Y-78902690D01*
X171349999Y-78799986D01*
X171350000Y-78799973D01*
X171350000Y-78250000D01*
X170433012Y-78250000D01*
X170465925Y-78192993D01*
X170500000Y-78065826D01*
X170500000Y-77934174D01*
X170465925Y-77807007D01*
X170433012Y-77750000D01*
X171349999Y-77750000D01*
X171349999Y-77200028D01*
X171349998Y-77200013D01*
X171339505Y-77097302D01*
X171284358Y-76930880D01*
X171284356Y-76930875D01*
X171192315Y-76781654D01*
X171068345Y-76657684D01*
X170919124Y-76565643D01*
X170919119Y-76565641D01*
X170752697Y-76510494D01*
X170752690Y-76510493D01*
X170649986Y-76500000D01*
X170250000Y-76500000D01*
X170250000Y-77566988D01*
X170192993Y-77534075D01*
X170065826Y-77500000D01*
X169934174Y-77500000D01*
X169807007Y-77534075D01*
X169750000Y-77566988D01*
X169750000Y-76500000D01*
X169350028Y-76500000D01*
X169350012Y-76500001D01*
X169247302Y-76510494D01*
X169080880Y-76565641D01*
X169080875Y-76565643D01*
X168931654Y-76657684D01*
X168807683Y-76781655D01*
X168807680Y-76781659D01*
X168712183Y-76936484D01*
X168660235Y-76983209D01*
X168591273Y-76994430D01*
X168527191Y-76966587D01*
X168518964Y-76959068D01*
X168379786Y-76819890D01*
X168207820Y-76694951D01*
X168018414Y-76598444D01*
X168018413Y-76598443D01*
X168018412Y-76598443D01*
X167816243Y-76532754D01*
X167816241Y-76532753D01*
X167816240Y-76532753D01*
X167654957Y-76507208D01*
X167606287Y-76499500D01*
X167393713Y-76499500D01*
X167345042Y-76507208D01*
X167183760Y-76532753D01*
X166981585Y-76598444D01*
X166792179Y-76694951D01*
X166620213Y-76819890D01*
X166469890Y-76970213D01*
X166344951Y-77142179D01*
X166248444Y-77331585D01*
X166182753Y-77533760D01*
X166149500Y-77743713D01*
X158778110Y-77743713D01*
X158800500Y-77602352D01*
X158800500Y-77397648D01*
X158790232Y-77332821D01*
X158768477Y-77195465D01*
X158705218Y-77000776D01*
X158643727Y-76880095D01*
X158612287Y-76818390D01*
X158604556Y-76807749D01*
X158491971Y-76652786D01*
X158347213Y-76508028D01*
X158181613Y-76387715D01*
X158181612Y-76387714D01*
X158181610Y-76387713D01*
X158124653Y-76358691D01*
X157999223Y-76294781D01*
X157804534Y-76231522D01*
X157629995Y-76203878D01*
X157602352Y-76199500D01*
X157397648Y-76199500D01*
X157373329Y-76203351D01*
X157195465Y-76231522D01*
X157000776Y-76294781D01*
X156818386Y-76387715D01*
X156652786Y-76508028D01*
X156508028Y-76652786D01*
X156387715Y-76818386D01*
X156294781Y-77000776D01*
X156231522Y-77195465D01*
X156199500Y-77397648D01*
X151180500Y-77397648D01*
X151170232Y-77332821D01*
X151148477Y-77195465D01*
X151085218Y-77000776D01*
X151023727Y-76880095D01*
X150992287Y-76818390D01*
X150984556Y-76807749D01*
X150871971Y-76652786D01*
X150727213Y-76508028D01*
X150561613Y-76387715D01*
X150561612Y-76387714D01*
X150561610Y-76387713D01*
X150504653Y-76358691D01*
X150379223Y-76294781D01*
X150184534Y-76231522D01*
X150009995Y-76203878D01*
X149982352Y-76199500D01*
X149777648Y-76199500D01*
X149753329Y-76203351D01*
X149575465Y-76231522D01*
X149380776Y-76294781D01*
X149198386Y-76387715D01*
X149032786Y-76508028D01*
X148888028Y-76652786D01*
X148767715Y-76818386D01*
X148674781Y-77000776D01*
X148611522Y-77195465D01*
X148579500Y-77397648D01*
X140107948Y-77397648D01*
X140122371Y-77377796D01*
X140155051Y-77332816D01*
X140251557Y-77143412D01*
X140317246Y-76941243D01*
X140350500Y-76731287D01*
X140350500Y-76268713D01*
X140317246Y-76058757D01*
X140251557Y-75856588D01*
X140155051Y-75667184D01*
X140124181Y-75624694D01*
X140100702Y-75558887D01*
X140100500Y-75551810D01*
X140100500Y-72357389D01*
X140073402Y-72186299D01*
X140019873Y-72021555D01*
X139941232Y-71867212D01*
X139839414Y-71727072D01*
X139716928Y-71604586D01*
X131991053Y-63878711D01*
X147149500Y-63878711D01*
X147149500Y-64121288D01*
X147181161Y-64361785D01*
X147243947Y-64596104D01*
X147336773Y-64820205D01*
X147336776Y-64820212D01*
X147458064Y-65030289D01*
X147458066Y-65030292D01*
X147458067Y-65030293D01*
X147605733Y-65222736D01*
X147605739Y-65222743D01*
X147777256Y-65394260D01*
X147777262Y-65394265D01*
X147969711Y-65541936D01*
X148179788Y-65663224D01*
X148403900Y-65756054D01*
X148638211Y-65818838D01*
X148818586Y-65842584D01*
X148878711Y-65850500D01*
X148878712Y-65850500D01*
X149121289Y-65850500D01*
X149169388Y-65844167D01*
X149361789Y-65818838D01*
X149596100Y-65756054D01*
X149820212Y-65663224D01*
X150030289Y-65541936D01*
X150222738Y-65394265D01*
X150394265Y-65222738D01*
X150541936Y-65030289D01*
X150663224Y-64820212D01*
X150756054Y-64596100D01*
X150818838Y-64361789D01*
X150850500Y-64121288D01*
X150850500Y-63878712D01*
X150850500Y-63878711D01*
X180149500Y-63878711D01*
X180149500Y-64121288D01*
X180181161Y-64361785D01*
X180243947Y-64596104D01*
X180336773Y-64820205D01*
X180336776Y-64820212D01*
X180458064Y-65030289D01*
X180458066Y-65030292D01*
X180458067Y-65030293D01*
X180605733Y-65222736D01*
X180605739Y-65222743D01*
X180777256Y-65394260D01*
X180777262Y-65394265D01*
X180969711Y-65541936D01*
X181179788Y-65663224D01*
X181403900Y-65756054D01*
X181638211Y-65818838D01*
X181818586Y-65842584D01*
X181878711Y-65850500D01*
X181878712Y-65850500D01*
X182121289Y-65850500D01*
X182169388Y-65844167D01*
X182361789Y-65818838D01*
X182596100Y-65756054D01*
X182820212Y-65663224D01*
X183030289Y-65541936D01*
X183222738Y-65394265D01*
X183394265Y-65222738D01*
X183541936Y-65030289D01*
X183663224Y-64820212D01*
X183756054Y-64596100D01*
X183818838Y-64361789D01*
X183850500Y-64121288D01*
X183850500Y-63878712D01*
X183818838Y-63638211D01*
X183756054Y-63403900D01*
X183663224Y-63179788D01*
X183541936Y-62969711D01*
X183394265Y-62777262D01*
X183394260Y-62777256D01*
X183222743Y-62605739D01*
X183222736Y-62605733D01*
X183030293Y-62458067D01*
X183030292Y-62458066D01*
X183030289Y-62458064D01*
X182820212Y-62336776D01*
X182706044Y-62289486D01*
X182596104Y-62243947D01*
X182361785Y-62181161D01*
X182121289Y-62149500D01*
X182121288Y-62149500D01*
X181878712Y-62149500D01*
X181878711Y-62149500D01*
X181638214Y-62181161D01*
X181403895Y-62243947D01*
X181179794Y-62336773D01*
X181179785Y-62336777D01*
X180969706Y-62458067D01*
X180777263Y-62605733D01*
X180777256Y-62605739D01*
X180605739Y-62777256D01*
X180605733Y-62777263D01*
X180458067Y-62969706D01*
X180336777Y-63179785D01*
X180336773Y-63179794D01*
X180243947Y-63403895D01*
X180181161Y-63638214D01*
X180149500Y-63878711D01*
X150850500Y-63878711D01*
X150818838Y-63638211D01*
X150756054Y-63403900D01*
X150663224Y-63179788D01*
X150541936Y-62969711D01*
X150394265Y-62777262D01*
X150394260Y-62777256D01*
X150222743Y-62605739D01*
X150222736Y-62605733D01*
X150030293Y-62458067D01*
X150030292Y-62458066D01*
X150030289Y-62458064D01*
X149820212Y-62336776D01*
X149706044Y-62289486D01*
X149596104Y-62243947D01*
X149361785Y-62181161D01*
X149121289Y-62149500D01*
X149121288Y-62149500D01*
X148878712Y-62149500D01*
X148878711Y-62149500D01*
X148638214Y-62181161D01*
X148403895Y-62243947D01*
X148179794Y-62336773D01*
X148179785Y-62336777D01*
X147969706Y-62458067D01*
X147777263Y-62605733D01*
X147777256Y-62605739D01*
X147605739Y-62777256D01*
X147605733Y-62777263D01*
X147458067Y-62969706D01*
X147336777Y-63179785D01*
X147336773Y-63179794D01*
X147243947Y-63403895D01*
X147181161Y-63638214D01*
X147149500Y-63878711D01*
X131991053Y-63878711D01*
X130561818Y-62449476D01*
X130528333Y-62388153D01*
X130525499Y-62361795D01*
X130525499Y-62202129D01*
X130525498Y-62202123D01*
X130519091Y-62142516D01*
X130468797Y-62007671D01*
X130468793Y-62007664D01*
X130382547Y-61892455D01*
X130382544Y-61892452D01*
X130267335Y-61806206D01*
X130267328Y-61806202D01*
X130132482Y-61755908D01*
X130132483Y-61755908D01*
X130072883Y-61749501D01*
X130072881Y-61749500D01*
X130072873Y-61749500D01*
X130072864Y-61749500D01*
X128927129Y-61749500D01*
X128927123Y-61749501D01*
X128867516Y-61755908D01*
X128732672Y-61806202D01*
X128732665Y-61806206D01*
X128731556Y-61807037D01*
X128730258Y-61807520D01*
X128724887Y-61810454D01*
X128724465Y-61809681D01*
X128666090Y-61831449D01*
X128609800Y-61822325D01*
X128529127Y-61788909D01*
X128529119Y-61788907D01*
X128331007Y-61749500D01*
X128331003Y-61749500D01*
X128128997Y-61749500D01*
X128128992Y-61749500D01*
X127930880Y-61788907D01*
X127930872Y-61788909D01*
X127744243Y-61866214D01*
X127663439Y-61920204D01*
X127596761Y-61941081D01*
X127529382Y-61922595D01*
X127525659Y-61920203D01*
X127445526Y-61866659D01*
X127445513Y-61866652D01*
X127258984Y-61789390D01*
X127258977Y-61789388D01*
X127210000Y-61779645D01*
X127210000Y-62634134D01*
X127207617Y-62658326D01*
X127204500Y-62673995D01*
X127204500Y-62714170D01*
X127190255Y-62699925D01*
X127104745Y-62650556D01*
X127009370Y-62625000D01*
X126910630Y-62625000D01*
X126815255Y-62650556D01*
X126729745Y-62699925D01*
X126710000Y-62719670D01*
X126710000Y-61779646D01*
X126709999Y-61779645D01*
X126661022Y-61789388D01*
X126661015Y-61789390D01*
X126474486Y-61866652D01*
X126474473Y-61866659D01*
X126306600Y-61978829D01*
X126306596Y-61978832D01*
X126163832Y-62121596D01*
X126163829Y-62121600D01*
X126051659Y-62289473D01*
X126051652Y-62289486D01*
X125974390Y-62476016D01*
X125974387Y-62476025D01*
X125935000Y-62674041D01*
X100500500Y-62674041D01*
X100500500Y-57461314D01*
X100520185Y-57394275D01*
X100572989Y-57348520D01*
X100642147Y-57338576D01*
X100705703Y-57367601D01*
X100724814Y-57388424D01*
X100777772Y-57461314D01*
X100824141Y-57525136D01*
X100954865Y-57655860D01*
X100954870Y-57655864D01*
X101083431Y-57749268D01*
X101104428Y-57764523D01*
X101212106Y-57819388D01*
X101269147Y-57848452D01*
X101269150Y-57848453D01*
X101444969Y-57905580D01*
X101627560Y-57934500D01*
X101627565Y-57934500D01*
X101812440Y-57934500D01*
X101995030Y-57905580D01*
X102170849Y-57848453D01*
X102170852Y-57848452D01*
X102171767Y-57847986D01*
X102335572Y-57764523D01*
X102485136Y-57655859D01*
X102615859Y-57525136D01*
X102724523Y-57375572D01*
X102808452Y-57210852D01*
X102865580Y-57035029D01*
X102867780Y-57021137D01*
X102897708Y-56958005D01*
X102957019Y-56921073D01*
X103026882Y-56922069D01*
X103085115Y-56960678D01*
X103112726Y-57021136D01*
X103114907Y-57034910D01*
X103172014Y-57210664D01*
X103255900Y-57375303D01*
X103255903Y-57375307D01*
X103270730Y-57395715D01*
X103270730Y-57395716D01*
X103842356Y-56824089D01*
X103868622Y-56922114D01*
X103923916Y-57017886D01*
X104002114Y-57096084D01*
X104097886Y-57151378D01*
X104195909Y-57177643D01*
X103624283Y-57749268D01*
X103624283Y-57749269D01*
X103644686Y-57764092D01*
X103809338Y-57847986D01*
X103985091Y-57905092D01*
X104167605Y-57934000D01*
X104352395Y-57934000D01*
X104534908Y-57905092D01*
X104710661Y-57847986D01*
X104875310Y-57764094D01*
X104895715Y-57749268D01*
X104895716Y-57749268D01*
X104324090Y-57177642D01*
X104422114Y-57151378D01*
X104517886Y-57096084D01*
X104596084Y-57017886D01*
X104651378Y-56922114D01*
X104677642Y-56824090D01*
X105249268Y-57395716D01*
X105249268Y-57395715D01*
X105264094Y-57375310D01*
X105347986Y-57210661D01*
X105405091Y-57034911D01*
X105407272Y-57021143D01*
X105437199Y-56958007D01*
X105496509Y-56921073D01*
X105566372Y-56922068D01*
X105624606Y-56960676D01*
X105652219Y-57021133D01*
X105652220Y-57021140D01*
X105654420Y-57035029D01*
X105654420Y-57035031D01*
X105654421Y-57035033D01*
X105711546Y-57210849D01*
X105711547Y-57210852D01*
X105768588Y-57322799D01*
X105781693Y-57348520D01*
X105795479Y-57375575D01*
X105904135Y-57525129D01*
X105904139Y-57525134D01*
X106034865Y-57655860D01*
X106034870Y-57655864D01*
X106163431Y-57749268D01*
X106184428Y-57764523D01*
X106292106Y-57819388D01*
X106349147Y-57848452D01*
X106349150Y-57848453D01*
X106524969Y-57905580D01*
X106707560Y-57934500D01*
X106707565Y-57934500D01*
X106892440Y-57934500D01*
X107075030Y-57905580D01*
X107250849Y-57848453D01*
X107250852Y-57848452D01*
X107251767Y-57847986D01*
X107415572Y-57764523D01*
X107565136Y-57655859D01*
X107695859Y-57525136D01*
X107804523Y-57375572D01*
X107888452Y-57210852D01*
X107945580Y-57035029D01*
X107947527Y-57022737D01*
X107977456Y-56959602D01*
X108036768Y-56922671D01*
X108106630Y-56923669D01*
X108164863Y-56962279D01*
X108192473Y-57022737D01*
X108194420Y-57035030D01*
X108251546Y-57210849D01*
X108251547Y-57210852D01*
X108308588Y-57322799D01*
X108321693Y-57348520D01*
X108335479Y-57375575D01*
X108444135Y-57525129D01*
X108444139Y-57525134D01*
X108574865Y-57655860D01*
X108574870Y-57655864D01*
X108703431Y-57749268D01*
X108724428Y-57764523D01*
X108832106Y-57819388D01*
X108889147Y-57848452D01*
X108889150Y-57848453D01*
X109064969Y-57905580D01*
X109247560Y-57934500D01*
X109247565Y-57934500D01*
X109432440Y-57934500D01*
X109615030Y-57905580D01*
X109790849Y-57848453D01*
X109790852Y-57848452D01*
X109791767Y-57847986D01*
X109955572Y-57764523D01*
X110105136Y-57655859D01*
X110235859Y-57525136D01*
X110344523Y-57375572D01*
X110428452Y-57210852D01*
X110485580Y-57035029D01*
X110487527Y-57022737D01*
X110517456Y-56959602D01*
X110576768Y-56922671D01*
X110646630Y-56923669D01*
X110704863Y-56962279D01*
X110732473Y-57022737D01*
X110734420Y-57035030D01*
X110791546Y-57210849D01*
X110791547Y-57210852D01*
X110848588Y-57322799D01*
X110861693Y-57348520D01*
X110875479Y-57375575D01*
X110984135Y-57525129D01*
X110984139Y-57525134D01*
X111114865Y-57655860D01*
X111114870Y-57655864D01*
X111243431Y-57749268D01*
X111264428Y-57764523D01*
X111372106Y-57819388D01*
X111429147Y-57848452D01*
X111429150Y-57848453D01*
X111604969Y-57905580D01*
X111787560Y-57934500D01*
X111787565Y-57934500D01*
X111972440Y-57934500D01*
X112155030Y-57905580D01*
X112330849Y-57848453D01*
X112330852Y-57848452D01*
X112331767Y-57847986D01*
X112495572Y-57764523D01*
X112645136Y-57655859D01*
X112775859Y-57525136D01*
X112884523Y-57375572D01*
X112968452Y-57210852D01*
X113025580Y-57035029D01*
X113027527Y-57022737D01*
X113057456Y-56959602D01*
X113116768Y-56922671D01*
X113186630Y-56923669D01*
X113244863Y-56962279D01*
X113272473Y-57022737D01*
X113274420Y-57035030D01*
X113331546Y-57210849D01*
X113331547Y-57210852D01*
X113388588Y-57322799D01*
X113401693Y-57348520D01*
X113415479Y-57375575D01*
X113524135Y-57525129D01*
X113524139Y-57525134D01*
X113654865Y-57655860D01*
X113654870Y-57655864D01*
X113783431Y-57749268D01*
X113804428Y-57764523D01*
X113912106Y-57819388D01*
X113969147Y-57848452D01*
X113969150Y-57848453D01*
X114144969Y-57905580D01*
X114327560Y-57934500D01*
X114327565Y-57934500D01*
X114512440Y-57934500D01*
X114695030Y-57905580D01*
X114870849Y-57848453D01*
X114870852Y-57848452D01*
X114871767Y-57847986D01*
X115035572Y-57764523D01*
X115185136Y-57655859D01*
X115315859Y-57525136D01*
X115424523Y-57375572D01*
X115508452Y-57210852D01*
X115565580Y-57035029D01*
X115567527Y-57022737D01*
X115597456Y-56959602D01*
X115656768Y-56922671D01*
X115726630Y-56923669D01*
X115784863Y-56962279D01*
X115812473Y-57022737D01*
X115814420Y-57035030D01*
X115871546Y-57210849D01*
X115871547Y-57210852D01*
X115928588Y-57322799D01*
X115941693Y-57348520D01*
X115955479Y-57375575D01*
X116064135Y-57525129D01*
X116064139Y-57525134D01*
X116194865Y-57655860D01*
X116194870Y-57655864D01*
X116323431Y-57749268D01*
X116344428Y-57764523D01*
X116452106Y-57819388D01*
X116509147Y-57848452D01*
X116509150Y-57848453D01*
X116684969Y-57905580D01*
X116867560Y-57934500D01*
X116867565Y-57934500D01*
X117052440Y-57934500D01*
X117235030Y-57905580D01*
X117410849Y-57848453D01*
X117410852Y-57848452D01*
X117411767Y-57847986D01*
X117575572Y-57764523D01*
X117725136Y-57655859D01*
X117855859Y-57525136D01*
X117964523Y-57375572D01*
X118048452Y-57210852D01*
X118105580Y-57035029D01*
X118107527Y-57022737D01*
X118137456Y-56959602D01*
X118196768Y-56922671D01*
X118266630Y-56923669D01*
X118324863Y-56962279D01*
X118352473Y-57022737D01*
X118354420Y-57035030D01*
X118411546Y-57210849D01*
X118411547Y-57210852D01*
X118468588Y-57322799D01*
X118481693Y-57348520D01*
X118495479Y-57375575D01*
X118604135Y-57525129D01*
X118604139Y-57525134D01*
X118734865Y-57655860D01*
X118734870Y-57655864D01*
X118863431Y-57749268D01*
X118884428Y-57764523D01*
X118992106Y-57819388D01*
X119049147Y-57848452D01*
X119049150Y-57848453D01*
X119224969Y-57905580D01*
X119407560Y-57934500D01*
X119407565Y-57934500D01*
X119592440Y-57934500D01*
X119775030Y-57905580D01*
X119950849Y-57848453D01*
X119950852Y-57848452D01*
X119951767Y-57847986D01*
X120115572Y-57764523D01*
X120265136Y-57655859D01*
X120395859Y-57525136D01*
X120504523Y-57375572D01*
X120588452Y-57210852D01*
X120625742Y-57096084D01*
X120645580Y-57035030D01*
X120674500Y-56852440D01*
X120674500Y-56667559D01*
X120645580Y-56484969D01*
X120588453Y-56309150D01*
X120588452Y-56309147D01*
X120522757Y-56180215D01*
X120504523Y-56144428D01*
X120462633Y-56086771D01*
X120395864Y-55994870D01*
X120395860Y-55994865D01*
X120265134Y-55864139D01*
X120265129Y-55864135D01*
X120115575Y-55755479D01*
X120115574Y-55755478D01*
X120115572Y-55755477D01*
X120062799Y-55728588D01*
X119950852Y-55671547D01*
X119950849Y-55671546D01*
X119775030Y-55614419D01*
X119592440Y-55585500D01*
X119592435Y-55585500D01*
X119407565Y-55585500D01*
X119407560Y-55585500D01*
X119224969Y-55614419D01*
X119049150Y-55671546D01*
X119049147Y-55671547D01*
X118884424Y-55755479D01*
X118734870Y-55864135D01*
X118734865Y-55864139D01*
X118604139Y-55994865D01*
X118604135Y-55994870D01*
X118495479Y-56144424D01*
X118411547Y-56309147D01*
X118411546Y-56309150D01*
X118354420Y-56484969D01*
X118352473Y-56497263D01*
X118322543Y-56560397D01*
X118263231Y-56597328D01*
X118193369Y-56596330D01*
X118135136Y-56557719D01*
X118107527Y-56497263D01*
X118107192Y-56495150D01*
X118105580Y-56484971D01*
X118067776Y-56368622D01*
X118048453Y-56309150D01*
X118048452Y-56309147D01*
X117982757Y-56180215D01*
X117964523Y-56144428D01*
X117922633Y-56086771D01*
X117855864Y-55994870D01*
X117855860Y-55994865D01*
X117725134Y-55864139D01*
X117725129Y-55864135D01*
X117575575Y-55755479D01*
X117575574Y-55755478D01*
X117575572Y-55755477D01*
X117522799Y-55728588D01*
X117410852Y-55671547D01*
X117410849Y-55671546D01*
X117235030Y-55614419D01*
X117052440Y-55585500D01*
X117052435Y-55585500D01*
X116867565Y-55585500D01*
X116867560Y-55585500D01*
X116684969Y-55614419D01*
X116509150Y-55671546D01*
X116509147Y-55671547D01*
X116344424Y-55755479D01*
X116194870Y-55864135D01*
X116194865Y-55864139D01*
X116064139Y-55994865D01*
X116064135Y-55994870D01*
X115955479Y-56144424D01*
X115871547Y-56309147D01*
X115871546Y-56309150D01*
X115814420Y-56484969D01*
X115812473Y-56497263D01*
X115782543Y-56560397D01*
X115723231Y-56597328D01*
X115653369Y-56596330D01*
X115595136Y-56557719D01*
X115567527Y-56497263D01*
X115567192Y-56495150D01*
X115565580Y-56484971D01*
X115527776Y-56368622D01*
X115508453Y-56309150D01*
X115508452Y-56309147D01*
X115442757Y-56180215D01*
X115424523Y-56144428D01*
X115382633Y-56086771D01*
X115315864Y-55994870D01*
X115315860Y-55994865D01*
X115185134Y-55864139D01*
X115185129Y-55864135D01*
X115035575Y-55755479D01*
X115035574Y-55755478D01*
X115035572Y-55755477D01*
X114982799Y-55728588D01*
X114870852Y-55671547D01*
X114870849Y-55671546D01*
X114695030Y-55614419D01*
X114512440Y-55585500D01*
X114512435Y-55585500D01*
X114327565Y-55585500D01*
X114327560Y-55585500D01*
X114144969Y-55614419D01*
X113969150Y-55671546D01*
X113969147Y-55671547D01*
X113804424Y-55755479D01*
X113654870Y-55864135D01*
X113654865Y-55864139D01*
X113524139Y-55994865D01*
X113524135Y-55994870D01*
X113415479Y-56144424D01*
X113331547Y-56309147D01*
X113331546Y-56309150D01*
X113274420Y-56484969D01*
X113272473Y-56497263D01*
X113242543Y-56560397D01*
X113183231Y-56597328D01*
X113113369Y-56596330D01*
X113055136Y-56557719D01*
X113027527Y-56497263D01*
X113027192Y-56495150D01*
X113025580Y-56484971D01*
X112987776Y-56368622D01*
X112968453Y-56309150D01*
X112968452Y-56309147D01*
X112902757Y-56180215D01*
X112884523Y-56144428D01*
X112842633Y-56086771D01*
X112775864Y-55994870D01*
X112775860Y-55994865D01*
X112645134Y-55864139D01*
X112645129Y-55864135D01*
X112495575Y-55755479D01*
X112495574Y-55755478D01*
X112495572Y-55755477D01*
X112442799Y-55728588D01*
X112330852Y-55671547D01*
X112330849Y-55671546D01*
X112155030Y-55614419D01*
X111972440Y-55585500D01*
X111972435Y-55585500D01*
X111787565Y-55585500D01*
X111787560Y-55585500D01*
X111604969Y-55614419D01*
X111429150Y-55671546D01*
X111429147Y-55671547D01*
X111264424Y-55755479D01*
X111114870Y-55864135D01*
X111114865Y-55864139D01*
X110984139Y-55994865D01*
X110984135Y-55994870D01*
X110875479Y-56144424D01*
X110791547Y-56309147D01*
X110791546Y-56309150D01*
X110734420Y-56484969D01*
X110732473Y-56497263D01*
X110702543Y-56560397D01*
X110643231Y-56597328D01*
X110573369Y-56596330D01*
X110515136Y-56557719D01*
X110487527Y-56497263D01*
X110487192Y-56495150D01*
X110485580Y-56484971D01*
X110447776Y-56368622D01*
X110428453Y-56309150D01*
X110428452Y-56309147D01*
X110362757Y-56180215D01*
X110344523Y-56144428D01*
X110302633Y-56086771D01*
X110235864Y-55994870D01*
X110235860Y-55994865D01*
X110105134Y-55864139D01*
X110105129Y-55864135D01*
X109955575Y-55755479D01*
X109955574Y-55755478D01*
X109955572Y-55755477D01*
X109902799Y-55728588D01*
X109790852Y-55671547D01*
X109790849Y-55671546D01*
X109615030Y-55614419D01*
X109432440Y-55585500D01*
X109432435Y-55585500D01*
X109247565Y-55585500D01*
X109247560Y-55585500D01*
X109064969Y-55614419D01*
X108889150Y-55671546D01*
X108889147Y-55671547D01*
X108724424Y-55755479D01*
X108574870Y-55864135D01*
X108574865Y-55864139D01*
X108444139Y-55994865D01*
X108444135Y-55994870D01*
X108335479Y-56144424D01*
X108251547Y-56309147D01*
X108251546Y-56309150D01*
X108194420Y-56484969D01*
X108192473Y-56497263D01*
X108162543Y-56560397D01*
X108103231Y-56597328D01*
X108033369Y-56596330D01*
X107975136Y-56557719D01*
X107947527Y-56497263D01*
X107947192Y-56495150D01*
X107945580Y-56484971D01*
X107907776Y-56368622D01*
X107888453Y-56309150D01*
X107888452Y-56309147D01*
X107822757Y-56180215D01*
X107804523Y-56144428D01*
X107762633Y-56086771D01*
X107695864Y-55994870D01*
X107695860Y-55994865D01*
X107565134Y-55864139D01*
X107565129Y-55864135D01*
X107415575Y-55755479D01*
X107415574Y-55755478D01*
X107415572Y-55755477D01*
X107362799Y-55728588D01*
X107250852Y-55671547D01*
X107250849Y-55671546D01*
X107075030Y-55614419D01*
X106892440Y-55585500D01*
X106892435Y-55585500D01*
X106707565Y-55585500D01*
X106707560Y-55585500D01*
X106524969Y-55614419D01*
X106349150Y-55671546D01*
X106349147Y-55671547D01*
X106184424Y-55755479D01*
X106034870Y-55864135D01*
X106034865Y-55864139D01*
X105904139Y-55994865D01*
X105904135Y-55994870D01*
X105795479Y-56144424D01*
X105711547Y-56309147D01*
X105711546Y-56309150D01*
X105654419Y-56484971D01*
X105652218Y-56498867D01*
X105622286Y-56562000D01*
X105562973Y-56598928D01*
X105493110Y-56597927D01*
X105434879Y-56559315D01*
X105407272Y-56498857D01*
X105405091Y-56485087D01*
X105347986Y-56309338D01*
X105264092Y-56144686D01*
X105249269Y-56124283D01*
X104677642Y-56695909D01*
X104651378Y-56597886D01*
X104596084Y-56502114D01*
X104517886Y-56423916D01*
X104422114Y-56368622D01*
X104324090Y-56342356D01*
X104895716Y-55770730D01*
X104875307Y-55755903D01*
X104875303Y-55755900D01*
X104710664Y-55672014D01*
X104534908Y-55614907D01*
X104352395Y-55586000D01*
X104167605Y-55586000D01*
X103985091Y-55614907D01*
X103809338Y-55672013D01*
X103644692Y-55755903D01*
X103644688Y-55755906D01*
X103624283Y-55770729D01*
X103624283Y-55770730D01*
X104195910Y-56342356D01*
X104097886Y-56368622D01*
X104002114Y-56423916D01*
X103923916Y-56502114D01*
X103868622Y-56597886D01*
X103842356Y-56695909D01*
X103270730Y-56124283D01*
X103270729Y-56124283D01*
X103255906Y-56144688D01*
X103255903Y-56144692D01*
X103172013Y-56309338D01*
X103114908Y-56485088D01*
X103112726Y-56498864D01*
X103082795Y-56561998D01*
X103023483Y-56598928D01*
X102953620Y-56597928D01*
X102895388Y-56559317D01*
X102867780Y-56498860D01*
X102865580Y-56484970D01*
X102808453Y-56309150D01*
X102808452Y-56309147D01*
X102742757Y-56180215D01*
X102724523Y-56144428D01*
X102682633Y-56086771D01*
X102615864Y-55994870D01*
X102615860Y-55994865D01*
X102485134Y-55864139D01*
X102485129Y-55864135D01*
X102335575Y-55755479D01*
X102335574Y-55755478D01*
X102335572Y-55755477D01*
X102282799Y-55728588D01*
X102170852Y-55671547D01*
X102170849Y-55671546D01*
X101995030Y-55614419D01*
X101812440Y-55585500D01*
X101812435Y-55585500D01*
X101627565Y-55585500D01*
X101627560Y-55585500D01*
X101444969Y-55614419D01*
X101269150Y-55671546D01*
X101269147Y-55671547D01*
X101104424Y-55755479D01*
X100954870Y-55864135D01*
X100954865Y-55864139D01*
X100824139Y-55994865D01*
X100824135Y-55994870D01*
X100724818Y-56131570D01*
X100669489Y-56174236D01*
X100599875Y-56180215D01*
X100538080Y-56147610D01*
X100503723Y-56086771D01*
X100500500Y-56058685D01*
X100500500Y-54624500D01*
X100520185Y-54557461D01*
X100572989Y-54511706D01*
X100624500Y-54500500D01*
X107570187Y-54500500D01*
X107577816Y-54500000D01*
X108000000Y-54500000D01*
X108000000Y-54077481D01*
X108000026Y-54067658D01*
X108000500Y-54065892D01*
X108000500Y-53897682D01*
X140580000Y-53897682D01*
X140580000Y-54102317D01*
X140612009Y-54304417D01*
X140675244Y-54499031D01*
X140768141Y-54681350D01*
X140768147Y-54681359D01*
X140800523Y-54725921D01*
X140800524Y-54725922D01*
X141480000Y-54046446D01*
X141480000Y-54052661D01*
X141507259Y-54154394D01*
X141559920Y-54245606D01*
X141634394Y-54320080D01*
X141725606Y-54372741D01*
X141827339Y-54400000D01*
X141833553Y-54400000D01*
X141154076Y-55079474D01*
X141198650Y-55111859D01*
X141380968Y-55204755D01*
X141575582Y-55267990D01*
X141777683Y-55300000D01*
X141982317Y-55300000D01*
X142184417Y-55267990D01*
X142379031Y-55204755D01*
X142561349Y-55111859D01*
X142605921Y-55079474D01*
X141926447Y-54400000D01*
X141932661Y-54400000D01*
X142034394Y-54372741D01*
X142125606Y-54320080D01*
X142200080Y-54245606D01*
X142252741Y-54154394D01*
X142280000Y-54052661D01*
X142280000Y-54046447D01*
X142959474Y-54725921D01*
X142991859Y-54681349D01*
X143084755Y-54499031D01*
X143147990Y-54304417D01*
X143180000Y-54102317D01*
X143180000Y-53897682D01*
X143179995Y-53897648D01*
X148199500Y-53897648D01*
X148199500Y-54102351D01*
X148231522Y-54304534D01*
X148294781Y-54499223D01*
X148358614Y-54624500D01*
X148387585Y-54681359D01*
X148387715Y-54681613D01*
X148508028Y-54847213D01*
X148652786Y-54991971D01*
X148773226Y-55079474D01*
X148818390Y-55112287D01*
X148934607Y-55171503D01*
X149000776Y-55205218D01*
X149000778Y-55205218D01*
X149000781Y-55205220D01*
X149105137Y-55239127D01*
X149195465Y-55268477D01*
X149296557Y-55284488D01*
X149397648Y-55300500D01*
X149397649Y-55300500D01*
X149602351Y-55300500D01*
X149602352Y-55300500D01*
X149804534Y-55268477D01*
X149999219Y-55205220D01*
X150181610Y-55112287D01*
X150325413Y-55007809D01*
X150347213Y-54991971D01*
X150347215Y-54991968D01*
X150347219Y-54991966D01*
X150491966Y-54847219D01*
X150491968Y-54847215D01*
X150491971Y-54847213D01*
X150544732Y-54774590D01*
X150612287Y-54681610D01*
X150705220Y-54499219D01*
X150768477Y-54304534D01*
X150800500Y-54102352D01*
X150800500Y-53897648D01*
X150776118Y-53743713D01*
X153649500Y-53743713D01*
X153649500Y-54256286D01*
X153677775Y-54434812D01*
X153682754Y-54466243D01*
X153693722Y-54500000D01*
X153748444Y-54668414D01*
X153844951Y-54857820D01*
X153969890Y-55029786D01*
X154120213Y-55180109D01*
X154292179Y-55305048D01*
X154292181Y-55305049D01*
X154292184Y-55305051D01*
X154481588Y-55401557D01*
X154683757Y-55467246D01*
X154893713Y-55500500D01*
X154893714Y-55500500D01*
X155106286Y-55500500D01*
X155106287Y-55500500D01*
X155316243Y-55467246D01*
X155518412Y-55401557D01*
X155707816Y-55305051D01*
X155879792Y-55180104D01*
X156018604Y-55041291D01*
X156079923Y-55007809D01*
X156149615Y-55012793D01*
X156205549Y-55054664D01*
X156211821Y-55063878D01*
X156215185Y-55069333D01*
X156215186Y-55069334D01*
X156307288Y-55218656D01*
X156431344Y-55342712D01*
X156580666Y-55434814D01*
X156747203Y-55489999D01*
X156849991Y-55500500D01*
X158150008Y-55500499D01*
X158252797Y-55489999D01*
X158419334Y-55434814D01*
X158568656Y-55342712D01*
X158692712Y-55218656D01*
X158784814Y-55069334D01*
X158839999Y-54902797D01*
X158850500Y-54800009D01*
X158850499Y-53199992D01*
X158839999Y-53097203D01*
X158784814Y-52930666D01*
X158692712Y-52781344D01*
X158568656Y-52657288D01*
X158419334Y-52565186D01*
X158252797Y-52510001D01*
X158252795Y-52510000D01*
X158150010Y-52499500D01*
X156849998Y-52499500D01*
X156849981Y-52499501D01*
X156747203Y-52510000D01*
X156747200Y-52510001D01*
X156580668Y-52565185D01*
X156580663Y-52565187D01*
X156431342Y-52657289D01*
X156307289Y-52781342D01*
X156211821Y-52936121D01*
X156159873Y-52982845D01*
X156090910Y-52994068D01*
X156026828Y-52966224D01*
X156018601Y-52958705D01*
X155879786Y-52819890D01*
X155707820Y-52694951D01*
X155518414Y-52598444D01*
X155518413Y-52598443D01*
X155518412Y-52598443D01*
X155316243Y-52532754D01*
X155316241Y-52532753D01*
X155316240Y-52532753D01*
X155154957Y-52507208D01*
X155106287Y-52499500D01*
X154893713Y-52499500D01*
X154845042Y-52507208D01*
X154683760Y-52532753D01*
X154481585Y-52598444D01*
X154292179Y-52694951D01*
X154120213Y-52819890D01*
X153969890Y-52970213D01*
X153844951Y-53142179D01*
X153748444Y-53331585D01*
X153682753Y-53533760D01*
X153649500Y-53743713D01*
X150776118Y-53743713D01*
X150772164Y-53718748D01*
X150768477Y-53695465D01*
X150737296Y-53599500D01*
X150705220Y-53500781D01*
X150705218Y-53500778D01*
X150705218Y-53500776D01*
X150653920Y-53400099D01*
X150612287Y-53318390D01*
X150580092Y-53274077D01*
X150491971Y-53152786D01*
X150347213Y-53008028D01*
X150181613Y-52887715D01*
X150181612Y-52887714D01*
X150181610Y-52887713D01*
X150124653Y-52858691D01*
X149999223Y-52794781D01*
X149804534Y-52731522D01*
X149629995Y-52703878D01*
X149602352Y-52699500D01*
X149397648Y-52699500D01*
X149373329Y-52703351D01*
X149195465Y-52731522D01*
X149000776Y-52794781D01*
X148818386Y-52887715D01*
X148652786Y-53008028D01*
X148508028Y-53152786D01*
X148387715Y-53318386D01*
X148294781Y-53500776D01*
X148231522Y-53695465D01*
X148199500Y-53897648D01*
X143179995Y-53897648D01*
X143147990Y-53695582D01*
X143084755Y-53500968D01*
X142991859Y-53318650D01*
X142959474Y-53274077D01*
X142959474Y-53274076D01*
X142280000Y-53953551D01*
X142280000Y-53947339D01*
X142252741Y-53845606D01*
X142200080Y-53754394D01*
X142125606Y-53679920D01*
X142034394Y-53627259D01*
X141932661Y-53600000D01*
X141926446Y-53600000D01*
X142605922Y-52920524D01*
X142605921Y-52920523D01*
X142561359Y-52888147D01*
X142561350Y-52888141D01*
X142379031Y-52795244D01*
X142184417Y-52732009D01*
X141982317Y-52700000D01*
X141777683Y-52700000D01*
X141575582Y-52732009D01*
X141380968Y-52795244D01*
X141198644Y-52888143D01*
X141154077Y-52920523D01*
X141154077Y-52920524D01*
X141833554Y-53600000D01*
X141827339Y-53600000D01*
X141725606Y-53627259D01*
X141634394Y-53679920D01*
X141559920Y-53754394D01*
X141507259Y-53845606D01*
X141480000Y-53947339D01*
X141480000Y-53953553D01*
X140800524Y-53274077D01*
X140800523Y-53274077D01*
X140768143Y-53318644D01*
X140675244Y-53500968D01*
X140612009Y-53695582D01*
X140580000Y-53897682D01*
X108000500Y-53897682D01*
X108000500Y-52199983D01*
X173149500Y-52199983D01*
X173149500Y-53800001D01*
X173149501Y-53800018D01*
X173160000Y-53902796D01*
X173160001Y-53902799D01*
X173215185Y-54069331D01*
X173215187Y-54069336D01*
X173250069Y-54125888D01*
X173307288Y-54218656D01*
X173431344Y-54342712D01*
X173580666Y-54434814D01*
X173747203Y-54489999D01*
X173849991Y-54500500D01*
X175150008Y-54500499D01*
X175162539Y-54499219D01*
X175167895Y-54498671D01*
X175252797Y-54489999D01*
X175419334Y-54434814D01*
X175568656Y-54342712D01*
X175692712Y-54218656D01*
X175784814Y-54069334D01*
X175784814Y-54069331D01*
X175788448Y-54063441D01*
X175840395Y-54016716D01*
X175909358Y-54005493D01*
X175973440Y-54033336D01*
X175981668Y-54040856D01*
X176120535Y-54179723D01*
X176120540Y-54179727D01*
X176292442Y-54304620D01*
X176481782Y-54401095D01*
X176683871Y-54466757D01*
X176750000Y-54477231D01*
X176750000Y-53433012D01*
X176807007Y-53465925D01*
X176934174Y-53500000D01*
X177065826Y-53500000D01*
X177192993Y-53465925D01*
X177250000Y-53433012D01*
X177250000Y-54477230D01*
X177316126Y-54466757D01*
X177316129Y-54466757D01*
X177518217Y-54401095D01*
X177707557Y-54304620D01*
X177879459Y-54179727D01*
X177879464Y-54179723D01*
X178029723Y-54029464D01*
X178029727Y-54029459D01*
X178154620Y-53857557D01*
X178251095Y-53668217D01*
X178316757Y-53466130D01*
X178316757Y-53466127D01*
X178350000Y-53256246D01*
X178350000Y-53250000D01*
X177433012Y-53250000D01*
X177465925Y-53192993D01*
X177500000Y-53065826D01*
X177500000Y-52934174D01*
X177465925Y-52807007D01*
X177433012Y-52750000D01*
X178350000Y-52750000D01*
X178350000Y-52743753D01*
X178316757Y-52533872D01*
X178316757Y-52533869D01*
X178251095Y-52331782D01*
X178154620Y-52142442D01*
X178029727Y-51970540D01*
X178029723Y-51970535D01*
X177879464Y-51820276D01*
X177879459Y-51820272D01*
X177707557Y-51695379D01*
X177518215Y-51598903D01*
X177316124Y-51533241D01*
X177250000Y-51522768D01*
X177250000Y-52566988D01*
X177192993Y-52534075D01*
X177065826Y-52500000D01*
X176934174Y-52500000D01*
X176807007Y-52534075D01*
X176750000Y-52566988D01*
X176750000Y-51522768D01*
X176749999Y-51522768D01*
X176683875Y-51533241D01*
X176481784Y-51598903D01*
X176292442Y-51695379D01*
X176120541Y-51820271D01*
X175981668Y-51959144D01*
X175920345Y-51992628D01*
X175850653Y-51987644D01*
X175794720Y-51945772D01*
X175788448Y-51936558D01*
X175692712Y-51781344D01*
X175568657Y-51657289D01*
X175568656Y-51657288D01*
X175419334Y-51565186D01*
X175252797Y-51510001D01*
X175252795Y-51510000D01*
X175150010Y-51499500D01*
X173849998Y-51499500D01*
X173849981Y-51499501D01*
X173747203Y-51510000D01*
X173747200Y-51510001D01*
X173580668Y-51565185D01*
X173580663Y-51565187D01*
X173431342Y-51657289D01*
X173307289Y-51781342D01*
X173215187Y-51930663D01*
X173215185Y-51930668D01*
X173210180Y-51945772D01*
X173160001Y-52097203D01*
X173160001Y-52097204D01*
X173160000Y-52097204D01*
X173149500Y-52199983D01*
X108000500Y-52199983D01*
X108000500Y-47124500D01*
X108020185Y-47057461D01*
X108072989Y-47011706D01*
X108124500Y-47000500D01*
X187875500Y-47000500D01*
X187942539Y-47020185D01*
G37*
%TD.AperFunction*%
%TD*%
M02*
