%TF.GenerationSoftware,KiCad,Pcbnew,9.0.6*%
%TF.CreationDate,2026-01-20T16:44:34-03:00*%
%TF.ProjectId,pcb_fotometro,7063625f-666f-4746-9f6d-6574726f2e6b,rev?*%
%TF.SameCoordinates,Original*%
%TF.FileFunction,Legend,Top*%
%TF.FilePolarity,Positive*%
%FSLAX46Y46*%
G04 Gerber Fmt 4.6, Leading zero omitted, Abs format (unit mm)*
G04 Created by KiCad (PCBNEW 9.0.6) date 2026-01-20 16:44:34*
%MOMM*%
%LPD*%
G01*
G04 APERTURE LIST*
%ADD10C,0.000000*%
%ADD11C,0.200000*%
%ADD12C,0.100000*%
%ADD13C,0.300000*%
%ADD14C,0.150000*%
%ADD15C,0.120000*%
%ADD16C,0.127000*%
G04 APERTURE END LIST*
D10*
G36*
X156967953Y-59252832D02*
G01*
X157018007Y-59258934D01*
X157067505Y-59268519D01*
X157116149Y-59281453D01*
X157163641Y-59297597D01*
X157209682Y-59316816D01*
X157253975Y-59338972D01*
X157296220Y-59363930D01*
X157336121Y-59391553D01*
X157373379Y-59421704D01*
X157407695Y-59454246D01*
X157438771Y-59489044D01*
X157466310Y-59525960D01*
X157490013Y-59564858D01*
X157501284Y-59586148D01*
X157511360Y-59606609D01*
X157520305Y-59626664D01*
X157528185Y-59646736D01*
X157535064Y-59667251D01*
X157541008Y-59688630D01*
X157546081Y-59711299D01*
X157550347Y-59735680D01*
X157553873Y-59762198D01*
X157556722Y-59791276D01*
X157558960Y-59823337D01*
X157560652Y-59858807D01*
X157561861Y-59898107D01*
X157562654Y-59941662D01*
X157563249Y-60043233D01*
X157563407Y-60317738D01*
X157713876Y-60317738D01*
X157864345Y-60317738D01*
X158079344Y-60317738D01*
X158246226Y-60317738D01*
X158297768Y-60317562D01*
X158338680Y-60316838D01*
X158370988Y-60315267D01*
X158384550Y-60314072D01*
X158396720Y-60312554D01*
X158407753Y-60310676D01*
X158417903Y-60308401D01*
X158427422Y-60305693D01*
X158436563Y-60302513D01*
X158445582Y-60298825D01*
X158454730Y-60294592D01*
X158474429Y-60284342D01*
X158488586Y-60276110D01*
X158502027Y-60267244D01*
X158514746Y-60257780D01*
X158526737Y-60247754D01*
X158537993Y-60237200D01*
X158548510Y-60226154D01*
X158558281Y-60214650D01*
X158567299Y-60202724D01*
X158575560Y-60190412D01*
X158583057Y-60177748D01*
X158589784Y-60164768D01*
X158595735Y-60151507D01*
X158600904Y-60138000D01*
X158605286Y-60124282D01*
X158608874Y-60110388D01*
X158611662Y-60096354D01*
X158613645Y-60082216D01*
X158614816Y-60068007D01*
X158615169Y-60053764D01*
X158614699Y-60039521D01*
X158613400Y-60025314D01*
X158611265Y-60011178D01*
X158608288Y-59997148D01*
X158604465Y-59983259D01*
X158599788Y-59969547D01*
X158594251Y-59956047D01*
X158587850Y-59942793D01*
X158580577Y-59929822D01*
X158572427Y-59917169D01*
X158563394Y-59904868D01*
X158553471Y-59892955D01*
X158542654Y-59881465D01*
X158534036Y-59873245D01*
X158525089Y-59865481D01*
X158515830Y-59858175D01*
X158506274Y-59851327D01*
X158496440Y-59844940D01*
X158486343Y-59839014D01*
X158476000Y-59833551D01*
X158465429Y-59828553D01*
X158454645Y-59824021D01*
X158443666Y-59819956D01*
X158432508Y-59816359D01*
X158421189Y-59813233D01*
X158409724Y-59810578D01*
X158398130Y-59808396D01*
X158386426Y-59806689D01*
X158374626Y-59805457D01*
X158362747Y-59804702D01*
X158350808Y-59804425D01*
X158338824Y-59804629D01*
X158326811Y-59805314D01*
X158314788Y-59806481D01*
X158302770Y-59808133D01*
X158290774Y-59810270D01*
X158278817Y-59812894D01*
X158266916Y-59816007D01*
X158255088Y-59819609D01*
X158243348Y-59823702D01*
X158231715Y-59828288D01*
X158220204Y-59833368D01*
X158208833Y-59838943D01*
X158197618Y-59845015D01*
X158186576Y-59851585D01*
X158170169Y-59862213D01*
X158162616Y-59867466D01*
X158155482Y-59872721D01*
X158148755Y-59878009D01*
X158142423Y-59883362D01*
X158136476Y-59888811D01*
X158130902Y-59894388D01*
X158125690Y-59900125D01*
X158120827Y-59906053D01*
X158116303Y-59912204D01*
X158112107Y-59918609D01*
X158108226Y-59925301D01*
X158104650Y-59932310D01*
X158101367Y-59939669D01*
X158098366Y-59947409D01*
X158095634Y-59955561D01*
X158093162Y-59964158D01*
X158090937Y-59973230D01*
X158088949Y-59982810D01*
X158087185Y-59992929D01*
X158085634Y-60003618D01*
X158084285Y-60014910D01*
X158083126Y-60026836D01*
X158082147Y-60039428D01*
X158081335Y-60052716D01*
X158080168Y-60081512D01*
X158079535Y-60113475D01*
X158079344Y-60148860D01*
X158079344Y-60317738D01*
X157864345Y-60317738D01*
X157869476Y-60148860D01*
X157870073Y-60129222D01*
X157871999Y-60072740D01*
X157874177Y-60027060D01*
X157876910Y-59990174D01*
X157878578Y-59974401D01*
X157880498Y-59960073D01*
X157882708Y-59946939D01*
X157885245Y-59934748D01*
X157888148Y-59923249D01*
X157891453Y-59912191D01*
X157895198Y-59901322D01*
X157899423Y-59890392D01*
X157909457Y-59867343D01*
X157918115Y-59849195D01*
X157927048Y-59831924D01*
X157936295Y-59815487D01*
X157945892Y-59799846D01*
X157955878Y-59784960D01*
X157966289Y-59770788D01*
X157977162Y-59757290D01*
X157988536Y-59744425D01*
X158000448Y-59732153D01*
X158012935Y-59720435D01*
X158026034Y-59709228D01*
X158039783Y-59698493D01*
X158054220Y-59688190D01*
X158069382Y-59678278D01*
X158085306Y-59668717D01*
X158102029Y-59659466D01*
X158140431Y-59640803D01*
X158179260Y-59625349D01*
X158218373Y-59613087D01*
X158257629Y-59603998D01*
X158296885Y-59598063D01*
X158335998Y-59595263D01*
X158374825Y-59595581D01*
X158413224Y-59598997D01*
X158451052Y-59605494D01*
X158488167Y-59615052D01*
X158524425Y-59627653D01*
X158559685Y-59643279D01*
X158593804Y-59661910D01*
X158626638Y-59683529D01*
X158658046Y-59708117D01*
X158687885Y-59735655D01*
X158705296Y-59753680D01*
X158721314Y-59771579D01*
X158735977Y-59789442D01*
X158749323Y-59807361D01*
X158761388Y-59825425D01*
X158772209Y-59843727D01*
X158781823Y-59862357D01*
X158790269Y-59881405D01*
X158797581Y-59900964D01*
X158803799Y-59921122D01*
X158808958Y-59941972D01*
X158813096Y-59963604D01*
X158816249Y-59986109D01*
X158818456Y-60009577D01*
X158819753Y-60034101D01*
X158820177Y-60059769D01*
X158819105Y-60094671D01*
X158815900Y-60128564D01*
X158810584Y-60161418D01*
X158803176Y-60193200D01*
X158793695Y-60223879D01*
X158782163Y-60253422D01*
X158768598Y-60281798D01*
X158753021Y-60308974D01*
X158735452Y-60334919D01*
X158715910Y-60359600D01*
X158694415Y-60382987D01*
X158670988Y-60405046D01*
X158645649Y-60425746D01*
X158618416Y-60445055D01*
X158589311Y-60462942D01*
X158558353Y-60479373D01*
X158529373Y-60493352D01*
X158516652Y-60499070D01*
X158504600Y-60504025D01*
X158492837Y-60508284D01*
X158480979Y-60511909D01*
X158468645Y-60514966D01*
X158455454Y-60517520D01*
X158441023Y-60519634D01*
X158424970Y-60521374D01*
X158406914Y-60522804D01*
X158386472Y-60523988D01*
X158363262Y-60524991D01*
X158336904Y-60525878D01*
X158273210Y-60527560D01*
X158076188Y-60532366D01*
X158082204Y-60686328D01*
X158083913Y-60721954D01*
X158086143Y-60755027D01*
X158088867Y-60785343D01*
X158092058Y-60812699D01*
X158095689Y-60836890D01*
X158099734Y-60857713D01*
X158104164Y-60874964D01*
X158106516Y-60882186D01*
X158108954Y-60888439D01*
X158115451Y-60902320D01*
X158122981Y-60916247D01*
X158131482Y-60930157D01*
X158140892Y-60943988D01*
X158151149Y-60957680D01*
X158162191Y-60971168D01*
X158173955Y-60984392D01*
X158186380Y-60997289D01*
X158199404Y-61009798D01*
X158212963Y-61021856D01*
X158226997Y-61033402D01*
X158241443Y-61044372D01*
X158256239Y-61054706D01*
X158271323Y-61064341D01*
X158286632Y-61073216D01*
X158302105Y-61081268D01*
X158314990Y-61087515D01*
X158326865Y-61093021D01*
X158338140Y-61097841D01*
X158349225Y-61102028D01*
X158360530Y-61105635D01*
X158366393Y-61107238D01*
X158372464Y-61108716D01*
X158378796Y-61110076D01*
X158385439Y-61111324D01*
X158399862Y-61113514D01*
X158416146Y-61115339D01*
X158434698Y-61116852D01*
X158455930Y-61118107D01*
X158480251Y-61119157D01*
X158508072Y-61120057D01*
X158539801Y-61120859D01*
X158616627Y-61122387D01*
X158856253Y-61126769D01*
X158861752Y-61041815D01*
X159071531Y-61041815D01*
X159071711Y-61057762D01*
X159072227Y-61072988D01*
X159073043Y-61087134D01*
X159074122Y-61099841D01*
X159075428Y-61110753D01*
X159076926Y-61119509D01*
X159077735Y-61122968D01*
X159078579Y-61125754D01*
X159079452Y-61127822D01*
X159080350Y-61129128D01*
X159081935Y-61130346D01*
X159084133Y-61131467D01*
X159090239Y-61133423D01*
X159098405Y-61135000D01*
X159108368Y-61136207D01*
X159119867Y-61137049D01*
X159132639Y-61137533D01*
X159146422Y-61137666D01*
X159160954Y-61137456D01*
X159175972Y-61136908D01*
X159191213Y-61136029D01*
X159206417Y-61134826D01*
X159221319Y-61133306D01*
X159235658Y-61131475D01*
X159249172Y-61129341D01*
X159261598Y-61126910D01*
X159272674Y-61124188D01*
X159282114Y-61121271D01*
X159291142Y-61117891D01*
X159299752Y-61114071D01*
X159307937Y-61109833D01*
X159315691Y-61105199D01*
X159323006Y-61100191D01*
X159329876Y-61094832D01*
X159336295Y-61089145D01*
X159342255Y-61083151D01*
X159347749Y-61076872D01*
X159352771Y-61070332D01*
X159357314Y-61063552D01*
X159361371Y-61056555D01*
X159364936Y-61049364D01*
X159368001Y-61041999D01*
X159370560Y-61034485D01*
X159372606Y-61026842D01*
X159374132Y-61019094D01*
X159375132Y-61011262D01*
X159375599Y-61003370D01*
X159375525Y-60995439D01*
X159374905Y-60987492D01*
X159373731Y-60979550D01*
X159371997Y-60971637D01*
X159369695Y-60963775D01*
X159366819Y-60955986D01*
X159363363Y-60948292D01*
X159359319Y-60940715D01*
X159354681Y-60933279D01*
X159349441Y-60926005D01*
X159343594Y-60918916D01*
X159337132Y-60912033D01*
X159331164Y-60906197D01*
X159325497Y-60900960D01*
X159320046Y-60896292D01*
X159314724Y-60892162D01*
X159312085Y-60890289D01*
X159309447Y-60888539D01*
X159306799Y-60886908D01*
X159304130Y-60885392D01*
X159301429Y-60883988D01*
X159298687Y-60882692D01*
X159295891Y-60881499D01*
X159293033Y-60880406D01*
X159290100Y-60879409D01*
X159287082Y-60878504D01*
X159283970Y-60877687D01*
X159280751Y-60876956D01*
X159273952Y-60875730D01*
X159266602Y-60874796D01*
X159258614Y-60874123D01*
X159249904Y-60873681D01*
X159240386Y-60873438D01*
X159229976Y-60873364D01*
X159219208Y-60873434D01*
X159209426Y-60873673D01*
X159200523Y-60874124D01*
X159192394Y-60874827D01*
X159184932Y-60875826D01*
X159178032Y-60877162D01*
X159171586Y-60878878D01*
X159165488Y-60881015D01*
X159159633Y-60883616D01*
X159153914Y-60886723D01*
X159148225Y-60890377D01*
X159142460Y-60894622D01*
X159136512Y-60899498D01*
X159130275Y-60905049D01*
X159123643Y-60911317D01*
X159116510Y-60918343D01*
X159109241Y-60925706D01*
X159102793Y-60932495D01*
X159097118Y-60938841D01*
X159092166Y-60944879D01*
X159089947Y-60947823D01*
X159087890Y-60950741D01*
X159085990Y-60953648D01*
X159084241Y-60956561D01*
X159082636Y-60959497D01*
X159081170Y-60962473D01*
X159079836Y-60965505D01*
X159078629Y-60968610D01*
X159077541Y-60971805D01*
X159076568Y-60975106D01*
X159075703Y-60978529D01*
X159074940Y-60982093D01*
X159074273Y-60985813D01*
X159073696Y-60989705D01*
X159072787Y-60998076D01*
X159072165Y-61007339D01*
X159071780Y-61017628D01*
X159071585Y-61029075D01*
X159071531Y-61041815D01*
X158861752Y-61041815D01*
X158862528Y-61029831D01*
X158865088Y-61000667D01*
X158868923Y-60972716D01*
X158874043Y-60945961D01*
X158880462Y-60920379D01*
X158888190Y-60895952D01*
X158897241Y-60872660D01*
X158907627Y-60850482D01*
X158919359Y-60829398D01*
X158932449Y-60809389D01*
X158946910Y-60790434D01*
X158962754Y-60772513D01*
X158979993Y-60755606D01*
X158998639Y-60739694D01*
X159018703Y-60724757D01*
X159040199Y-60710773D01*
X159063138Y-60697724D01*
X159079021Y-60690355D01*
X159096918Y-60683974D01*
X159116543Y-60678580D01*
X159137607Y-60674172D01*
X159159824Y-60670751D01*
X159182907Y-60668316D01*
X159206569Y-60666866D01*
X159230523Y-60666402D01*
X159254481Y-60666924D01*
X159278157Y-60668429D01*
X159301263Y-60670920D01*
X159323513Y-60674394D01*
X159344620Y-60678852D01*
X159364296Y-60684293D01*
X159382254Y-60690717D01*
X159398208Y-60698124D01*
X159413836Y-60706922D01*
X159428854Y-60716359D01*
X159443254Y-60726408D01*
X159457027Y-60737041D01*
X159470163Y-60748230D01*
X159482654Y-60759948D01*
X159494489Y-60772166D01*
X159505660Y-60784856D01*
X159516158Y-60797991D01*
X159525973Y-60811542D01*
X159535096Y-60825483D01*
X159543518Y-60839785D01*
X159551229Y-60854420D01*
X159558221Y-60869360D01*
X159564485Y-60884578D01*
X159570010Y-60900045D01*
X159574788Y-60915734D01*
X159578810Y-60931617D01*
X159582066Y-60947667D01*
X159584547Y-60963854D01*
X159586245Y-60980152D01*
X159587149Y-60996532D01*
X159587251Y-61012968D01*
X159586541Y-61029429D01*
X159585010Y-61045890D01*
X159582649Y-61062322D01*
X159579449Y-61078697D01*
X159575400Y-61094988D01*
X159570493Y-61111166D01*
X159564720Y-61127204D01*
X159558071Y-61143074D01*
X159550536Y-61158747D01*
X159544752Y-61169617D01*
X159538745Y-61180089D01*
X159532505Y-61190170D01*
X159526023Y-61199862D01*
X159519289Y-61209173D01*
X159512293Y-61218106D01*
X159505026Y-61226666D01*
X159497478Y-61234858D01*
X159489639Y-61242688D01*
X159481501Y-61250159D01*
X159473053Y-61257277D01*
X159464286Y-61264047D01*
X159455190Y-61270474D01*
X159445755Y-61276563D01*
X159435973Y-61282317D01*
X159425833Y-61287744D01*
X159415326Y-61292846D01*
X159404442Y-61297630D01*
X159393172Y-61302099D01*
X159381505Y-61306260D01*
X159369433Y-61310116D01*
X159356946Y-61313673D01*
X159344034Y-61316936D01*
X159330688Y-61319909D01*
X159316898Y-61322598D01*
X159302654Y-61325007D01*
X159272768Y-61329005D01*
X159240952Y-61331943D01*
X159207129Y-61333860D01*
X159071531Y-61339384D01*
X159071531Y-61489767D01*
X159071628Y-61538022D01*
X159072132Y-61574759D01*
X159072634Y-61589324D01*
X159073355Y-61601628D01*
X159074335Y-61611877D01*
X159075613Y-61620277D01*
X159077229Y-61627035D01*
X159079222Y-61632356D01*
X159081631Y-61636447D01*
X159084495Y-61639513D01*
X159087855Y-61641761D01*
X159091749Y-61643397D01*
X159096216Y-61644627D01*
X159101296Y-61645658D01*
X159120532Y-61648963D01*
X159150901Y-61653891D01*
X159228366Y-61665950D01*
X159264563Y-61672493D01*
X159301545Y-61681185D01*
X159339103Y-61691916D01*
X159377028Y-61704572D01*
X159415111Y-61719042D01*
X159453144Y-61735212D01*
X159490918Y-61752971D01*
X159528226Y-61772207D01*
X159564858Y-61792806D01*
X159600605Y-61814656D01*
X159635261Y-61837646D01*
X159668615Y-61861663D01*
X159700459Y-61886594D01*
X159730585Y-61912328D01*
X159758784Y-61938751D01*
X159784849Y-61965752D01*
X159809802Y-61993949D01*
X159834213Y-62023349D01*
X159858004Y-62053815D01*
X159881100Y-62085213D01*
X159903424Y-62117405D01*
X159924899Y-62150255D01*
X159945450Y-62183627D01*
X159964999Y-62217385D01*
X159983470Y-62251393D01*
X160000788Y-62285514D01*
X160016874Y-62319612D01*
X160031654Y-62353551D01*
X160045050Y-62387195D01*
X160056987Y-62420407D01*
X160067387Y-62453052D01*
X160076174Y-62484993D01*
X160098449Y-62573310D01*
X160303580Y-62576941D01*
X160508711Y-62580572D01*
X160522954Y-62488552D01*
X160526250Y-62469411D01*
X160530225Y-62450110D01*
X160534852Y-62430715D01*
X160540102Y-62411294D01*
X160545949Y-62391915D01*
X160552364Y-62372644D01*
X160559319Y-62353548D01*
X160566788Y-62334696D01*
X160574742Y-62316153D01*
X160583153Y-62297988D01*
X160591994Y-62280268D01*
X160601237Y-62263060D01*
X160610855Y-62246431D01*
X160620818Y-62230448D01*
X160631101Y-62215179D01*
X160641675Y-62200690D01*
X160653410Y-62186181D01*
X160666538Y-62171616D01*
X160680936Y-62157077D01*
X160696484Y-62142647D01*
X160713059Y-62128406D01*
X160730542Y-62114438D01*
X160748809Y-62100822D01*
X160767740Y-62087641D01*
X160787214Y-62074977D01*
X160807108Y-62062912D01*
X160827303Y-62051526D01*
X160847675Y-62040902D01*
X160868104Y-62031122D01*
X160888469Y-62022267D01*
X160908648Y-62014419D01*
X160928519Y-62007659D01*
X160944730Y-62002662D01*
X160960057Y-61998263D01*
X160975163Y-61994424D01*
X160990710Y-61991109D01*
X161007360Y-61988283D01*
X161025776Y-61985909D01*
X161046620Y-61983951D01*
X161070555Y-61982374D01*
X161098243Y-61981141D01*
X161130346Y-61980216D01*
X161167527Y-61979563D01*
X161210448Y-61979146D01*
X161316160Y-61978877D01*
X161452781Y-61979118D01*
X161689846Y-61980488D01*
X161770622Y-61982015D01*
X161832614Y-61984456D01*
X161880613Y-61988075D01*
X161919411Y-61993136D01*
X161953797Y-61999902D01*
X161988562Y-62008638D01*
X162042641Y-62024649D01*
X162095712Y-62043360D01*
X162147689Y-62064705D01*
X162198486Y-62088616D01*
X162248017Y-62115026D01*
X162296198Y-62143869D01*
X162342941Y-62175078D01*
X162388161Y-62208585D01*
X162431773Y-62244325D01*
X162473690Y-62282229D01*
X162513826Y-62322232D01*
X162552097Y-62364266D01*
X162588416Y-62408264D01*
X162622697Y-62454160D01*
X162654854Y-62501886D01*
X162684802Y-62551376D01*
X162696964Y-62573507D01*
X162709218Y-62597493D01*
X162721475Y-62623090D01*
X162733648Y-62650049D01*
X162757390Y-62707069D01*
X162779740Y-62766579D01*
X162799993Y-62826604D01*
X162817446Y-62885171D01*
X162824903Y-62913290D01*
X162831396Y-62940304D01*
X162836837Y-62965966D01*
X162841139Y-62990029D01*
X162843939Y-63017405D01*
X162846537Y-63061968D01*
X162848881Y-63121548D01*
X162850919Y-63193977D01*
X162853869Y-63368706D01*
X162854973Y-63568805D01*
X162855073Y-64061592D01*
X163111048Y-64061592D01*
X163367023Y-64061592D01*
X163582677Y-64061592D01*
X164013153Y-64061592D01*
X164253432Y-64060966D01*
X164331849Y-64059784D01*
X164388778Y-64057671D01*
X164428965Y-64054361D01*
X164457156Y-64049590D01*
X164478098Y-64043091D01*
X164496536Y-64034600D01*
X164496535Y-64034600D01*
X164503614Y-64030872D01*
X164510422Y-64027044D01*
X164516961Y-64023116D01*
X164523233Y-64019082D01*
X164529239Y-64014939D01*
X164534983Y-64010685D01*
X164540464Y-64006314D01*
X164545686Y-64001825D01*
X164550651Y-63997213D01*
X164555359Y-63992476D01*
X164559814Y-63987608D01*
X164564017Y-63982608D01*
X164567969Y-63977471D01*
X164571674Y-63972195D01*
X164575132Y-63966775D01*
X164578346Y-63961208D01*
X164581318Y-63955491D01*
X164584049Y-63949620D01*
X164586541Y-63943591D01*
X164588797Y-63937402D01*
X164590818Y-63931049D01*
X164592606Y-63924528D01*
X164594163Y-63917835D01*
X164595491Y-63910968D01*
X164596591Y-63903923D01*
X164597467Y-63896696D01*
X164598119Y-63889284D01*
X164598550Y-63881683D01*
X164598761Y-63873890D01*
X164598754Y-63865902D01*
X164598096Y-63849324D01*
X164596755Y-63833306D01*
X164594820Y-63818222D01*
X164592260Y-63804023D01*
X164589044Y-63790662D01*
X164585141Y-63778090D01*
X164580520Y-63766260D01*
X164575150Y-63755123D01*
X164569000Y-63744631D01*
X164562039Y-63734736D01*
X164554236Y-63725389D01*
X164545560Y-63716544D01*
X164535981Y-63708150D01*
X164525466Y-63700161D01*
X164513986Y-63692528D01*
X164501510Y-63685203D01*
X164488005Y-63678138D01*
X164478897Y-63673804D01*
X164469826Y-63669964D01*
X164460381Y-63666587D01*
X164455390Y-63665064D01*
X164450151Y-63663645D01*
X164444613Y-63662328D01*
X164438724Y-63661108D01*
X164432433Y-63659983D01*
X164425688Y-63658947D01*
X164410631Y-63657131D01*
X164393142Y-63655632D01*
X164372808Y-63654420D01*
X164349219Y-63653465D01*
X164321962Y-63652738D01*
X164290626Y-63652209D01*
X164254799Y-63651850D01*
X164214070Y-63651629D01*
X164116255Y-63651488D01*
X163977029Y-63652487D01*
X163918867Y-63653718D01*
X163868698Y-63655422D01*
X163826790Y-63657587D01*
X163793412Y-63660203D01*
X163768833Y-63663258D01*
X163753323Y-63666741D01*
X163741879Y-63670802D01*
X163730893Y-63675071D01*
X163720358Y-63679560D01*
X163710268Y-63684280D01*
X163700617Y-63689239D01*
X163691398Y-63694450D01*
X163682605Y-63699923D01*
X163674233Y-63705667D01*
X163666273Y-63711694D01*
X163658722Y-63718014D01*
X163651571Y-63724637D01*
X163644815Y-63731575D01*
X163638448Y-63738837D01*
X163632463Y-63746434D01*
X163626854Y-63754376D01*
X163621615Y-63762675D01*
X163616739Y-63771340D01*
X163612221Y-63780383D01*
X163608053Y-63789813D01*
X163604231Y-63799641D01*
X163600746Y-63809877D01*
X163597594Y-63820533D01*
X163594768Y-63831618D01*
X163592262Y-63843144D01*
X163590069Y-63855120D01*
X163588183Y-63867557D01*
X163586598Y-63880466D01*
X163585308Y-63893857D01*
X163583586Y-63922127D01*
X163582968Y-63952452D01*
X163582677Y-64061592D01*
X163367023Y-64061592D01*
X163374922Y-63922117D01*
X163377378Y-63884341D01*
X163380265Y-63851443D01*
X163383732Y-63822632D01*
X163385730Y-63809512D01*
X163387931Y-63797117D01*
X163390353Y-63785347D01*
X163393015Y-63774105D01*
X163395935Y-63763290D01*
X163399133Y-63752804D01*
X163402628Y-63742548D01*
X163406439Y-63732423D01*
X163415083Y-63712170D01*
X163423975Y-63693721D01*
X163433468Y-63675909D01*
X163443571Y-63658727D01*
X163454289Y-63642168D01*
X163465630Y-63626225D01*
X163477599Y-63610892D01*
X163490204Y-63596161D01*
X163503452Y-63582026D01*
X163517349Y-63568479D01*
X163531902Y-63555514D01*
X163547118Y-63543125D01*
X163563003Y-63531303D01*
X163579565Y-63520042D01*
X163596810Y-63509336D01*
X163614745Y-63499177D01*
X163633376Y-63489558D01*
X163720915Y-63446436D01*
X164043817Y-63442077D01*
X164186328Y-63441258D01*
X164304858Y-63442868D01*
X164353900Y-63444552D01*
X164395470Y-63446803D01*
X164429076Y-63449609D01*
X164454225Y-63452957D01*
X164492969Y-63461061D01*
X164511614Y-63465996D01*
X164529765Y-63471509D01*
X164547415Y-63477594D01*
X164564558Y-63484243D01*
X164581187Y-63491450D01*
X164597295Y-63499206D01*
X164612875Y-63507505D01*
X164627921Y-63516340D01*
X164642426Y-63525703D01*
X164656384Y-63535587D01*
X164669786Y-63545986D01*
X164682628Y-63556891D01*
X164694901Y-63568296D01*
X164706599Y-63580194D01*
X164717716Y-63592577D01*
X164728245Y-63605438D01*
X164738178Y-63618770D01*
X164747510Y-63632566D01*
X164756233Y-63646819D01*
X164764341Y-63661521D01*
X164771827Y-63676665D01*
X164778684Y-63692245D01*
X164784906Y-63708252D01*
X164790485Y-63724680D01*
X164795416Y-63741522D01*
X164799690Y-63758770D01*
X164803302Y-63776417D01*
X164806245Y-63794456D01*
X164808511Y-63812880D01*
X164810095Y-63831682D01*
X164811310Y-63856631D01*
X164811583Y-63880347D01*
X164810873Y-63902936D01*
X164809142Y-63924507D01*
X164806349Y-63945165D01*
X164802454Y-63965019D01*
X164797417Y-63984176D01*
X164791198Y-64002743D01*
X164783757Y-64020827D01*
X164775055Y-64038535D01*
X164765051Y-64055975D01*
X164753706Y-64073254D01*
X164740979Y-64090479D01*
X164726830Y-64107757D01*
X164711220Y-64125195D01*
X164694109Y-64142901D01*
X164682871Y-64154005D01*
X164672298Y-64164148D01*
X164662273Y-64173403D01*
X164652682Y-64181842D01*
X164643410Y-64189535D01*
X164634340Y-64196556D01*
X164625359Y-64202976D01*
X164616350Y-64208866D01*
X164607199Y-64214299D01*
X164597790Y-64219346D01*
X164588008Y-64224080D01*
X164577737Y-64228572D01*
X164566864Y-64232894D01*
X164555271Y-64237118D01*
X164542845Y-64241315D01*
X164529469Y-64245559D01*
X164514305Y-64250105D01*
X164499618Y-64254128D01*
X164484814Y-64257658D01*
X164469297Y-64260729D01*
X164452473Y-64263371D01*
X164433746Y-64265617D01*
X164412521Y-64267498D01*
X164388203Y-64269046D01*
X164360197Y-64270293D01*
X164327908Y-64271271D01*
X164290741Y-64272011D01*
X164248100Y-64272545D01*
X164144019Y-64273122D01*
X164010903Y-64273259D01*
X163582022Y-64273259D01*
X163585656Y-64488233D01*
X163589292Y-64703207D01*
X163834031Y-64710397D01*
X163923525Y-64713512D01*
X163995559Y-64717506D01*
X164026074Y-64720061D01*
X164053477Y-64723109D01*
X164078188Y-64726741D01*
X164100623Y-64731049D01*
X164121201Y-64736123D01*
X164140339Y-64742056D01*
X164158456Y-64748937D01*
X164175969Y-64756859D01*
X164193297Y-64765912D01*
X164210857Y-64776187D01*
X164248345Y-64800770D01*
X164263960Y-64811921D01*
X164279188Y-64823618D01*
X164294020Y-64835849D01*
X164308446Y-64848605D01*
X164322458Y-64861874D01*
X164336048Y-64875646D01*
X164349206Y-64889910D01*
X164361923Y-64904657D01*
X164374191Y-64919875D01*
X164386001Y-64935553D01*
X164397344Y-64951682D01*
X164408212Y-64968250D01*
X164418594Y-64985247D01*
X164428484Y-65002662D01*
X164437871Y-65020486D01*
X164446747Y-65038707D01*
X164453284Y-65052870D01*
X164459115Y-65066008D01*
X164464285Y-65078373D01*
X164468844Y-65090214D01*
X164472840Y-65101783D01*
X164476319Y-65113331D01*
X164479330Y-65125109D01*
X164481920Y-65137368D01*
X164484138Y-65150359D01*
X164486031Y-65164332D01*
X164487646Y-65179538D01*
X164489032Y-65196229D01*
X164490237Y-65214656D01*
X164491308Y-65235069D01*
X164493240Y-65282857D01*
X164494155Y-65317212D01*
X164494356Y-65349641D01*
X164493808Y-65380298D01*
X164492478Y-65409334D01*
X164490332Y-65436902D01*
X164487336Y-65463154D01*
X164483456Y-65488241D01*
X164478658Y-65512318D01*
X164472907Y-65535534D01*
X164466171Y-65558044D01*
X164458414Y-65579999D01*
X164449604Y-65601551D01*
X164439705Y-65622852D01*
X164428685Y-65644055D01*
X164416509Y-65665312D01*
X164403143Y-65686776D01*
X164392390Y-65702836D01*
X164381211Y-65718412D01*
X164369614Y-65733497D01*
X164357609Y-65748087D01*
X164345206Y-65762177D01*
X164332416Y-65775762D01*
X164319246Y-65788839D01*
X164305707Y-65801401D01*
X164291809Y-65813445D01*
X164277561Y-65824965D01*
X164262972Y-65835958D01*
X164248053Y-65846417D01*
X164232812Y-65856339D01*
X164217260Y-65865719D01*
X164201407Y-65874552D01*
X164185260Y-65882833D01*
X164168831Y-65890558D01*
X164152129Y-65897722D01*
X164135164Y-65904320D01*
X164117944Y-65910347D01*
X164100480Y-65915799D01*
X164082782Y-65920671D01*
X164064858Y-65924959D01*
X164046719Y-65928657D01*
X164028374Y-65931761D01*
X164009833Y-65934265D01*
X163991105Y-65936167D01*
X163972200Y-65937460D01*
X163953127Y-65938140D01*
X163933897Y-65938202D01*
X163914518Y-65937642D01*
X163895001Y-65936455D01*
X163852584Y-65931789D01*
X163811369Y-65924430D01*
X163771440Y-65914439D01*
X163732880Y-65901880D01*
X163695775Y-65886816D01*
X163660209Y-65869309D01*
X163626265Y-65849422D01*
X163594028Y-65827217D01*
X163563582Y-65802757D01*
X163535012Y-65776105D01*
X163508401Y-65747324D01*
X163483833Y-65716476D01*
X163461394Y-65683624D01*
X163441167Y-65648831D01*
X163423236Y-65612159D01*
X163407685Y-65573671D01*
X163403395Y-65561405D01*
X163399521Y-65549179D01*
X163396035Y-65536677D01*
X163392906Y-65523585D01*
X163390102Y-65509588D01*
X163387595Y-65494372D01*
X163385352Y-65477622D01*
X163383345Y-65459022D01*
X163381541Y-65438260D01*
X163379912Y-65415019D01*
X163378426Y-65388985D01*
X163377053Y-65359844D01*
X163374523Y-65290982D01*
X163372531Y-65221626D01*
X163584909Y-65221626D01*
X163584940Y-65273692D01*
X163585538Y-65321730D01*
X163586679Y-65365042D01*
X163588339Y-65402933D01*
X163590494Y-65434706D01*
X163593121Y-65459665D01*
X163596194Y-65477113D01*
X163600002Y-65491430D01*
X163604339Y-65505384D01*
X163609197Y-65518970D01*
X163614567Y-65532182D01*
X163620442Y-65545014D01*
X163626815Y-65557461D01*
X163633677Y-65569517D01*
X163641020Y-65581177D01*
X163648838Y-65592434D01*
X163657122Y-65603284D01*
X163665865Y-65613720D01*
X163675058Y-65623738D01*
X163684695Y-65633331D01*
X163694767Y-65642493D01*
X163705266Y-65651220D01*
X163716185Y-65659506D01*
X163727516Y-65667344D01*
X163739252Y-65674730D01*
X163751384Y-65681658D01*
X163763905Y-65688122D01*
X163776807Y-65694116D01*
X163790082Y-65699635D01*
X163803723Y-65704674D01*
X163817721Y-65709226D01*
X163832070Y-65713286D01*
X163846761Y-65716848D01*
X163861786Y-65719908D01*
X163877139Y-65722459D01*
X163892810Y-65724495D01*
X163908793Y-65726011D01*
X163925079Y-65727002D01*
X163941661Y-65727461D01*
X163966670Y-65727389D01*
X163977942Y-65727032D01*
X163988531Y-65726431D01*
X163998541Y-65725561D01*
X164008076Y-65724399D01*
X164017240Y-65722921D01*
X164026136Y-65721104D01*
X164034870Y-65718924D01*
X164043544Y-65716357D01*
X164052263Y-65713380D01*
X164061131Y-65709970D01*
X164070252Y-65706103D01*
X164079729Y-65701755D01*
X164089667Y-65696902D01*
X164100170Y-65691522D01*
X164100169Y-65691522D01*
X164112861Y-65684581D01*
X164125147Y-65677232D01*
X164137024Y-65669482D01*
X164148490Y-65661334D01*
X164159544Y-65652793D01*
X164170182Y-65643864D01*
X164180402Y-65634552D01*
X164190202Y-65624861D01*
X164199580Y-65614796D01*
X164208534Y-65604362D01*
X164217061Y-65593563D01*
X164225159Y-65582405D01*
X164232826Y-65570891D01*
X164240059Y-65559028D01*
X164246856Y-65546818D01*
X164253215Y-65534268D01*
X164259133Y-65521381D01*
X164264609Y-65508163D01*
X164269640Y-65494618D01*
X164274224Y-65480751D01*
X164278358Y-65466567D01*
X164282040Y-65452070D01*
X164285268Y-65437265D01*
X164288040Y-65422157D01*
X164290353Y-65406751D01*
X164292205Y-65391051D01*
X164293594Y-65375062D01*
X164294518Y-65358788D01*
X164294974Y-65342235D01*
X164294960Y-65325407D01*
X164294473Y-65308309D01*
X164293512Y-65290946D01*
X164290712Y-65259728D01*
X164286681Y-65230026D01*
X164281397Y-65201801D01*
X164274835Y-65175015D01*
X164266974Y-65149630D01*
X164257789Y-65125608D01*
X164247259Y-65102909D01*
X164235359Y-65081498D01*
X164222066Y-65061334D01*
X164207358Y-65042380D01*
X164191211Y-65024598D01*
X164173602Y-65007950D01*
X164154508Y-64992397D01*
X164133906Y-64977901D01*
X164111772Y-64964425D01*
X164088085Y-64951929D01*
X164075065Y-64945597D01*
X164063168Y-64940030D01*
X164052012Y-64935178D01*
X164041216Y-64930994D01*
X164030399Y-64927427D01*
X164024863Y-64925859D01*
X164019179Y-64924428D01*
X164013299Y-64923126D01*
X164007175Y-64921948D01*
X163994006Y-64919939D01*
X163979291Y-64918350D01*
X163962648Y-64917132D01*
X163943696Y-64916237D01*
X163922053Y-64915615D01*
X163897340Y-64915216D01*
X163869174Y-64914993D01*
X163800958Y-64914873D01*
X163589292Y-64914873D01*
X163585470Y-65166227D01*
X163584909Y-65221626D01*
X163372531Y-65221626D01*
X163372080Y-65205915D01*
X163364396Y-64914873D01*
X163113042Y-64914873D01*
X162861688Y-64914873D01*
X162861688Y-65530030D01*
X162861688Y-66145185D01*
X163046896Y-66152661D01*
X163115873Y-66156124D01*
X163145960Y-66158284D01*
X163173491Y-66160831D01*
X163198750Y-66163840D01*
X163222020Y-66167389D01*
X163243587Y-66171551D01*
X163263733Y-66176405D01*
X163282743Y-66182025D01*
X163300900Y-66188488D01*
X163318489Y-66195869D01*
X163335794Y-66204245D01*
X163353098Y-66213691D01*
X163370685Y-66224283D01*
X163388840Y-66236098D01*
X163407846Y-66249211D01*
X163427603Y-66264175D01*
X163446167Y-66280280D01*
X163463534Y-66297457D01*
X163479703Y-66315638D01*
X163494671Y-66334753D01*
X163508435Y-66354734D01*
X163520992Y-66375512D01*
X163532340Y-66397018D01*
X163542477Y-66419184D01*
X163551398Y-66441941D01*
X163559103Y-66465220D01*
X163565587Y-66488952D01*
X163570849Y-66513069D01*
X163574886Y-66537501D01*
X163577695Y-66562181D01*
X163579274Y-66587038D01*
X163579619Y-66612005D01*
X163578729Y-66637013D01*
X163576600Y-66661992D01*
X163573230Y-66686875D01*
X163568617Y-66711592D01*
X163562757Y-66736075D01*
X163555648Y-66760254D01*
X163547287Y-66784062D01*
X163537672Y-66807429D01*
X163526800Y-66830287D01*
X163514668Y-66852566D01*
X163501274Y-66874198D01*
X163486615Y-66895115D01*
X163470688Y-66915247D01*
X163453491Y-66934525D01*
X163435021Y-66952882D01*
X163416387Y-66969724D01*
X163397854Y-66985269D01*
X163379345Y-66999548D01*
X163360783Y-67012590D01*
X163342092Y-67024428D01*
X163323197Y-67035090D01*
X163304020Y-67044607D01*
X163284485Y-67053010D01*
X163264516Y-67060329D01*
X163244036Y-67066595D01*
X163222970Y-67071837D01*
X163201240Y-67076087D01*
X163178770Y-67079374D01*
X163155484Y-67081729D01*
X163131306Y-67083183D01*
X163106159Y-67083765D01*
X163071657Y-67083709D01*
X163056750Y-67083400D01*
X163043130Y-67082843D01*
X163030592Y-67081997D01*
X163018929Y-67080816D01*
X163007936Y-67079257D01*
X162997406Y-67077276D01*
X162987133Y-67074829D01*
X162976911Y-67071873D01*
X162966534Y-67068363D01*
X162955796Y-67064256D01*
X162944490Y-67059507D01*
X162932412Y-67054073D01*
X162905110Y-67040974D01*
X162885504Y-67030805D01*
X162866604Y-67019949D01*
X162848418Y-67008419D01*
X162830958Y-66996224D01*
X162814232Y-66983376D01*
X162798253Y-66969885D01*
X162783028Y-66955761D01*
X162768569Y-66941017D01*
X162754885Y-66925661D01*
X162741987Y-66909706D01*
X162729884Y-66893161D01*
X162718587Y-66876038D01*
X162708105Y-66858346D01*
X162698449Y-66840098D01*
X162689628Y-66821304D01*
X162681653Y-66801974D01*
X162677523Y-66790836D01*
X162673746Y-66779717D01*
X162670302Y-66768465D01*
X162667172Y-66756927D01*
X162664333Y-66744950D01*
X162661766Y-66732382D01*
X162659450Y-66719071D01*
X162657365Y-66704864D01*
X162655490Y-66689609D01*
X162653805Y-66673153D01*
X162652289Y-66655343D01*
X162650922Y-66636028D01*
X162648552Y-66592271D01*
X162646530Y-66540660D01*
X162640508Y-66363467D01*
X162855073Y-66363467D01*
X162855364Y-66525525D01*
X162855829Y-66565175D01*
X162857133Y-66601491D01*
X162859357Y-66634653D01*
X162862585Y-66664840D01*
X162866899Y-66692230D01*
X162872381Y-66717004D01*
X162879114Y-66739340D01*
X162887181Y-66759418D01*
X162896665Y-66777417D01*
X162907647Y-66793515D01*
X162920210Y-66807893D01*
X162934438Y-66820728D01*
X162950412Y-66832202D01*
X162968216Y-66842492D01*
X162987931Y-66851777D01*
X163009641Y-66860238D01*
X163021322Y-66864183D01*
X163032868Y-66867635D01*
X163044292Y-66870594D01*
X163055606Y-66873061D01*
X163066821Y-66875035D01*
X163077950Y-66876518D01*
X163089004Y-66877509D01*
X163099996Y-66878008D01*
X163110938Y-66878017D01*
X163121841Y-66877534D01*
X163132719Y-66876561D01*
X163143582Y-66875098D01*
X163154443Y-66873145D01*
X163165315Y-66870702D01*
X163176209Y-66867770D01*
X163187136Y-66864349D01*
X163198473Y-66860317D01*
X163209487Y-66855926D01*
X163220174Y-66851182D01*
X163230528Y-66846091D01*
X163240547Y-66840659D01*
X163250225Y-66834894D01*
X163259558Y-66828801D01*
X163268543Y-66822387D01*
X163277174Y-66815659D01*
X163285449Y-66808623D01*
X163293361Y-66801285D01*
X163300908Y-66793652D01*
X163308085Y-66785730D01*
X163314887Y-66777526D01*
X163321311Y-66769046D01*
X163327352Y-66760296D01*
X163333006Y-66751284D01*
X163338269Y-66742015D01*
X163343136Y-66732496D01*
X163347604Y-66722733D01*
X163351667Y-66712733D01*
X163355322Y-66702502D01*
X163358565Y-66692047D01*
X163361391Y-66681374D01*
X163363796Y-66670490D01*
X163365776Y-66659400D01*
X163367327Y-66648112D01*
X163368443Y-66636632D01*
X163369122Y-66624966D01*
X163369359Y-66613121D01*
X163369149Y-66601104D01*
X163368489Y-66588919D01*
X163366802Y-66571320D01*
X163364339Y-66554630D01*
X163361072Y-66538812D01*
X163356976Y-66523826D01*
X163352022Y-66509636D01*
X163346186Y-66496203D01*
X163339440Y-66483489D01*
X163331759Y-66471456D01*
X163323114Y-66460066D01*
X163313480Y-66449281D01*
X163302831Y-66439062D01*
X163291140Y-66429373D01*
X163278379Y-66420174D01*
X163264523Y-66411427D01*
X163249546Y-66403095D01*
X163233420Y-66395139D01*
X163222703Y-66390267D01*
X163212500Y-66385916D01*
X163202609Y-66382055D01*
X163192829Y-66378658D01*
X163182957Y-66375696D01*
X163172790Y-66373139D01*
X163162128Y-66370959D01*
X163150768Y-66369128D01*
X163138508Y-66367617D01*
X163125146Y-66366397D01*
X163110480Y-66365440D01*
X163094308Y-66364717D01*
X163076427Y-66364200D01*
X163056636Y-66363860D01*
X163010516Y-66363597D01*
X162855073Y-66363467D01*
X162640508Y-66363467D01*
X162640188Y-66354054D01*
X162570998Y-66332244D01*
X162552089Y-66325763D01*
X162532783Y-66318146D01*
X162513196Y-66309472D01*
X162493445Y-66299821D01*
X162473648Y-66289274D01*
X162453921Y-66277911D01*
X162434381Y-66265812D01*
X162415146Y-66253057D01*
X162396332Y-66239727D01*
X162378056Y-66225902D01*
X162360436Y-66211662D01*
X162343587Y-66197087D01*
X162327628Y-66182257D01*
X162312675Y-66167253D01*
X162298846Y-66152154D01*
X162286257Y-66137042D01*
X162267781Y-66112906D01*
X162250527Y-66088756D01*
X162234454Y-66064484D01*
X162219522Y-66039984D01*
X162205688Y-66015149D01*
X162192912Y-65989871D01*
X162181153Y-65964043D01*
X162170369Y-65937558D01*
X162160520Y-65910310D01*
X162151564Y-65882191D01*
X162143460Y-65853094D01*
X162136168Y-65822911D01*
X162129645Y-65791537D01*
X162123851Y-65758863D01*
X162118745Y-65724782D01*
X162114285Y-65689189D01*
X162111025Y-65663437D01*
X162107278Y-65639205D01*
X162103022Y-65616442D01*
X162098233Y-65595099D01*
X162092888Y-65575128D01*
X162086962Y-65556480D01*
X162080432Y-65539105D01*
X162073274Y-65522954D01*
X162065466Y-65507978D01*
X162056983Y-65494129D01*
X162047802Y-65481356D01*
X162037899Y-65469612D01*
X162027251Y-65458847D01*
X162015834Y-65449012D01*
X162003624Y-65440058D01*
X161990598Y-65431936D01*
X161981128Y-65426871D01*
X161970217Y-65421693D01*
X161958075Y-65416461D01*
X161944908Y-65411237D01*
X161916336Y-65401056D01*
X161886168Y-65391634D01*
X161856070Y-65383459D01*
X161841568Y-65379991D01*
X161827708Y-65377017D01*
X161814700Y-65374598D01*
X161802750Y-65372795D01*
X161792067Y-65371669D01*
X161782860Y-65371280D01*
X161782144Y-65371830D01*
X161781446Y-65373473D01*
X161780101Y-65379978D01*
X161778830Y-65390682D01*
X161777635Y-65405471D01*
X161775485Y-65446854D01*
X161773674Y-65503225D01*
X161772224Y-65573680D01*
X161771160Y-65657314D01*
X161770505Y-65753224D01*
X161770281Y-65860507D01*
X161770281Y-66349734D01*
X161806661Y-66357608D01*
X161843627Y-66366115D01*
X161879169Y-66375343D01*
X161913380Y-66385343D01*
X161946354Y-66396165D01*
X161978185Y-66407859D01*
X162008966Y-66420473D01*
X162038793Y-66434058D01*
X162067758Y-66448663D01*
X162095955Y-66464339D01*
X162123478Y-66481134D01*
X162150421Y-66499099D01*
X162176878Y-66518283D01*
X162202942Y-66538737D01*
X162228708Y-66560508D01*
X162254269Y-66583648D01*
X162279719Y-66608207D01*
X162322344Y-66653828D01*
X162361166Y-66702013D01*
X162396133Y-66752525D01*
X162427193Y-66805126D01*
X162454295Y-66859581D01*
X162477388Y-66915652D01*
X162496420Y-66973104D01*
X162511340Y-67031700D01*
X162522096Y-67091203D01*
X162528637Y-67151376D01*
X162530911Y-67211984D01*
X162528868Y-67272790D01*
X162522455Y-67333556D01*
X162511622Y-67394047D01*
X162496316Y-67454026D01*
X162476486Y-67513256D01*
X162456242Y-67562112D01*
X162432834Y-67609640D01*
X162406430Y-67655693D01*
X162377195Y-67700124D01*
X162345296Y-67742785D01*
X162310898Y-67783531D01*
X162274167Y-67822214D01*
X162235271Y-67858688D01*
X162194374Y-67892804D01*
X162151643Y-67924417D01*
X162107245Y-67953379D01*
X162061344Y-67979544D01*
X162014107Y-68002765D01*
X161965701Y-68022894D01*
X161916291Y-68039785D01*
X161866044Y-68053290D01*
X161769983Y-68075618D01*
X161773440Y-68598684D01*
X161776896Y-69121748D01*
X161909188Y-69117379D01*
X161955238Y-69116425D01*
X161998731Y-69116719D01*
X162039792Y-69118300D01*
X162078547Y-69121207D01*
X162115121Y-69125479D01*
X162149639Y-69131156D01*
X162182226Y-69138276D01*
X162213008Y-69146880D01*
X162242110Y-69157005D01*
X162269657Y-69168692D01*
X162295774Y-69181979D01*
X162320587Y-69196905D01*
X162344221Y-69213511D01*
X162366801Y-69231834D01*
X162388452Y-69251914D01*
X162409300Y-69273791D01*
X162427252Y-69294943D01*
X162443666Y-69316706D01*
X162458553Y-69339022D01*
X162471925Y-69361833D01*
X162483793Y-69385081D01*
X162494167Y-69408706D01*
X162503060Y-69432651D01*
X162510483Y-69456857D01*
X162516446Y-69481266D01*
X162520961Y-69505819D01*
X162524039Y-69530458D01*
X162525691Y-69555124D01*
X162525929Y-69579760D01*
X162524764Y-69604306D01*
X162522207Y-69628704D01*
X162518269Y-69652896D01*
X162512962Y-69676823D01*
X162506296Y-69700427D01*
X162498284Y-69723650D01*
X162488935Y-69746433D01*
X162478262Y-69768717D01*
X162466275Y-69790445D01*
X162452987Y-69811557D01*
X162438407Y-69831996D01*
X162422548Y-69851703D01*
X162405420Y-69870619D01*
X162387035Y-69888686D01*
X162367404Y-69905846D01*
X162346538Y-69922040D01*
X162324448Y-69937210D01*
X162301147Y-69951298D01*
X162276644Y-69964244D01*
X162262694Y-69971024D01*
X162249780Y-69977079D01*
X162237695Y-69982455D01*
X162226235Y-69987197D01*
X162215192Y-69991351D01*
X162204360Y-69994960D01*
X162193534Y-69998070D01*
X162182508Y-70000726D01*
X162171076Y-70002973D01*
X162159031Y-70004855D01*
X162146168Y-70006419D01*
X162132280Y-70007708D01*
X162117162Y-70008768D01*
X162100607Y-70009644D01*
X162062365Y-70011023D01*
X162027342Y-70011718D01*
X161996575Y-70011565D01*
X161969160Y-70010460D01*
X161956428Y-70009519D01*
X161944195Y-70008302D01*
X161932348Y-70006795D01*
X161920774Y-70004987D01*
X161909361Y-70002865D01*
X161897994Y-70000415D01*
X161886563Y-69997625D01*
X161874952Y-69994482D01*
X161850743Y-69987087D01*
X161850744Y-69987088D01*
X161838485Y-69982975D01*
X161826949Y-69978825D01*
X161816045Y-69974580D01*
X161805685Y-69970184D01*
X161795778Y-69965578D01*
X161786234Y-69960704D01*
X161776964Y-69955505D01*
X161767877Y-69949924D01*
X161758884Y-69943902D01*
X161749895Y-69937382D01*
X161740820Y-69930306D01*
X161731570Y-69922616D01*
X161722054Y-69914256D01*
X161712182Y-69905167D01*
X161701865Y-69895291D01*
X161691014Y-69884571D01*
X161673130Y-69866183D01*
X161657033Y-69848477D01*
X161642620Y-69831152D01*
X161629789Y-69813907D01*
X161623935Y-69805220D01*
X161618439Y-69796439D01*
X161613287Y-69787528D01*
X161608466Y-69778449D01*
X161603965Y-69769163D01*
X161599771Y-69759634D01*
X161595869Y-69749823D01*
X161592249Y-69739693D01*
X161588897Y-69729206D01*
X161585801Y-69718325D01*
X161582947Y-69707012D01*
X161580323Y-69695229D01*
X161575714Y-69670102D01*
X161571872Y-69642645D01*
X161568695Y-69612555D01*
X161566081Y-69579532D01*
X161563928Y-69543273D01*
X161562801Y-69518259D01*
X161772411Y-69518259D01*
X161772903Y-69543198D01*
X161773993Y-69566333D01*
X161775713Y-69587782D01*
X161778089Y-69607661D01*
X161781154Y-69626087D01*
X161784934Y-69643176D01*
X161789461Y-69659045D01*
X161794763Y-69673810D01*
X161800870Y-69687589D01*
X161807811Y-69700496D01*
X161815615Y-69712650D01*
X161824312Y-69724166D01*
X161833931Y-69735161D01*
X161844502Y-69745752D01*
X161852036Y-69752487D01*
X161859964Y-69758865D01*
X161868269Y-69764884D01*
X161876930Y-69770542D01*
X161885931Y-69775838D01*
X161895251Y-69780770D01*
X161914775Y-69789536D01*
X161935353Y-69796826D01*
X161956836Y-69802629D01*
X161979074Y-69806929D01*
X162001916Y-69809715D01*
X162025213Y-69810973D01*
X162048814Y-69810690D01*
X162072571Y-69808854D01*
X162096332Y-69805450D01*
X162119949Y-69800465D01*
X162143271Y-69793887D01*
X162166148Y-69785703D01*
X162188430Y-69775898D01*
X162188430Y-69775899D01*
X162203209Y-69768309D01*
X162216895Y-69760355D01*
X162223336Y-69756227D01*
X162229515Y-69751992D01*
X162235435Y-69747642D01*
X162241100Y-69743174D01*
X162246513Y-69738581D01*
X162251677Y-69733856D01*
X162256598Y-69728996D01*
X162261277Y-69723993D01*
X162265720Y-69718842D01*
X162269928Y-69713538D01*
X162273907Y-69708075D01*
X162277660Y-69702447D01*
X162281190Y-69696649D01*
X162284501Y-69690674D01*
X162287596Y-69684517D01*
X162290480Y-69678172D01*
X162293155Y-69671635D01*
X162295626Y-69664898D01*
X162297896Y-69657956D01*
X162299968Y-69650804D01*
X162301847Y-69643436D01*
X162303536Y-69635847D01*
X162306359Y-69619979D01*
X162308464Y-69603156D01*
X162309883Y-69585331D01*
X162311011Y-69561293D01*
X162311204Y-69550823D01*
X162311108Y-69541210D01*
X162310690Y-69532323D01*
X162309919Y-69524031D01*
X162308762Y-69516201D01*
X162307188Y-69508704D01*
X162305164Y-69501407D01*
X162302660Y-69494180D01*
X162299642Y-69486890D01*
X162296079Y-69479407D01*
X162291939Y-69471598D01*
X162287191Y-69463333D01*
X162281801Y-69454481D01*
X162275739Y-69444909D01*
X162264386Y-69427946D01*
X162258760Y-69420133D01*
X162253125Y-69412750D01*
X162247446Y-69405785D01*
X162241689Y-69399228D01*
X162235822Y-69393066D01*
X162229812Y-69387288D01*
X162223624Y-69381881D01*
X162217225Y-69376836D01*
X162210582Y-69372138D01*
X162203661Y-69367779D01*
X162196429Y-69363745D01*
X162188853Y-69360024D01*
X162180899Y-69356606D01*
X162172534Y-69353479D01*
X162163724Y-69350631D01*
X162154436Y-69348050D01*
X162144636Y-69345725D01*
X162134291Y-69343645D01*
X162123369Y-69341797D01*
X162111834Y-69340170D01*
X162099654Y-69338752D01*
X162086796Y-69337532D01*
X162073225Y-69336498D01*
X162058910Y-69335638D01*
X162027908Y-69334396D01*
X161993524Y-69333711D01*
X161955490Y-69333493D01*
X161776896Y-69333413D01*
X161773108Y-69462507D01*
X161772490Y-69491401D01*
X161772411Y-69518259D01*
X161562801Y-69518259D01*
X161562135Y-69503478D01*
X161555258Y-69329583D01*
X161478298Y-69314441D01*
X161457924Y-69309892D01*
X161436831Y-69304160D01*
X161415203Y-69297341D01*
X161393221Y-69289527D01*
X161371068Y-69280816D01*
X161348925Y-69271301D01*
X161326974Y-69261078D01*
X161305399Y-69250241D01*
X161284380Y-69238885D01*
X161264101Y-69227105D01*
X161244742Y-69214996D01*
X161226486Y-69202653D01*
X161209516Y-69190171D01*
X161194012Y-69177644D01*
X161180159Y-69165168D01*
X161168136Y-69152837D01*
X161162951Y-69146913D01*
X161157557Y-69140398D01*
X161151997Y-69133358D01*
X161146313Y-69125859D01*
X161134747Y-69109750D01*
X161123204Y-69092598D01*
X161112029Y-69074930D01*
X161101565Y-69057276D01*
X161092159Y-69040162D01*
X161087959Y-69031973D01*
X161084153Y-69024118D01*
X161049291Y-68949769D01*
X161049291Y-68587980D01*
X161254344Y-68587980D01*
X161255064Y-68757398D01*
X161256340Y-68814222D01*
X161258562Y-68856876D01*
X161261982Y-68888676D01*
X161264219Y-68901543D01*
X161266850Y-68912939D01*
X161269906Y-68923280D01*
X161273419Y-68932980D01*
X161281938Y-68952115D01*
X161287932Y-68963801D01*
X161294337Y-68974918D01*
X161301198Y-68985500D01*
X161308554Y-68995581D01*
X161316447Y-69005194D01*
X161324919Y-69014373D01*
X161334012Y-69023153D01*
X161343767Y-69031566D01*
X161354224Y-69039648D01*
X161365427Y-69047431D01*
X161377416Y-69054950D01*
X161390233Y-69062239D01*
X161403920Y-69069331D01*
X161418517Y-69076260D01*
X161434067Y-69083061D01*
X161450611Y-69089766D01*
X161489162Y-69105847D01*
X161497111Y-69109000D01*
X161504436Y-69111576D01*
X161511162Y-69113460D01*
X161517314Y-69114537D01*
X161520182Y-69114738D01*
X161522917Y-69114693D01*
X161525521Y-69114389D01*
X161527997Y-69113811D01*
X161530348Y-69112945D01*
X161532578Y-69111777D01*
X161534690Y-69110292D01*
X161536687Y-69108476D01*
X161538573Y-69106314D01*
X161540349Y-69103793D01*
X161542020Y-69100897D01*
X161543589Y-69097613D01*
X161546432Y-69089820D01*
X161548904Y-69080300D01*
X161551029Y-69068938D01*
X161552834Y-69055618D01*
X161554344Y-69040226D01*
X161555584Y-69022647D01*
X161556579Y-69002765D01*
X161557354Y-68980465D01*
X161558348Y-68928153D01*
X161558769Y-68864791D01*
X161558818Y-68789457D01*
X161558615Y-68599196D01*
X161557877Y-68342142D01*
X161555195Y-68184392D01*
X161552904Y-68136230D01*
X161549862Y-68105061D01*
X161545981Y-68088274D01*
X161543698Y-68084458D01*
X161541172Y-68083258D01*
X161532306Y-68083773D01*
X161521801Y-68085260D01*
X161509894Y-68087630D01*
X161496823Y-68090796D01*
X161482825Y-68094672D01*
X161468139Y-68099168D01*
X161453001Y-68104198D01*
X161437648Y-68109674D01*
X161422320Y-68115509D01*
X161407252Y-68121615D01*
X161392682Y-68127904D01*
X161378848Y-68134289D01*
X161365988Y-68140682D01*
X161354339Y-68146996D01*
X161344138Y-68153144D01*
X161335623Y-68159037D01*
X161322260Y-68169507D01*
X161316163Y-68174661D01*
X161310439Y-68179843D01*
X161305078Y-68185116D01*
X161300068Y-68190541D01*
X161295396Y-68196181D01*
X161291051Y-68202097D01*
X161287021Y-68208351D01*
X161283294Y-68215005D01*
X161279860Y-68222121D01*
X161276705Y-68229761D01*
X161273819Y-68237987D01*
X161271189Y-68246861D01*
X161268804Y-68256445D01*
X161266652Y-68266800D01*
X161264722Y-68277989D01*
X161263001Y-68290074D01*
X161261478Y-68303116D01*
X161260141Y-68317178D01*
X161258979Y-68332321D01*
X161257979Y-68348607D01*
X161257130Y-68366099D01*
X161256420Y-68384858D01*
X161255371Y-68426425D01*
X161254738Y-68473804D01*
X161254427Y-68527490D01*
X161254344Y-68587980D01*
X161049291Y-68587980D01*
X161049291Y-68579352D01*
X161049291Y-68208936D01*
X161084529Y-68142790D01*
X161093185Y-68127318D01*
X161102492Y-68112165D01*
X161112427Y-68097352D01*
X161122968Y-68082901D01*
X161134093Y-68068835D01*
X161145778Y-68055174D01*
X161158002Y-68041940D01*
X161170741Y-68029155D01*
X161183974Y-68016841D01*
X161197679Y-68005020D01*
X161211832Y-67993712D01*
X161226411Y-67982940D01*
X161241394Y-67972726D01*
X161256758Y-67963091D01*
X161272481Y-67954057D01*
X161288540Y-67945645D01*
X161301921Y-67939274D01*
X161316646Y-67932812D01*
X161349207Y-67919893D01*
X161384380Y-67907442D01*
X161420323Y-67896013D01*
X161455193Y-67886159D01*
X161487147Y-67878435D01*
X161501454Y-67875545D01*
X161514342Y-67873395D01*
X161525579Y-67872054D01*
X161534935Y-67871592D01*
X161536977Y-67871473D01*
X161537953Y-67871306D01*
X161538898Y-67871051D01*
X161539815Y-67870693D01*
X161540703Y-67870222D01*
X161541562Y-67869624D01*
X161542394Y-67868886D01*
X161543199Y-67867996D01*
X161543976Y-67866941D01*
X161544727Y-67865708D01*
X161545452Y-67864285D01*
X161546151Y-67862658D01*
X161546825Y-67860816D01*
X161546935Y-67860465D01*
X161770281Y-67860465D01*
X161813276Y-67851793D01*
X161818157Y-67850677D01*
X161823886Y-67849133D01*
X161837599Y-67844875D01*
X161853842Y-67839240D01*
X161872042Y-67832448D01*
X161891626Y-67824718D01*
X161912022Y-67816272D01*
X161932656Y-67807330D01*
X161952956Y-67798111D01*
X161985746Y-67781549D01*
X162017459Y-67762935D01*
X162048022Y-67742362D01*
X162077363Y-67719924D01*
X162105409Y-67695716D01*
X162132089Y-67669829D01*
X162157329Y-67642360D01*
X162181057Y-67613400D01*
X162203200Y-67583043D01*
X162223687Y-67551384D01*
X162242445Y-67518516D01*
X162259402Y-67484532D01*
X162274484Y-67449527D01*
X162287620Y-67413593D01*
X162298737Y-67376825D01*
X162307762Y-67339316D01*
X162313363Y-67308889D01*
X162317406Y-67278431D01*
X162319918Y-67247991D01*
X162320929Y-67217615D01*
X162320466Y-67187350D01*
X162318557Y-67157244D01*
X162315231Y-67127343D01*
X162310517Y-67097694D01*
X162304441Y-67068344D01*
X162297033Y-67039341D01*
X162288321Y-67010731D01*
X162278333Y-66982562D01*
X162267098Y-66954880D01*
X162254642Y-66927732D01*
X162226187Y-66875228D01*
X162193192Y-66825426D01*
X162175063Y-66801656D01*
X162155884Y-66778702D01*
X162135683Y-66756612D01*
X162114489Y-66735432D01*
X162092329Y-66715210D01*
X162069232Y-66695993D01*
X162045227Y-66677827D01*
X162020341Y-66660760D01*
X161994602Y-66644838D01*
X161968040Y-66630110D01*
X161940682Y-66616620D01*
X161912556Y-66604418D01*
X161883690Y-66593549D01*
X161854114Y-66584061D01*
X161840235Y-66580193D01*
X161826981Y-66576890D01*
X161814663Y-66574204D01*
X161803594Y-66572184D01*
X161794086Y-66570882D01*
X161790015Y-66570515D01*
X161786451Y-66570346D01*
X161783433Y-66570382D01*
X161781000Y-66570629D01*
X161779192Y-66571092D01*
X161778047Y-66571779D01*
X161777256Y-66575893D01*
X161776487Y-66586411D01*
X161775031Y-66625330D01*
X161772562Y-66765398D01*
X161770894Y-66970713D01*
X161770281Y-67220004D01*
X161770281Y-67860465D01*
X161546935Y-67860465D01*
X161547475Y-67858745D01*
X161548100Y-67856433D01*
X161548702Y-67853868D01*
X161549280Y-67851035D01*
X161549836Y-67847923D01*
X161550369Y-67844520D01*
X161551370Y-67836785D01*
X161552287Y-67827730D01*
X161553124Y-67817253D01*
X161553884Y-67805252D01*
X161554571Y-67791626D01*
X161555188Y-67776272D01*
X161555740Y-67759090D01*
X161556230Y-67739978D01*
X161556661Y-67718834D01*
X161557038Y-67695556D01*
X161557363Y-67670043D01*
X161557641Y-67642194D01*
X161558070Y-67579078D01*
X161558352Y-67505396D01*
X161558517Y-67420334D01*
X161558611Y-67220004D01*
X161558615Y-67212821D01*
X161558615Y-66554050D01*
X161473383Y-66539450D01*
X161429861Y-66530601D01*
X161388506Y-66519353D01*
X161349352Y-66505738D01*
X161312434Y-66489792D01*
X161294824Y-66480954D01*
X161277785Y-66471547D01*
X161261321Y-66461572D01*
X161245438Y-66451036D01*
X161230139Y-66439941D01*
X161215429Y-66428293D01*
X161201312Y-66416095D01*
X161187791Y-66403352D01*
X161174872Y-66390068D01*
X161162558Y-66376246D01*
X161150854Y-66361892D01*
X161139764Y-66347008D01*
X161129292Y-66331601D01*
X161119442Y-66315673D01*
X161110220Y-66299228D01*
X161101628Y-66282272D01*
X161093672Y-66264808D01*
X161086355Y-66246840D01*
X161079682Y-66228373D01*
X161073657Y-66209411D01*
X161063567Y-66170017D01*
X161056120Y-66128692D01*
X161053520Y-66103960D01*
X161051084Y-66067769D01*
X161048865Y-66021850D01*
X161046919Y-65967933D01*
X161045300Y-65907747D01*
X161044060Y-65843023D01*
X161043256Y-65775491D01*
X161042939Y-65706881D01*
X161042678Y-65374408D01*
X160949966Y-65371280D01*
X161254344Y-65371280D01*
X161254424Y-65731775D01*
X161255477Y-65881787D01*
X161258378Y-66006072D01*
X161260429Y-66055861D01*
X161262830Y-66095969D01*
X161265544Y-66125315D01*
X161268533Y-66142815D01*
X161271416Y-66152232D01*
X161274804Y-66161567D01*
X161278678Y-66170807D01*
X161283022Y-66179937D01*
X161287816Y-66188945D01*
X161293043Y-66197817D01*
X161298684Y-66206538D01*
X161304724Y-66215096D01*
X161311142Y-66223477D01*
X161317921Y-66231667D01*
X161325044Y-66239652D01*
X161332493Y-66247420D01*
X161348295Y-66262245D01*
X161365183Y-66276035D01*
X161383016Y-66288679D01*
X161401649Y-66300069D01*
X161411221Y-66305260D01*
X161420940Y-66310096D01*
X161430787Y-66314564D01*
X161440745Y-66318650D01*
X161450795Y-66322342D01*
X161460920Y-66325624D01*
X161471102Y-66328483D01*
X161481323Y-66330906D01*
X161491566Y-66332880D01*
X161501811Y-66334390D01*
X161512042Y-66335423D01*
X161522240Y-66335965D01*
X161558615Y-66337009D01*
X161558615Y-65854144D01*
X161558615Y-65371280D01*
X161406479Y-65371280D01*
X161254344Y-65371280D01*
X160949966Y-65371280D01*
X160874005Y-65368716D01*
X160822811Y-65366774D01*
X160781442Y-65364549D01*
X160747894Y-65361689D01*
X160733429Y-65359912D01*
X160720168Y-65357845D01*
X160707862Y-65355445D01*
X160696261Y-65352668D01*
X160685115Y-65349471D01*
X160674172Y-65345808D01*
X160663184Y-65341638D01*
X160651900Y-65336916D01*
X160627442Y-65325641D01*
X160609974Y-65316845D01*
X160593028Y-65307477D01*
X160576606Y-65297538D01*
X160560710Y-65287029D01*
X160545342Y-65275953D01*
X160530503Y-65264310D01*
X160516194Y-65252103D01*
X160502418Y-65239332D01*
X160489176Y-65225999D01*
X160476469Y-65212107D01*
X160464299Y-65197655D01*
X160452667Y-65182646D01*
X160441576Y-65167082D01*
X160431026Y-65150964D01*
X160421020Y-65134293D01*
X160411558Y-65117070D01*
X160405838Y-65105988D01*
X160400732Y-65095625D01*
X160396208Y-65085807D01*
X160392231Y-65076358D01*
X160388767Y-65067105D01*
X160385783Y-65057871D01*
X160383243Y-65048481D01*
X160381114Y-65038761D01*
X160379362Y-65028536D01*
X160377954Y-65017630D01*
X160376853Y-65005869D01*
X160376028Y-64993077D01*
X160375443Y-64979079D01*
X160375065Y-64963701D01*
X160374793Y-64928103D01*
X160374890Y-64919722D01*
X160576604Y-64919722D01*
X160576879Y-64932959D01*
X160577712Y-64945776D01*
X160579114Y-64958200D01*
X160581099Y-64970257D01*
X160583676Y-64981974D01*
X160586859Y-64993378D01*
X160590658Y-65004494D01*
X160595086Y-65015351D01*
X160600154Y-65025973D01*
X160605874Y-65036388D01*
X160612257Y-65046623D01*
X160619317Y-65056704D01*
X160627063Y-65066656D01*
X160635508Y-65076508D01*
X160644664Y-65086286D01*
X160654543Y-65096016D01*
X160664833Y-65105475D01*
X160674815Y-65113944D01*
X160679757Y-65117824D01*
X160684700Y-65121477D01*
X160689673Y-65124910D01*
X160694700Y-65128129D01*
X160699808Y-65131141D01*
X160705024Y-65133952D01*
X160710374Y-65136570D01*
X160715885Y-65139002D01*
X160721583Y-65141253D01*
X160727494Y-65143331D01*
X160733645Y-65145242D01*
X160740062Y-65146993D01*
X160746771Y-65148592D01*
X160753799Y-65150044D01*
X160761173Y-65151356D01*
X160768918Y-65152535D01*
X160785629Y-65154523D01*
X160804144Y-65156059D01*
X160824674Y-65157198D01*
X160847429Y-65157995D01*
X160872622Y-65158502D01*
X160900463Y-65158774D01*
X161042678Y-65159613D01*
X161042678Y-65003933D01*
X161042511Y-64955742D01*
X161041814Y-64917716D01*
X161041176Y-64901942D01*
X161040294Y-64888021D01*
X161039134Y-64875723D01*
X161037657Y-64864819D01*
X161035827Y-64855080D01*
X161033607Y-64846275D01*
X161030961Y-64838176D01*
X161027851Y-64830554D01*
X161024242Y-64823177D01*
X161020096Y-64815818D01*
X161010046Y-64800233D01*
X160997270Y-64782954D01*
X160983577Y-64767270D01*
X160969054Y-64753157D01*
X160953788Y-64740591D01*
X160937865Y-64729548D01*
X160921372Y-64720004D01*
X160904395Y-64711935D01*
X160887022Y-64705317D01*
X160869340Y-64700127D01*
X160851434Y-64696340D01*
X160833392Y-64693933D01*
X160815300Y-64692881D01*
X160797245Y-64693162D01*
X160779314Y-64694750D01*
X160761594Y-64697622D01*
X160744171Y-64701754D01*
X160727132Y-64707122D01*
X160710564Y-64713702D01*
X160694553Y-64721471D01*
X160679186Y-64730404D01*
X160664550Y-64740478D01*
X160650732Y-64751668D01*
X160637819Y-64763951D01*
X160625896Y-64777302D01*
X160615052Y-64791699D01*
X160605371Y-64807116D01*
X160596943Y-64823531D01*
X160589852Y-64840918D01*
X160584186Y-64859255D01*
X160580031Y-64878517D01*
X160577475Y-64898681D01*
X160576604Y-64919722D01*
X160374890Y-64919722D01*
X160375093Y-64902221D01*
X160376058Y-64877949D01*
X160377748Y-64855128D01*
X160380223Y-64833603D01*
X160383542Y-64813217D01*
X160387766Y-64793814D01*
X160392955Y-64775236D01*
X160399167Y-64757327D01*
X160406465Y-64739931D01*
X160414906Y-64722891D01*
X160424552Y-64706051D01*
X160435461Y-64689254D01*
X160447695Y-64672343D01*
X160461312Y-64655162D01*
X160476374Y-64637554D01*
X160492938Y-64619364D01*
X160509461Y-64602604D01*
X160526636Y-64586925D01*
X160544419Y-64572328D01*
X160562766Y-64558811D01*
X160581634Y-64546377D01*
X160600981Y-64535023D01*
X160620761Y-64524751D01*
X160640933Y-64515560D01*
X160661452Y-64507450D01*
X160682275Y-64500422D01*
X160703359Y-64494475D01*
X160724660Y-64489609D01*
X160746134Y-64485824D01*
X160767739Y-64483121D01*
X160789431Y-64481499D01*
X160811166Y-64480958D01*
X160832902Y-64481499D01*
X160854594Y-64483121D01*
X160876198Y-64485824D01*
X160897673Y-64489609D01*
X160918974Y-64494475D01*
X160940058Y-64500422D01*
X160960881Y-64507450D01*
X160981400Y-64515560D01*
X161001572Y-64524751D01*
X161021352Y-64535023D01*
X161040699Y-64546377D01*
X161059567Y-64558811D01*
X161077914Y-64572328D01*
X161095697Y-64586925D01*
X161112872Y-64602604D01*
X161129395Y-64619364D01*
X161146892Y-64638517D01*
X161162621Y-64656801D01*
X161176680Y-64674506D01*
X161189167Y-64691924D01*
X161194851Y-64700616D01*
X161200179Y-64709347D01*
X161205163Y-64718151D01*
X161209815Y-64727066D01*
X161214147Y-64736128D01*
X161218172Y-64745374D01*
X161221902Y-64754839D01*
X161225348Y-64764561D01*
X161228524Y-64774575D01*
X161231442Y-64784919D01*
X161236550Y-64806741D01*
X161240771Y-64830317D01*
X161244203Y-64855939D01*
X161246943Y-64883899D01*
X161249089Y-64914489D01*
X161250740Y-64948000D01*
X161251992Y-64984723D01*
X161256959Y-65160406D01*
X161415437Y-65156702D01*
X161573915Y-65152998D01*
X161575138Y-65149520D01*
X161799673Y-65149520D01*
X161799874Y-65151328D01*
X161800064Y-65152191D01*
X161800317Y-65153029D01*
X161800637Y-65153843D01*
X161801025Y-65154635D01*
X161801486Y-65155405D01*
X161802020Y-65156156D01*
X161802631Y-65156888D01*
X161803323Y-65157603D01*
X161804956Y-65158987D01*
X161806941Y-65160319D01*
X161809300Y-65161610D01*
X161812055Y-65162871D01*
X161815228Y-65164112D01*
X161818841Y-65165346D01*
X161822914Y-65166581D01*
X161827472Y-65167831D01*
X161832535Y-65169105D01*
X161838124Y-65170414D01*
X161844263Y-65171769D01*
X161858276Y-65174662D01*
X161874747Y-65177872D01*
X161915766Y-65185588D01*
X161958117Y-65194857D01*
X161998068Y-65206359D01*
X162017149Y-65212951D01*
X162035634Y-65220106D01*
X162053526Y-65227826D01*
X162070826Y-65236113D01*
X162087536Y-65244968D01*
X162103657Y-65254393D01*
X162119191Y-65264390D01*
X162134140Y-65274960D01*
X162148505Y-65286105D01*
X162162288Y-65297827D01*
X162175491Y-65310128D01*
X162188114Y-65323009D01*
X162200160Y-65336472D01*
X162211630Y-65350518D01*
X162222526Y-65365150D01*
X162232850Y-65380368D01*
X162242602Y-65396176D01*
X162251785Y-65412574D01*
X162260400Y-65429564D01*
X162268449Y-65447148D01*
X162275933Y-65465327D01*
X162282854Y-65484104D01*
X162295013Y-65523456D01*
X162304939Y-65565218D01*
X162312645Y-65609402D01*
X162325598Y-65692028D01*
X162332147Y-65728354D01*
X162338875Y-65761702D01*
X162345879Y-65792330D01*
X162353257Y-65820499D01*
X162361108Y-65846466D01*
X162369529Y-65870492D01*
X162378618Y-65892835D01*
X162388473Y-65913756D01*
X162399192Y-65933512D01*
X162410873Y-65952364D01*
X162423613Y-65970571D01*
X162437511Y-65988391D01*
X162452665Y-66006085D01*
X162469172Y-66023911D01*
X162478507Y-66033298D01*
X162488424Y-66042601D01*
X162498813Y-66051749D01*
X162509565Y-66060672D01*
X162520570Y-66069301D01*
X162531719Y-66077566D01*
X162542902Y-66085396D01*
X162554010Y-66092721D01*
X162564932Y-66099472D01*
X162575560Y-66105577D01*
X162585784Y-66110969D01*
X162595494Y-66115575D01*
X162604580Y-66119327D01*
X162612933Y-66122155D01*
X162620444Y-66123987D01*
X162627003Y-66124755D01*
X162628212Y-66124423D01*
X162629360Y-66123314D01*
X162630449Y-66121386D01*
X162631479Y-66118595D01*
X162632452Y-66114901D01*
X162633367Y-66110261D01*
X162635031Y-66097977D01*
X162636479Y-66081405D01*
X162637718Y-66060211D01*
X162638756Y-66034058D01*
X162639599Y-66002610D01*
X162640255Y-65965532D01*
X162640732Y-65922487D01*
X162641176Y-65817154D01*
X162640990Y-65683923D01*
X162640232Y-65520108D01*
X162636791Y-64914873D01*
X162358979Y-64914886D01*
X162257667Y-64915299D01*
X162177268Y-64916960D01*
X162143717Y-64918463D01*
X162113961Y-64920521D01*
X162087522Y-64923217D01*
X162063922Y-64926631D01*
X162042683Y-64930846D01*
X162023328Y-64935942D01*
X162005378Y-64942000D01*
X161988356Y-64949102D01*
X161971784Y-64957329D01*
X161955184Y-64966763D01*
X161919988Y-64989575D01*
X161909227Y-64997185D01*
X161898866Y-65005033D01*
X161888920Y-65013104D01*
X161879404Y-65021377D01*
X161870333Y-65029835D01*
X161861721Y-65038460D01*
X161853585Y-65047234D01*
X161845937Y-65056139D01*
X161838795Y-65065156D01*
X161832172Y-65074268D01*
X161826083Y-65083456D01*
X161820543Y-65092702D01*
X161815568Y-65101989D01*
X161811172Y-65111298D01*
X161807370Y-65120611D01*
X161804177Y-65129910D01*
X161802339Y-65135823D01*
X161800859Y-65141005D01*
X161800308Y-65143348D01*
X161799912Y-65145541D01*
X161799693Y-65147595D01*
X161799673Y-65149520D01*
X161575138Y-65149520D01*
X161598481Y-65083176D01*
X161609758Y-65054440D01*
X161623176Y-65026085D01*
X161638608Y-64998230D01*
X161655928Y-64970997D01*
X161675008Y-64944506D01*
X161695722Y-64918876D01*
X161717942Y-64894229D01*
X161741541Y-64870683D01*
X161766393Y-64848360D01*
X161792371Y-64827379D01*
X161819347Y-64807861D01*
X161847194Y-64789927D01*
X161875787Y-64773695D01*
X161904996Y-64759286D01*
X161934697Y-64746822D01*
X161964761Y-64736421D01*
X161978632Y-64732284D01*
X161992202Y-64728591D01*
X162005821Y-64725317D01*
X162019841Y-64722438D01*
X162034613Y-64719930D01*
X162050488Y-64717769D01*
X162067816Y-64715929D01*
X162086950Y-64714386D01*
X162108241Y-64713117D01*
X162132038Y-64712096D01*
X162158695Y-64711299D01*
X162188561Y-64710702D01*
X162259326Y-64710009D01*
X162347144Y-64709821D01*
X162643406Y-64709821D01*
X162643406Y-64492093D01*
X162643406Y-64482721D01*
X162643406Y-64274364D01*
X162387920Y-64273259D01*
X162855073Y-64273259D01*
X162855073Y-64482721D01*
X162855769Y-64564746D01*
X162857664Y-64633243D01*
X162858970Y-64660180D01*
X162860468Y-64681049D01*
X162862121Y-64694955D01*
X162862994Y-64699016D01*
X162863893Y-64701001D01*
X162864670Y-64701454D01*
X162866083Y-64701900D01*
X162870749Y-64702773D01*
X162877757Y-64703617D01*
X162886976Y-64704426D01*
X162911515Y-64705924D01*
X162943309Y-64707230D01*
X162981298Y-64708310D01*
X163024425Y-64709125D01*
X163071633Y-64709641D01*
X163121861Y-64709821D01*
X163371010Y-64709821D01*
X163371010Y-64491540D01*
X163371010Y-64273259D01*
X163113042Y-64273259D01*
X162855073Y-64273259D01*
X162387920Y-64273259D01*
X161654526Y-64270087D01*
X161020362Y-64266500D01*
X160825613Y-64262586D01*
X160689733Y-64255368D01*
X160638552Y-64250077D01*
X160595708Y-64243428D01*
X160559074Y-64235244D01*
X160526523Y-64225348D01*
X160465162Y-64199710D01*
X160394612Y-64165096D01*
X160364313Y-64149392D01*
X160334580Y-64132251D01*
X160305465Y-64113724D01*
X160277018Y-64093863D01*
X160249290Y-64072719D01*
X160222332Y-64050344D01*
X160196195Y-64026790D01*
X160170929Y-64002109D01*
X160146586Y-63976351D01*
X160123215Y-63949569D01*
X160100869Y-63921815D01*
X160079598Y-63893140D01*
X160059452Y-63863595D01*
X160040483Y-63833233D01*
X160022741Y-63802105D01*
X160006277Y-63770263D01*
X159987974Y-63731892D01*
X159971414Y-63694654D01*
X159956519Y-63658103D01*
X159943209Y-63621794D01*
X159931408Y-63585280D01*
X159921036Y-63548116D01*
X159912016Y-63509855D01*
X159904270Y-63470053D01*
X159897719Y-63428263D01*
X159892285Y-63384039D01*
X159887891Y-63336935D01*
X159884457Y-63286506D01*
X159881907Y-63232306D01*
X159880161Y-63173889D01*
X159879143Y-63110809D01*
X159878773Y-63042620D01*
X159878510Y-62784324D01*
X159849545Y-62778363D01*
X160090177Y-62778363D01*
X160090177Y-63041214D01*
X160091113Y-63145041D01*
X160094049Y-63236728D01*
X160099180Y-63317777D01*
X160106701Y-63389691D01*
X160111419Y-63422693D01*
X160116807Y-63453974D01*
X160122889Y-63483723D01*
X160129691Y-63512128D01*
X160137236Y-63539376D01*
X160145548Y-63565657D01*
X160154653Y-63591156D01*
X160164573Y-63616063D01*
X160178685Y-63647727D01*
X160194159Y-63678670D01*
X160210929Y-63708820D01*
X160228925Y-63738101D01*
X160248079Y-63766440D01*
X160268322Y-63793762D01*
X160289586Y-63819994D01*
X160311801Y-63845061D01*
X160334900Y-63868890D01*
X160358813Y-63891406D01*
X160383472Y-63912535D01*
X160408809Y-63932203D01*
X160434754Y-63950337D01*
X160461239Y-63966861D01*
X160488195Y-63981703D01*
X160515555Y-63994787D01*
X160541755Y-64006298D01*
X160566060Y-64016365D01*
X160578045Y-64020887D01*
X160590209Y-64025085D01*
X160602768Y-64028971D01*
X160615942Y-64032557D01*
X160629946Y-64035857D01*
X160644999Y-64038881D01*
X160661318Y-64041642D01*
X160679122Y-64044153D01*
X160698626Y-64046426D01*
X160720049Y-64048473D01*
X160743609Y-64050306D01*
X160769523Y-64051938D01*
X160798008Y-64053382D01*
X160829282Y-64054648D01*
X160901067Y-64056701D01*
X160986618Y-64058194D01*
X161087677Y-64059227D01*
X161205982Y-64059898D01*
X161343275Y-64060305D01*
X161681783Y-64060721D01*
X162645004Y-64061592D01*
X162640058Y-63515889D01*
X162636656Y-63213260D01*
X162634547Y-63113313D01*
X162631758Y-63039730D01*
X162627983Y-62986599D01*
X162622914Y-62948009D01*
X162616247Y-62918050D01*
X162607675Y-62890811D01*
X162591478Y-62845044D01*
X162576453Y-62805330D01*
X162561748Y-62769941D01*
X162554251Y-62753327D01*
X162546514Y-62737147D01*
X162538432Y-62721182D01*
X162529899Y-62705219D01*
X162520807Y-62689039D01*
X162511051Y-62672428D01*
X162489121Y-62637045D01*
X162463257Y-62597341D01*
X162445309Y-62571065D01*
X162426915Y-62545765D01*
X162408050Y-62521417D01*
X162388685Y-62497997D01*
X162368795Y-62475481D01*
X162348352Y-62453846D01*
X162327330Y-62433066D01*
X162305701Y-62413120D01*
X162283439Y-62393981D01*
X162260518Y-62375628D01*
X162236909Y-62358035D01*
X162212587Y-62341179D01*
X162187524Y-62325036D01*
X162161694Y-62309583D01*
X162135070Y-62294794D01*
X162107624Y-62280647D01*
X162075230Y-62264997D01*
X162044177Y-62251040D01*
X162013821Y-62238690D01*
X161983515Y-62227861D01*
X161952613Y-62218468D01*
X161920470Y-62210425D01*
X161886440Y-62203646D01*
X161849876Y-62198047D01*
X161810133Y-62193541D01*
X161766566Y-62190043D01*
X161718528Y-62187468D01*
X161665373Y-62185729D01*
X161606456Y-62184742D01*
X161541131Y-62184421D01*
X161388671Y-62185435D01*
X161181317Y-62188470D01*
X161113624Y-62190531D01*
X161063855Y-62193453D01*
X161027457Y-62197610D01*
X161012850Y-62200268D01*
X160999880Y-62203375D01*
X160976575Y-62211123D01*
X160952990Y-62221227D01*
X160935491Y-62229819D01*
X160918205Y-62239644D01*
X160901213Y-62250613D01*
X160884597Y-62262633D01*
X160868437Y-62275615D01*
X160852815Y-62289467D01*
X160837811Y-62304098D01*
X160823507Y-62319416D01*
X160809984Y-62335332D01*
X160797323Y-62351755D01*
X160785605Y-62368592D01*
X160774910Y-62385753D01*
X160765321Y-62403148D01*
X160756918Y-62420684D01*
X160749782Y-62438272D01*
X160743994Y-62455820D01*
X160731085Y-62497403D01*
X160728621Y-62505991D01*
X160726682Y-62513913D01*
X160725379Y-62521198D01*
X160724821Y-62527874D01*
X160725119Y-62533970D01*
X160725623Y-62536809D01*
X160726383Y-62539514D01*
X160727411Y-62542089D01*
X160728722Y-62544536D01*
X160730330Y-62546860D01*
X160732248Y-62549064D01*
X160734491Y-62551151D01*
X160737071Y-62553126D01*
X160740002Y-62554991D01*
X160743299Y-62556751D01*
X160751044Y-62559968D01*
X160760416Y-62562805D01*
X160771524Y-62565292D01*
X160784479Y-62567455D01*
X160799392Y-62569325D01*
X160816371Y-62570930D01*
X160835527Y-62572299D01*
X160856971Y-62573459D01*
X160907162Y-62575271D01*
X160967823Y-62576594D01*
X161039836Y-62577658D01*
X161221441Y-62579926D01*
X161710749Y-62586540D01*
X161793855Y-62624917D01*
X161813842Y-62634878D01*
X161833740Y-62646222D01*
X161853455Y-62658849D01*
X161872891Y-62672657D01*
X161891950Y-62687546D01*
X161910537Y-62703413D01*
X161928556Y-62720158D01*
X161945910Y-62737680D01*
X161962503Y-62755877D01*
X161978239Y-62774648D01*
X161993022Y-62793892D01*
X162006756Y-62813508D01*
X162019343Y-62833394D01*
X162030689Y-62853448D01*
X162040697Y-62873571D01*
X162049270Y-62893661D01*
X162056442Y-62913804D01*
X162062655Y-62934950D01*
X162067909Y-62956958D01*
X162072204Y-62979689D01*
X162075541Y-63003002D01*
X162077920Y-63026757D01*
X162079340Y-63050815D01*
X162079802Y-63075036D01*
X162079305Y-63099280D01*
X162077851Y-63123406D01*
X162075439Y-63147276D01*
X162072069Y-63170749D01*
X162067741Y-63193686D01*
X162062456Y-63215946D01*
X162056213Y-63237389D01*
X162049013Y-63257876D01*
X162040730Y-63277646D01*
X162031158Y-63297314D01*
X162020364Y-63316808D01*
X162008415Y-63336059D01*
X161995379Y-63354994D01*
X161981321Y-63373543D01*
X161966309Y-63391635D01*
X161950410Y-63409200D01*
X161933692Y-63426165D01*
X161916221Y-63442460D01*
X161898064Y-63458014D01*
X161879289Y-63472756D01*
X161859962Y-63486615D01*
X161840151Y-63499520D01*
X161819922Y-63511401D01*
X161799343Y-63522185D01*
X161711415Y-63565498D01*
X161356150Y-63569775D01*
X161159773Y-63571391D01*
X161092926Y-63570877D01*
X161041601Y-63569201D01*
X161001768Y-63566158D01*
X160969398Y-63561537D01*
X160940462Y-63555129D01*
X160910931Y-63546728D01*
X160890043Y-63539810D01*
X160869029Y-63531736D01*
X160847996Y-63522583D01*
X160827052Y-63512428D01*
X160806305Y-63501349D01*
X160785863Y-63489422D01*
X160765836Y-63476725D01*
X160746330Y-63463335D01*
X160727454Y-63449330D01*
X160709316Y-63434786D01*
X160692025Y-63419780D01*
X160675688Y-63404390D01*
X160660413Y-63388693D01*
X160646309Y-63372766D01*
X160633484Y-63356687D01*
X160622046Y-63340532D01*
X160608411Y-63319382D01*
X160595998Y-63298860D01*
X160584746Y-63278744D01*
X160574595Y-63258813D01*
X160565485Y-63238847D01*
X160557357Y-63218624D01*
X160550149Y-63197924D01*
X160543802Y-63176525D01*
X160538256Y-63154205D01*
X160533450Y-63130746D01*
X160529324Y-63105924D01*
X160525819Y-63079519D01*
X160522874Y-63051310D01*
X160520429Y-63021076D01*
X160518423Y-62988596D01*
X160516797Y-62953649D01*
X160516795Y-62953599D01*
X160727508Y-62953599D01*
X160728383Y-62989595D01*
X160730653Y-63023558D01*
X160734356Y-63055580D01*
X160739533Y-63085752D01*
X160746223Y-63114165D01*
X160754465Y-63140910D01*
X160764301Y-63166077D01*
X160775769Y-63189759D01*
X160788909Y-63212046D01*
X160803761Y-63233029D01*
X160820364Y-63252799D01*
X160838759Y-63271447D01*
X160858984Y-63289065D01*
X160881080Y-63305743D01*
X160905087Y-63321572D01*
X160918088Y-63329116D01*
X160931611Y-63335889D01*
X160945986Y-63341925D01*
X160961542Y-63347257D01*
X160978607Y-63351920D01*
X160997513Y-63355948D01*
X161018586Y-63359376D01*
X161042158Y-63362238D01*
X161068558Y-63364567D01*
X161098113Y-63366399D01*
X161131155Y-63367767D01*
X161168012Y-63368705D01*
X161209013Y-63369248D01*
X161254488Y-63369430D01*
X161360177Y-63368848D01*
X161508773Y-63366517D01*
X161561715Y-63364684D01*
X161603362Y-63362172D01*
X161635920Y-63358807D01*
X161661597Y-63354414D01*
X161682598Y-63348818D01*
X161701130Y-63341845D01*
X161713900Y-63335818D01*
X161726654Y-63328714D01*
X161739316Y-63320619D01*
X161751809Y-63311616D01*
X161764058Y-63301792D01*
X161775986Y-63291231D01*
X161787515Y-63280019D01*
X161798570Y-63268242D01*
X161809075Y-63255984D01*
X161818952Y-63243330D01*
X161828126Y-63230367D01*
X161836519Y-63217178D01*
X161844056Y-63203850D01*
X161850659Y-63190468D01*
X161856253Y-63177117D01*
X161860761Y-63163882D01*
X161867739Y-63136875D01*
X161872409Y-63110251D01*
X161873887Y-63097102D01*
X161874797Y-63084072D01*
X161875145Y-63071170D01*
X161874932Y-63058403D01*
X161874163Y-63045780D01*
X161872840Y-63033309D01*
X161870968Y-63020997D01*
X161868549Y-63008853D01*
X161865588Y-62996885D01*
X161862087Y-62985100D01*
X161858050Y-62973507D01*
X161853481Y-62962113D01*
X161848382Y-62950928D01*
X161842758Y-62939958D01*
X161836612Y-62929212D01*
X161829947Y-62918698D01*
X161822766Y-62908423D01*
X161815074Y-62898397D01*
X161806873Y-62888626D01*
X161798167Y-62879120D01*
X161779254Y-62860930D01*
X161758362Y-62843893D01*
X161735518Y-62828072D01*
X161710750Y-62813532D01*
X161701431Y-62808646D01*
X161696872Y-62806427D01*
X161692265Y-62804352D01*
X161687525Y-62802414D01*
X161682566Y-62800610D01*
X161677301Y-62798935D01*
X161671644Y-62797384D01*
X161665510Y-62795952D01*
X161658812Y-62794634D01*
X161651465Y-62793427D01*
X161643382Y-62792324D01*
X161634478Y-62791321D01*
X161624666Y-62790414D01*
X161613860Y-62789598D01*
X161601975Y-62788867D01*
X161574622Y-62787644D01*
X161541918Y-62786709D01*
X161503177Y-62786021D01*
X161457709Y-62785544D01*
X161404826Y-62785239D01*
X161343841Y-62785069D01*
X161194812Y-62784978D01*
X160731792Y-62784978D01*
X160727987Y-62915480D01*
X160727508Y-62953599D01*
X160516795Y-62953599D01*
X160509758Y-62778363D01*
X160299968Y-62778363D01*
X160090177Y-62778363D01*
X159849545Y-62778363D01*
X159762755Y-62760501D01*
X159684205Y-62741452D01*
X159607782Y-62717183D01*
X159533716Y-62687907D01*
X159462234Y-62653837D01*
X159393566Y-62615185D01*
X159327940Y-62572164D01*
X159265584Y-62524985D01*
X159206726Y-62473861D01*
X159151596Y-62419005D01*
X159100420Y-62360628D01*
X159053429Y-62298944D01*
X159010849Y-62234164D01*
X158972911Y-62166501D01*
X158939841Y-62096167D01*
X158911869Y-62023375D01*
X158889222Y-61948337D01*
X158868242Y-61868145D01*
X159086278Y-61868145D01*
X159086956Y-61877599D01*
X159088908Y-61889230D01*
X159092042Y-61902785D01*
X159096268Y-61918006D01*
X159101493Y-61934640D01*
X159107626Y-61952431D01*
X159114575Y-61971123D01*
X159122250Y-61990462D01*
X159130558Y-62010193D01*
X159139408Y-62030059D01*
X159148708Y-62049807D01*
X159158367Y-62069180D01*
X159168294Y-62087924D01*
X159178396Y-62105783D01*
X159197286Y-62136514D01*
X159217607Y-62166735D01*
X159239279Y-62196374D01*
X159262221Y-62225359D01*
X159286354Y-62253618D01*
X159311599Y-62281077D01*
X159337875Y-62307665D01*
X159365102Y-62333309D01*
X159393202Y-62357936D01*
X159422094Y-62381474D01*
X159451698Y-62403851D01*
X159481934Y-62424994D01*
X159512724Y-62444830D01*
X159543986Y-62463287D01*
X159575642Y-62480293D01*
X159607611Y-62495774D01*
X159640778Y-62510263D01*
X159673947Y-62523421D01*
X159706585Y-62535088D01*
X159738153Y-62545106D01*
X159768117Y-62553316D01*
X159782330Y-62556694D01*
X159795941Y-62559560D01*
X159808882Y-62561895D01*
X159821087Y-62563679D01*
X159832490Y-62564892D01*
X159843022Y-62565514D01*
X159848821Y-62565651D01*
X159853959Y-62565656D01*
X159858462Y-62565503D01*
X159862357Y-62565163D01*
X159864084Y-62564915D01*
X159865668Y-62564611D01*
X159867114Y-62564248D01*
X159868423Y-62563821D01*
X159869600Y-62563328D01*
X159870647Y-62562765D01*
X159871569Y-62562129D01*
X159872367Y-62561417D01*
X159873046Y-62560625D01*
X159873609Y-62559751D01*
X159874058Y-62558790D01*
X159874398Y-62557739D01*
X159874632Y-62556595D01*
X159874762Y-62555356D01*
X159874792Y-62554016D01*
X159874725Y-62552574D01*
X159874565Y-62551025D01*
X159874315Y-62549367D01*
X159873558Y-62545709D01*
X159872478Y-62541572D01*
X159871104Y-62536931D01*
X159859343Y-62499965D01*
X159847470Y-62464981D01*
X159835397Y-62431824D01*
X159823035Y-62400338D01*
X159810295Y-62370368D01*
X159797087Y-62341756D01*
X159783324Y-62314348D01*
X159768916Y-62287987D01*
X159753774Y-62262517D01*
X159737810Y-62237783D01*
X159720934Y-62213629D01*
X159703058Y-62189898D01*
X159684093Y-62166436D01*
X159663950Y-62143085D01*
X159642539Y-62119691D01*
X159619774Y-62096097D01*
X159606771Y-62083113D01*
X159594167Y-62070887D01*
X159581882Y-62059361D01*
X159569836Y-62048477D01*
X159557948Y-62038176D01*
X159546139Y-62028399D01*
X159534328Y-62019088D01*
X159522435Y-62010185D01*
X159510380Y-62001632D01*
X159498083Y-61993369D01*
X159485463Y-61985339D01*
X159472441Y-61977482D01*
X159458935Y-61969742D01*
X159444867Y-61962058D01*
X159430156Y-61954373D01*
X159414721Y-61946628D01*
X159393412Y-61936622D01*
X159370377Y-61926690D01*
X159320723Y-61907488D01*
X159268934Y-61889897D01*
X159218185Y-61874795D01*
X159171653Y-61863058D01*
X159150961Y-61858724D01*
X159132513Y-61855560D01*
X159116707Y-61853676D01*
X159103940Y-61853179D01*
X159094609Y-61854182D01*
X159091355Y-61855279D01*
X159089110Y-61856791D01*
X159087850Y-61858606D01*
X159086965Y-61861124D01*
X159086445Y-61864314D01*
X159086278Y-61868145D01*
X158868242Y-61868145D01*
X158865833Y-61858936D01*
X158588344Y-61850559D01*
X158492572Y-61847076D01*
X158409810Y-61842641D01*
X158337779Y-61836945D01*
X158274199Y-61829680D01*
X158216793Y-61820536D01*
X158163280Y-61809204D01*
X158111381Y-61795374D01*
X158058817Y-61778739D01*
X158007551Y-61759832D01*
X157957551Y-61738246D01*
X157908914Y-61714072D01*
X157861738Y-61687400D01*
X157816119Y-61658321D01*
X157772156Y-61626926D01*
X157729945Y-61593307D01*
X157689584Y-61557553D01*
X157651170Y-61519756D01*
X157614800Y-61480006D01*
X157580572Y-61438395D01*
X157548583Y-61395013D01*
X157518931Y-61349952D01*
X157491712Y-61303302D01*
X157467024Y-61255153D01*
X157444965Y-61205597D01*
X157434591Y-61179603D01*
X157424976Y-61153721D01*
X157416092Y-61127811D01*
X157407915Y-61101733D01*
X157400417Y-61075346D01*
X157393573Y-61048510D01*
X157387357Y-61021083D01*
X157381742Y-60992927D01*
X157376702Y-60963900D01*
X157372211Y-60933862D01*
X157368242Y-60902672D01*
X157364770Y-60870190D01*
X157361769Y-60836276D01*
X157359212Y-60800789D01*
X157355326Y-60724535D01*
X157347723Y-60529405D01*
X157559812Y-60529405D01*
X157567048Y-60724535D01*
X157570688Y-60801142D01*
X157575812Y-60867573D01*
X157579079Y-60897661D01*
X157582894Y-60926030D01*
X157587318Y-60952958D01*
X157592409Y-60978718D01*
X157598227Y-61003586D01*
X157604831Y-61027839D01*
X157612281Y-61051750D01*
X157620635Y-61075595D01*
X157629954Y-61099651D01*
X157640297Y-61124191D01*
X157664290Y-61175829D01*
X157675796Y-61197908D01*
X157689002Y-61220600D01*
X157703751Y-61243732D01*
X157719887Y-61267131D01*
X157737252Y-61290626D01*
X157755690Y-61314044D01*
X157775043Y-61337211D01*
X157795155Y-61359956D01*
X157815868Y-61382106D01*
X157837026Y-61403488D01*
X157858472Y-61423929D01*
X157880049Y-61443258D01*
X157901599Y-61461301D01*
X157922967Y-61477887D01*
X157943994Y-61492841D01*
X157964525Y-61505993D01*
X157981082Y-61515581D01*
X157998830Y-61525133D01*
X158017627Y-61534594D01*
X158037331Y-61543913D01*
X158057799Y-61553039D01*
X158078888Y-61561918D01*
X158122361Y-61578731D01*
X158166610Y-61593936D01*
X158188669Y-61600806D01*
X158210494Y-61607117D01*
X158231944Y-61612819D01*
X158252874Y-61617858D01*
X158273143Y-61622183D01*
X158292608Y-61625742D01*
X158311966Y-61628148D01*
X158339812Y-61630454D01*
X158374836Y-61632604D01*
X158415731Y-61634544D01*
X158461185Y-61636220D01*
X158509891Y-61637575D01*
X158560538Y-61638557D01*
X158611818Y-61639109D01*
X158859865Y-61640655D01*
X158859865Y-61488519D01*
X158859865Y-61336384D01*
X158650315Y-61336384D01*
X158590677Y-61335772D01*
X158534978Y-61333877D01*
X158482950Y-61330608D01*
X158434328Y-61325874D01*
X158388844Y-61319585D01*
X158346234Y-61311651D01*
X158306230Y-61301980D01*
X158268567Y-61290482D01*
X158232978Y-61277067D01*
X158199196Y-61261644D01*
X158166956Y-61244122D01*
X158135992Y-61224411D01*
X158106036Y-61202421D01*
X158076823Y-61178061D01*
X158048087Y-61151240D01*
X158019561Y-61121867D01*
X158000466Y-61100141D01*
X157982759Y-61077520D01*
X157966417Y-61053928D01*
X157951417Y-61029293D01*
X157937738Y-61003540D01*
X157925357Y-60976595D01*
X157914251Y-60948384D01*
X157904397Y-60918834D01*
X157895773Y-60887869D01*
X157888356Y-60855417D01*
X157882123Y-60821403D01*
X157877053Y-60785754D01*
X157873122Y-60748394D01*
X157870308Y-60709251D01*
X157868588Y-60668249D01*
X157867940Y-60625316D01*
X157867677Y-60529405D01*
X157713744Y-60529405D01*
X157559812Y-60529405D01*
X157347723Y-60529405D01*
X157121528Y-60529209D01*
X157066123Y-60528865D01*
X157015827Y-60527924D01*
X156970451Y-60526375D01*
X156929803Y-60524204D01*
X156893695Y-60521400D01*
X156861937Y-60517951D01*
X156834337Y-60513843D01*
X156810708Y-60509065D01*
X156778931Y-60500782D01*
X156747843Y-60491100D01*
X156717474Y-60480064D01*
X156687857Y-60467720D01*
X156659024Y-60454111D01*
X156631005Y-60439283D01*
X156603832Y-60423281D01*
X156577537Y-60406149D01*
X156552152Y-60387933D01*
X156527708Y-60368677D01*
X156504237Y-60348426D01*
X156481770Y-60327225D01*
X156460340Y-60305119D01*
X156439976Y-60282152D01*
X156420712Y-60258370D01*
X156402579Y-60233817D01*
X156385608Y-60208539D01*
X156369831Y-60182580D01*
X156355280Y-60155984D01*
X156341986Y-60128798D01*
X156329980Y-60101065D01*
X156319295Y-60072831D01*
X156309962Y-60044140D01*
X156302012Y-60015037D01*
X156295478Y-59985567D01*
X156290390Y-59955776D01*
X156286781Y-59925707D01*
X156284682Y-59895406D01*
X156284124Y-59864917D01*
X156284243Y-59861332D01*
X156498647Y-59861332D01*
X156498935Y-59893995D01*
X156499909Y-59922241D01*
X156500690Y-59934946D01*
X156501686Y-59946831D01*
X156502914Y-59957992D01*
X156504387Y-59968524D01*
X156506121Y-59978522D01*
X156508130Y-59988081D01*
X156510429Y-59997296D01*
X156513034Y-60006263D01*
X156515958Y-60015076D01*
X156519218Y-60023831D01*
X156522827Y-60032622D01*
X156526801Y-60041545D01*
X156537307Y-60062651D01*
X156549137Y-60083332D01*
X156562231Y-60103539D01*
X156576529Y-60123218D01*
X156591972Y-60142317D01*
X156608502Y-60160785D01*
X156626059Y-60178569D01*
X156644583Y-60195618D01*
X156664016Y-60211880D01*
X156684299Y-60227302D01*
X156705371Y-60241834D01*
X156727174Y-60255421D01*
X156749649Y-60268014D01*
X156772737Y-60279560D01*
X156796377Y-60290006D01*
X156820512Y-60299301D01*
X156827374Y-60301429D01*
X156835666Y-60303417D01*
X156845404Y-60305267D01*
X156856601Y-60306980D01*
X156869274Y-60308556D01*
X156883437Y-60309997D01*
X156916293Y-60312476D01*
X156955289Y-60314425D01*
X157000543Y-60315849D01*
X157052176Y-60316758D01*
X157110308Y-60317158D01*
X157351740Y-60317738D01*
X157351611Y-60043233D01*
X157350833Y-59888682D01*
X157349455Y-59837218D01*
X157346996Y-59798402D01*
X157345263Y-59782669D01*
X157343142Y-59768815D01*
X157340593Y-59756413D01*
X157337577Y-59745037D01*
X157334054Y-59734258D01*
X157329986Y-59723649D01*
X157320053Y-59701230D01*
X157313386Y-59687519D01*
X157306330Y-59674184D01*
X157298890Y-59661225D01*
X157291068Y-59648646D01*
X157282868Y-59636450D01*
X157274295Y-59624638D01*
X157265352Y-59613212D01*
X157256043Y-59602176D01*
X157246371Y-59591531D01*
X157236340Y-59581280D01*
X157225955Y-59571425D01*
X157215218Y-59561968D01*
X157204134Y-59552912D01*
X157192706Y-59544259D01*
X157180938Y-59536012D01*
X157168834Y-59528172D01*
X157156397Y-59520742D01*
X157143632Y-59513725D01*
X157130541Y-59507123D01*
X157117130Y-59500938D01*
X157103401Y-59495172D01*
X157089358Y-59489828D01*
X157075005Y-59484908D01*
X157060346Y-59480414D01*
X157045385Y-59476349D01*
X157030125Y-59472716D01*
X157014570Y-59469515D01*
X156998724Y-59466751D01*
X156982591Y-59464425D01*
X156966173Y-59462539D01*
X156932503Y-59460098D01*
X156907649Y-59459315D01*
X156883983Y-59459291D01*
X156861423Y-59460052D01*
X156839885Y-59461621D01*
X156819287Y-59464026D01*
X156799547Y-59467291D01*
X156780582Y-59471441D01*
X156762310Y-59476503D01*
X156744648Y-59482501D01*
X156727515Y-59489460D01*
X156710826Y-59497407D01*
X156694500Y-59506366D01*
X156678455Y-59516363D01*
X156662607Y-59527424D01*
X156646875Y-59539573D01*
X156631176Y-59552836D01*
X156624756Y-59558676D01*
X156618153Y-59565042D01*
X156611417Y-59571872D01*
X156604598Y-59579104D01*
X156597745Y-59586675D01*
X156590908Y-59594522D01*
X156584136Y-59602584D01*
X156577480Y-59610797D01*
X156570989Y-59619100D01*
X156564712Y-59627431D01*
X156558699Y-59635726D01*
X156553000Y-59643924D01*
X156547664Y-59651961D01*
X156542742Y-59659777D01*
X156538282Y-59667308D01*
X156534335Y-59674492D01*
X156528824Y-59685173D01*
X156523899Y-59695206D01*
X156519530Y-59704759D01*
X156515682Y-59713999D01*
X156512326Y-59723094D01*
X156509428Y-59732209D01*
X156506956Y-59741514D01*
X156504880Y-59751174D01*
X156503166Y-59761357D01*
X156501783Y-59772231D01*
X156500699Y-59783962D01*
X156499883Y-59796717D01*
X156499301Y-59810665D01*
X156498923Y-59825972D01*
X156498647Y-59861332D01*
X156284243Y-59861332D01*
X156285140Y-59834286D01*
X156287760Y-59803557D01*
X156292017Y-59772775D01*
X156296782Y-59746897D01*
X156302439Y-59721509D01*
X156308975Y-59696626D01*
X156316376Y-59672262D01*
X156324628Y-59648430D01*
X156333716Y-59625145D01*
X156343626Y-59602419D01*
X156354344Y-59580268D01*
X156365857Y-59558704D01*
X156378150Y-59537742D01*
X156391209Y-59517396D01*
X156405020Y-59497678D01*
X156419568Y-59478604D01*
X156434841Y-59460187D01*
X156450823Y-59442441D01*
X156467500Y-59425379D01*
X156484859Y-59409016D01*
X156502885Y-59393365D01*
X156521565Y-59378441D01*
X156540884Y-59364256D01*
X156560828Y-59350825D01*
X156581383Y-59338162D01*
X156602534Y-59326281D01*
X156624269Y-59315194D01*
X156646572Y-59304917D01*
X156669430Y-59295464D01*
X156692829Y-59286847D01*
X156716754Y-59279080D01*
X156741191Y-59272179D01*
X156766126Y-59266155D01*
X156791546Y-59261024D01*
X156817436Y-59256799D01*
X156867369Y-59251629D01*
X156917641Y-59250352D01*
X156967953Y-59252832D01*
G37*
G36*
X165351715Y-63696672D02*
G01*
X165404536Y-63702780D01*
X165454737Y-63710667D01*
X165502363Y-63720359D01*
X165547458Y-63731883D01*
X165590069Y-63745265D01*
X165630241Y-63760532D01*
X165668019Y-63777710D01*
X165703448Y-63796826D01*
X165736574Y-63817907D01*
X165767441Y-63840979D01*
X165796096Y-63866069D01*
X165822584Y-63893203D01*
X165846950Y-63922408D01*
X165869239Y-63953710D01*
X165889496Y-63987137D01*
X165907768Y-64022714D01*
X165920294Y-64049587D01*
X165931300Y-64074581D01*
X165940898Y-64099007D01*
X165945205Y-64111417D01*
X165949204Y-64124176D01*
X165952908Y-64137448D01*
X165956332Y-64151397D01*
X165959489Y-64166187D01*
X165962396Y-64181982D01*
X165965065Y-64198946D01*
X165967511Y-64217241D01*
X165969748Y-64237033D01*
X165971791Y-64258486D01*
X165975350Y-64307025D01*
X165978304Y-64364172D01*
X165980767Y-64431234D01*
X165982852Y-64509525D01*
X165984675Y-64600354D01*
X165986350Y-64705031D01*
X165989713Y-64961175D01*
X165994416Y-65265161D01*
X166000000Y-65500000D01*
X166006163Y-65655691D01*
X166009368Y-65700729D01*
X166012605Y-65722229D01*
X166026086Y-65757813D01*
X166033304Y-65774566D01*
X166040857Y-65790637D01*
X166048757Y-65806033D01*
X166057017Y-65820763D01*
X166065650Y-65834835D01*
X166074667Y-65848257D01*
X166084083Y-65861037D01*
X166093908Y-65873182D01*
X166104155Y-65884702D01*
X166114838Y-65895603D01*
X166125968Y-65905894D01*
X166137558Y-65915584D01*
X166149621Y-65924679D01*
X166162168Y-65933188D01*
X166175213Y-65941120D01*
X166188768Y-65948481D01*
X166202845Y-65955281D01*
X166217458Y-65961527D01*
X166232617Y-65967227D01*
X166248337Y-65972389D01*
X166264629Y-65977022D01*
X166281506Y-65981132D01*
X166298981Y-65984729D01*
X166317065Y-65987821D01*
X166335772Y-65990415D01*
X166355114Y-65992519D01*
X166395753Y-65995291D01*
X166439081Y-65996200D01*
X166490859Y-65994780D01*
X166539394Y-65990497D01*
X166584729Y-65983312D01*
X166606211Y-65978621D01*
X166626910Y-65973191D01*
X166646830Y-65967018D01*
X166665978Y-65960097D01*
X166684359Y-65952423D01*
X166701979Y-65943993D01*
X166718842Y-65934801D01*
X166734955Y-65924843D01*
X166750322Y-65914114D01*
X166764950Y-65902610D01*
X166778843Y-65890326D01*
X166792008Y-65877258D01*
X166804449Y-65863401D01*
X166816172Y-65848751D01*
X166827183Y-65833303D01*
X166837487Y-65817052D01*
X166847090Y-65799994D01*
X166855996Y-65782125D01*
X166864212Y-65763439D01*
X166871743Y-65743933D01*
X166878594Y-65723601D01*
X166884771Y-65702440D01*
X166895124Y-65657609D01*
X166902845Y-65609404D01*
X166905418Y-65577121D01*
X166907834Y-65523123D01*
X166911980Y-65361544D01*
X166914852Y-65147781D01*
X166916018Y-64904951D01*
X166916427Y-64299717D01*
X167128812Y-64299717D01*
X167341197Y-64299717D01*
X167336566Y-65030629D01*
X167332458Y-65498517D01*
X167328412Y-65646448D01*
X167321444Y-65753405D01*
X167316490Y-65795353D01*
X167310356Y-65831661D01*
X167302893Y-65863862D01*
X167293952Y-65893491D01*
X167271035Y-65951171D01*
X167240408Y-66016975D01*
X167223655Y-66049990D01*
X167205174Y-66081668D01*
X167184979Y-66111998D01*
X167163084Y-66140970D01*
X167139503Y-66168572D01*
X167114249Y-66194794D01*
X167087338Y-66219625D01*
X167058782Y-66243054D01*
X167028596Y-66265071D01*
X166996793Y-66285664D01*
X166963387Y-66304824D01*
X166928392Y-66322539D01*
X166891823Y-66338799D01*
X166853693Y-66353592D01*
X166814015Y-66366908D01*
X166772804Y-66378737D01*
X166749011Y-66384285D01*
X166721589Y-66389396D01*
X166691035Y-66394050D01*
X166657846Y-66398223D01*
X166585554Y-66405038D01*
X166508693Y-66409664D01*
X166431240Y-66411924D01*
X166357175Y-66411640D01*
X166290477Y-66408635D01*
X166261133Y-66406056D01*
X166235124Y-66402730D01*
X166235125Y-66402730D01*
X166173928Y-66391563D01*
X166115519Y-66377259D01*
X166059913Y-66359829D01*
X166007123Y-66339286D01*
X165957162Y-66315641D01*
X165910045Y-66288905D01*
X165865784Y-66259091D01*
X165824393Y-66226210D01*
X165785886Y-66190273D01*
X165750276Y-66151293D01*
X165717577Y-66109280D01*
X165687802Y-66064247D01*
X165660965Y-66016205D01*
X165637079Y-65965167D01*
X165616157Y-65911142D01*
X165598214Y-65854144D01*
X165594802Y-65840747D01*
X165591701Y-65825549D01*
X165588885Y-65807890D01*
X165586329Y-65787110D01*
X165584004Y-65762547D01*
X165581886Y-65733541D01*
X165579948Y-65699432D01*
X165578163Y-65659558D01*
X165574946Y-65559875D01*
X165572026Y-65429208D01*
X165569191Y-65262271D01*
X165566230Y-65053779D01*
X165561494Y-64770179D01*
X165555736Y-64530979D01*
X165549685Y-64361357D01*
X165546777Y-64310505D01*
X165544068Y-64286488D01*
X165537829Y-64264844D01*
X165531228Y-64244944D01*
X165524165Y-64226693D01*
X165516541Y-64209997D01*
X165512488Y-64202203D01*
X165508258Y-64194762D01*
X165503839Y-64187663D01*
X165499218Y-64180894D01*
X165494383Y-64174442D01*
X165489322Y-64168297D01*
X165484022Y-64162447D01*
X165478471Y-64156879D01*
X165472656Y-64151583D01*
X165466566Y-64146545D01*
X165460188Y-64141755D01*
X165453510Y-64137200D01*
X165446519Y-64132869D01*
X165439203Y-64128751D01*
X165423547Y-64121102D01*
X165406443Y-64114161D01*
X165387793Y-64107832D01*
X165367498Y-64102021D01*
X165345459Y-64096634D01*
X165269396Y-64079374D01*
X165265726Y-63883695D01*
X165262056Y-63688015D01*
X165351715Y-63696672D01*
G37*
G36*
X167928570Y-64300379D02*
G01*
X167998531Y-64302678D01*
X168028470Y-64304590D01*
X168055438Y-64307089D01*
X168079725Y-64310234D01*
X168101623Y-64314084D01*
X168121424Y-64318699D01*
X168139418Y-64324137D01*
X168155897Y-64330459D01*
X168171154Y-64337722D01*
X168185478Y-64345987D01*
X168199162Y-64355312D01*
X168212497Y-64365756D01*
X168225774Y-64377379D01*
X168236981Y-64389990D01*
X168253057Y-64411674D01*
X168299301Y-64481393D01*
X168363479Y-64584801D01*
X168444565Y-64720163D01*
X168541531Y-64885742D01*
X168653351Y-65079804D01*
X168778998Y-65300612D01*
X168917444Y-65546431D01*
X168930714Y-65569811D01*
X168943575Y-65591919D01*
X168955710Y-65612250D01*
X168966805Y-65630300D01*
X168976542Y-65645563D01*
X168984606Y-65657534D01*
X168990681Y-65665709D01*
X168992875Y-65668215D01*
X168994452Y-65669582D01*
X168995135Y-65669210D01*
X168995803Y-65667257D01*
X168997090Y-65658699D01*
X168999463Y-65623627D01*
X169001544Y-65565851D01*
X169003306Y-65486856D01*
X169004723Y-65388130D01*
X169005768Y-65271157D01*
X169006636Y-64988414D01*
X169006636Y-64299717D01*
X169211688Y-64299717D01*
X169416741Y-64299717D01*
X169416741Y-65324978D01*
X169416741Y-66350238D01*
X169217879Y-66350238D01*
X169139587Y-66349715D01*
X169106741Y-66348890D01*
X169077579Y-66347535D01*
X169051713Y-66345535D01*
X169028757Y-66342776D01*
X169008323Y-66339142D01*
X168990022Y-66334518D01*
X168973469Y-66328789D01*
X168958275Y-66321840D01*
X168944054Y-66313556D01*
X168930418Y-66303822D01*
X168916979Y-66292523D01*
X168903350Y-66279543D01*
X168889144Y-66264768D01*
X168873973Y-66248083D01*
X168865801Y-66237843D01*
X168854459Y-66221933D01*
X168822846Y-66174065D01*
X168780301Y-66106403D01*
X168727990Y-66020874D01*
X168667078Y-65919403D01*
X168598732Y-65803915D01*
X168524116Y-65676335D01*
X168444397Y-65538588D01*
X168299788Y-65288823D01*
X168179875Y-65084262D01*
X168097139Y-64946016D01*
X168073611Y-64908359D01*
X168064058Y-64895197D01*
X168063047Y-64898955D01*
X168062065Y-64910014D01*
X168060205Y-64952544D01*
X168057050Y-65108812D01*
X168054918Y-65340132D01*
X168054135Y-65622634D01*
X168054135Y-66350238D01*
X167842468Y-66350238D01*
X167630802Y-66350238D01*
X167630802Y-65324978D01*
X167630802Y-64299717D01*
X167843225Y-64299717D01*
X167928570Y-64300379D01*
G37*
G36*
X173060962Y-64494057D02*
G01*
X173211909Y-64867987D01*
X173465691Y-65491891D01*
X173699300Y-66066616D01*
X173801749Y-66322310D01*
X173810796Y-66350815D01*
X173556044Y-66347219D01*
X173301293Y-66343622D01*
X173224813Y-66131956D01*
X173166856Y-65973722D01*
X173146155Y-65918783D01*
X173134906Y-65890523D01*
X173121478Y-65860758D01*
X172691712Y-65860758D01*
X172457258Y-65861377D01*
X172380894Y-65862461D01*
X172326502Y-65864338D01*
X172290131Y-65867214D01*
X172277469Y-65869092D01*
X172267829Y-65871297D01*
X172260719Y-65873855D01*
X172255644Y-65876793D01*
X172252110Y-65880136D01*
X172249623Y-65883909D01*
X172245471Y-65893083D01*
X172238358Y-65910383D01*
X172216793Y-65965351D01*
X172188029Y-66040783D01*
X172155165Y-66128649D01*
X172073029Y-66350237D01*
X171442723Y-66349806D01*
X171101756Y-66348887D01*
X170902803Y-66345644D01*
X170841981Y-66342648D01*
X170799143Y-66338468D01*
X170768449Y-66332902D01*
X170744058Y-66325750D01*
X170744055Y-66325750D01*
X170727609Y-66319734D01*
X170711722Y-66313247D01*
X170696394Y-66306288D01*
X170681624Y-66298857D01*
X170667413Y-66290954D01*
X170653759Y-66282577D01*
X170640661Y-66273727D01*
X170628120Y-66264403D01*
X170616135Y-66254605D01*
X170604705Y-66244331D01*
X170593829Y-66233583D01*
X170583508Y-66222359D01*
X170573740Y-66210659D01*
X170564525Y-66198482D01*
X170555862Y-66185829D01*
X170547751Y-66172698D01*
X170535639Y-66151290D01*
X170530125Y-66140739D01*
X170524959Y-66130072D01*
X170520127Y-66119122D01*
X170515620Y-66107727D01*
X170511426Y-66095722D01*
X170507534Y-66082941D01*
X170503932Y-66069222D01*
X170500609Y-66054399D01*
X170497554Y-66038308D01*
X170494756Y-66020784D01*
X170492203Y-66001664D01*
X170489884Y-65980782D01*
X170487788Y-65957975D01*
X170485903Y-65933078D01*
X170482722Y-65876355D01*
X170480252Y-65809298D01*
X170478403Y-65730592D01*
X170477083Y-65638922D01*
X170476204Y-65532972D01*
X170475674Y-65411427D01*
X170475302Y-65116291D01*
X170475078Y-64299061D01*
X170690051Y-64302697D01*
X170905025Y-64306332D01*
X170911640Y-65067009D01*
X170915918Y-65496708D01*
X170921052Y-65729195D01*
X170924821Y-65792691D01*
X170929861Y-65832333D01*
X170936524Y-65856604D01*
X170945163Y-65873988D01*
X170954554Y-65889546D01*
X170959198Y-65896630D01*
X170963898Y-65903270D01*
X170968723Y-65909477D01*
X170973739Y-65915267D01*
X170979016Y-65920652D01*
X170984621Y-65925646D01*
X170990621Y-65930263D01*
X170997085Y-65934516D01*
X171004082Y-65938418D01*
X171011678Y-65941984D01*
X171019941Y-65945226D01*
X171028940Y-65948159D01*
X171038743Y-65950795D01*
X171049417Y-65953148D01*
X171061031Y-65955233D01*
X171073652Y-65957061D01*
X171087348Y-65958647D01*
X171102187Y-65960005D01*
X171118238Y-65961148D01*
X171135568Y-65962089D01*
X171154244Y-65962841D01*
X171174336Y-65963420D01*
X171219036Y-65964107D01*
X171270211Y-65964258D01*
X171328405Y-65963982D01*
X171394161Y-65963386D01*
X171724547Y-65959977D01*
X171925412Y-65487035D01*
X172393541Y-65487035D01*
X172395060Y-65487372D01*
X172399564Y-65487699D01*
X172416920Y-65488319D01*
X172480753Y-65489371D01*
X172575288Y-65490081D01*
X172690772Y-65490342D01*
X172988243Y-65490342D01*
X172961984Y-65420889D01*
X172818588Y-65040551D01*
X172772337Y-64919840D01*
X172732993Y-64820988D01*
X172704723Y-64754196D01*
X172696042Y-64736010D01*
X172693292Y-64731278D01*
X172691690Y-64729665D01*
X172676904Y-64761301D01*
X172642330Y-64844892D01*
X172540550Y-65100051D01*
X172439803Y-65359360D01*
X172406520Y-65448138D01*
X172393541Y-65487035D01*
X171925412Y-65487035D01*
X172039113Y-65219323D01*
X172164121Y-64927130D01*
X172271953Y-64679071D01*
X172351094Y-64501365D01*
X172390030Y-64420232D01*
X172402251Y-64400835D01*
X172413577Y-64383778D01*
X172419051Y-64376078D01*
X172424478Y-64368904D01*
X172429917Y-64362236D01*
X172435427Y-64356054D01*
X172441066Y-64350338D01*
X172446894Y-64345070D01*
X172452970Y-64340229D01*
X172459352Y-64335794D01*
X172466099Y-64331748D01*
X172473271Y-64328069D01*
X172480926Y-64324739D01*
X172489124Y-64321736D01*
X172497922Y-64319043D01*
X172507381Y-64316638D01*
X172517558Y-64314502D01*
X172528514Y-64312616D01*
X172540307Y-64310959D01*
X172552995Y-64309511D01*
X172566638Y-64308254D01*
X172581295Y-64307168D01*
X172613886Y-64305426D01*
X172651238Y-64304129D01*
X172693825Y-64303117D01*
X172742116Y-64302234D01*
X172983245Y-64298137D01*
X173060962Y-64494057D01*
G37*
G36*
X170157573Y-65324642D02*
G01*
X170157573Y-66350238D01*
X169945824Y-66350238D01*
X169734076Y-66350238D01*
X169737464Y-65328285D01*
X169740854Y-64306332D01*
X169949213Y-64302688D01*
X170157573Y-64299045D01*
X170157573Y-65324642D01*
G37*
D11*
X130869673Y-60986266D02*
X131631578Y-60986266D01*
X131250625Y-61367219D02*
X131250625Y-60605314D01*
D12*
X138991466Y-72696115D02*
X138991466Y-71934211D01*
X139372419Y-72315163D02*
X138610514Y-72315163D01*
X138372419Y-70981830D02*
X138372419Y-71458020D01*
X138372419Y-71458020D02*
X138848609Y-71505639D01*
X138848609Y-71505639D02*
X138800990Y-71458020D01*
X138800990Y-71458020D02*
X138753371Y-71362782D01*
X138753371Y-71362782D02*
X138753371Y-71124687D01*
X138753371Y-71124687D02*
X138800990Y-71029449D01*
X138800990Y-71029449D02*
X138848609Y-70981830D01*
X138848609Y-70981830D02*
X138943847Y-70934211D01*
X138943847Y-70934211D02*
X139181942Y-70934211D01*
X139181942Y-70934211D02*
X139277180Y-70981830D01*
X139277180Y-70981830D02*
X139324800Y-71029449D01*
X139324800Y-71029449D02*
X139372419Y-71124687D01*
X139372419Y-71124687D02*
X139372419Y-71362782D01*
X139372419Y-71362782D02*
X139324800Y-71458020D01*
X139324800Y-71458020D02*
X139277180Y-71505639D01*
X138372419Y-70648496D02*
X139372419Y-70315163D01*
X139372419Y-70315163D02*
X138372419Y-69981830D01*
D11*
X150869673Y-49486266D02*
X151631578Y-49486266D01*
X180369673Y-49486266D02*
X181131578Y-49486266D01*
X180750625Y-49867219D02*
X180750625Y-49105314D01*
D12*
X134324800Y-72743734D02*
X134372419Y-72600877D01*
X134372419Y-72600877D02*
X134372419Y-72362782D01*
X134372419Y-72362782D02*
X134324800Y-72267544D01*
X134324800Y-72267544D02*
X134277180Y-72219925D01*
X134277180Y-72219925D02*
X134181942Y-72172306D01*
X134181942Y-72172306D02*
X134086704Y-72172306D01*
X134086704Y-72172306D02*
X133991466Y-72219925D01*
X133991466Y-72219925D02*
X133943847Y-72267544D01*
X133943847Y-72267544D02*
X133896228Y-72362782D01*
X133896228Y-72362782D02*
X133848609Y-72553258D01*
X133848609Y-72553258D02*
X133800990Y-72648496D01*
X133800990Y-72648496D02*
X133753371Y-72696115D01*
X133753371Y-72696115D02*
X133658133Y-72743734D01*
X133658133Y-72743734D02*
X133562895Y-72743734D01*
X133562895Y-72743734D02*
X133467657Y-72696115D01*
X133467657Y-72696115D02*
X133420038Y-72648496D01*
X133420038Y-72648496D02*
X133372419Y-72553258D01*
X133372419Y-72553258D02*
X133372419Y-72315163D01*
X133372419Y-72315163D02*
X133420038Y-72172306D01*
X134372419Y-71743734D02*
X133372419Y-71743734D01*
X133372419Y-71743734D02*
X133372419Y-71505639D01*
X133372419Y-71505639D02*
X133420038Y-71362782D01*
X133420038Y-71362782D02*
X133515276Y-71267544D01*
X133515276Y-71267544D02*
X133610514Y-71219925D01*
X133610514Y-71219925D02*
X133800990Y-71172306D01*
X133800990Y-71172306D02*
X133943847Y-71172306D01*
X133943847Y-71172306D02*
X134134323Y-71219925D01*
X134134323Y-71219925D02*
X134229561Y-71267544D01*
X134229561Y-71267544D02*
X134324800Y-71362782D01*
X134324800Y-71362782D02*
X134372419Y-71505639D01*
X134372419Y-71505639D02*
X134372419Y-71743734D01*
X134086704Y-70791353D02*
X134086704Y-70315163D01*
X134372419Y-70886591D02*
X133372419Y-70553258D01*
X133372419Y-70553258D02*
X134372419Y-70219925D01*
D11*
X131369673Y-81867219D02*
X131369673Y-80867219D01*
X131369673Y-80867219D02*
X131703006Y-81581504D01*
X131703006Y-81581504D02*
X132036339Y-80867219D01*
X132036339Y-80867219D02*
X132036339Y-81867219D01*
X132703006Y-80867219D02*
X132893482Y-80867219D01*
X132893482Y-80867219D02*
X132988720Y-80914838D01*
X132988720Y-80914838D02*
X133083958Y-81010076D01*
X133083958Y-81010076D02*
X133131577Y-81200552D01*
X133131577Y-81200552D02*
X133131577Y-81533885D01*
X133131577Y-81533885D02*
X133083958Y-81724361D01*
X133083958Y-81724361D02*
X132988720Y-81819600D01*
X132988720Y-81819600D02*
X132893482Y-81867219D01*
X132893482Y-81867219D02*
X132703006Y-81867219D01*
X132703006Y-81867219D02*
X132607768Y-81819600D01*
X132607768Y-81819600D02*
X132512530Y-81724361D01*
X132512530Y-81724361D02*
X132464911Y-81533885D01*
X132464911Y-81533885D02*
X132464911Y-81200552D01*
X132464911Y-81200552D02*
X132512530Y-81010076D01*
X132512530Y-81010076D02*
X132607768Y-80914838D01*
X132607768Y-80914838D02*
X132703006Y-80867219D01*
X133560149Y-81867219D02*
X133560149Y-80867219D01*
X133560149Y-80867219D02*
X133798244Y-80867219D01*
X133798244Y-80867219D02*
X133941101Y-80914838D01*
X133941101Y-80914838D02*
X134036339Y-81010076D01*
X134036339Y-81010076D02*
X134083958Y-81105314D01*
X134083958Y-81105314D02*
X134131577Y-81295790D01*
X134131577Y-81295790D02*
X134131577Y-81438647D01*
X134131577Y-81438647D02*
X134083958Y-81629123D01*
X134083958Y-81629123D02*
X134036339Y-81724361D01*
X134036339Y-81724361D02*
X133941101Y-81819600D01*
X133941101Y-81819600D02*
X133798244Y-81867219D01*
X133798244Y-81867219D02*
X133560149Y-81867219D01*
X134560149Y-80867219D02*
X134560149Y-81676742D01*
X134560149Y-81676742D02*
X134607768Y-81771980D01*
X134607768Y-81771980D02*
X134655387Y-81819600D01*
X134655387Y-81819600D02*
X134750625Y-81867219D01*
X134750625Y-81867219D02*
X134941101Y-81867219D01*
X134941101Y-81867219D02*
X135036339Y-81819600D01*
X135036339Y-81819600D02*
X135083958Y-81771980D01*
X135083958Y-81771980D02*
X135131577Y-81676742D01*
X135131577Y-81676742D02*
X135131577Y-80867219D01*
X136083958Y-81867219D02*
X135607768Y-81867219D01*
X135607768Y-81867219D02*
X135607768Y-80867219D01*
X136607768Y-80867219D02*
X136798244Y-80867219D01*
X136798244Y-80867219D02*
X136893482Y-80914838D01*
X136893482Y-80914838D02*
X136988720Y-81010076D01*
X136988720Y-81010076D02*
X137036339Y-81200552D01*
X137036339Y-81200552D02*
X137036339Y-81533885D01*
X137036339Y-81533885D02*
X136988720Y-81724361D01*
X136988720Y-81724361D02*
X136893482Y-81819600D01*
X136893482Y-81819600D02*
X136798244Y-81867219D01*
X136798244Y-81867219D02*
X136607768Y-81867219D01*
X136607768Y-81867219D02*
X136512530Y-81819600D01*
X136512530Y-81819600D02*
X136417292Y-81724361D01*
X136417292Y-81724361D02*
X136369673Y-81533885D01*
X136369673Y-81533885D02*
X136369673Y-81200552D01*
X136369673Y-81200552D02*
X136417292Y-81010076D01*
X136417292Y-81010076D02*
X136512530Y-80914838D01*
X136512530Y-80914838D02*
X136607768Y-80867219D01*
X138226816Y-81867219D02*
X138226816Y-80867219D01*
X138655387Y-80962457D02*
X138703006Y-80914838D01*
X138703006Y-80914838D02*
X138798244Y-80867219D01*
X138798244Y-80867219D02*
X139036339Y-80867219D01*
X139036339Y-80867219D02*
X139131577Y-80914838D01*
X139131577Y-80914838D02*
X139179196Y-80962457D01*
X139179196Y-80962457D02*
X139226815Y-81057695D01*
X139226815Y-81057695D02*
X139226815Y-81152933D01*
X139226815Y-81152933D02*
X139179196Y-81295790D01*
X139179196Y-81295790D02*
X138607768Y-81867219D01*
X138607768Y-81867219D02*
X139226815Y-81867219D01*
X140226815Y-81771980D02*
X140179196Y-81819600D01*
X140179196Y-81819600D02*
X140036339Y-81867219D01*
X140036339Y-81867219D02*
X139941101Y-81867219D01*
X139941101Y-81867219D02*
X139798244Y-81819600D01*
X139798244Y-81819600D02*
X139703006Y-81724361D01*
X139703006Y-81724361D02*
X139655387Y-81629123D01*
X139655387Y-81629123D02*
X139607768Y-81438647D01*
X139607768Y-81438647D02*
X139607768Y-81295790D01*
X139607768Y-81295790D02*
X139655387Y-81105314D01*
X139655387Y-81105314D02*
X139703006Y-81010076D01*
X139703006Y-81010076D02*
X139798244Y-80914838D01*
X139798244Y-80914838D02*
X139941101Y-80867219D01*
X139941101Y-80867219D02*
X140036339Y-80867219D01*
X140036339Y-80867219D02*
X140179196Y-80914838D01*
X140179196Y-80914838D02*
X140226815Y-80962457D01*
X170369673Y-49486266D02*
X171131578Y-49486266D01*
X110869673Y-74343409D02*
X111203006Y-74343409D01*
X111345863Y-74867219D02*
X110869673Y-74867219D01*
X110869673Y-74867219D02*
X110869673Y-73867219D01*
X110869673Y-73867219D02*
X111345863Y-73867219D01*
X111726816Y-74819600D02*
X111869673Y-74867219D01*
X111869673Y-74867219D02*
X112107768Y-74867219D01*
X112107768Y-74867219D02*
X112203006Y-74819600D01*
X112203006Y-74819600D02*
X112250625Y-74771980D01*
X112250625Y-74771980D02*
X112298244Y-74676742D01*
X112298244Y-74676742D02*
X112298244Y-74581504D01*
X112298244Y-74581504D02*
X112250625Y-74486266D01*
X112250625Y-74486266D02*
X112203006Y-74438647D01*
X112203006Y-74438647D02*
X112107768Y-74391028D01*
X112107768Y-74391028D02*
X111917292Y-74343409D01*
X111917292Y-74343409D02*
X111822054Y-74295790D01*
X111822054Y-74295790D02*
X111774435Y-74248171D01*
X111774435Y-74248171D02*
X111726816Y-74152933D01*
X111726816Y-74152933D02*
X111726816Y-74057695D01*
X111726816Y-74057695D02*
X111774435Y-73962457D01*
X111774435Y-73962457D02*
X111822054Y-73914838D01*
X111822054Y-73914838D02*
X111917292Y-73867219D01*
X111917292Y-73867219D02*
X112155387Y-73867219D01*
X112155387Y-73867219D02*
X112298244Y-73914838D01*
X112726816Y-74867219D02*
X112726816Y-73867219D01*
X112726816Y-73867219D02*
X113107768Y-73867219D01*
X113107768Y-73867219D02*
X113203006Y-73914838D01*
X113203006Y-73914838D02*
X113250625Y-73962457D01*
X113250625Y-73962457D02*
X113298244Y-74057695D01*
X113298244Y-74057695D02*
X113298244Y-74200552D01*
X113298244Y-74200552D02*
X113250625Y-74295790D01*
X113250625Y-74295790D02*
X113203006Y-74343409D01*
X113203006Y-74343409D02*
X113107768Y-74391028D01*
X113107768Y-74391028D02*
X112726816Y-74391028D01*
X113631578Y-73867219D02*
X114250625Y-73867219D01*
X114250625Y-73867219D02*
X113917292Y-74248171D01*
X113917292Y-74248171D02*
X114060149Y-74248171D01*
X114060149Y-74248171D02*
X114155387Y-74295790D01*
X114155387Y-74295790D02*
X114203006Y-74343409D01*
X114203006Y-74343409D02*
X114250625Y-74438647D01*
X114250625Y-74438647D02*
X114250625Y-74676742D01*
X114250625Y-74676742D02*
X114203006Y-74771980D01*
X114203006Y-74771980D02*
X114155387Y-74819600D01*
X114155387Y-74819600D02*
X114060149Y-74867219D01*
X114060149Y-74867219D02*
X113774435Y-74867219D01*
X113774435Y-74867219D02*
X113679197Y-74819600D01*
X113679197Y-74819600D02*
X113631578Y-74771980D01*
X114631578Y-73962457D02*
X114679197Y-73914838D01*
X114679197Y-73914838D02*
X114774435Y-73867219D01*
X114774435Y-73867219D02*
X115012530Y-73867219D01*
X115012530Y-73867219D02*
X115107768Y-73914838D01*
X115107768Y-73914838D02*
X115155387Y-73962457D01*
X115155387Y-73962457D02*
X115203006Y-74057695D01*
X115203006Y-74057695D02*
X115203006Y-74152933D01*
X115203006Y-74152933D02*
X115155387Y-74295790D01*
X115155387Y-74295790D02*
X114583959Y-74867219D01*
X114583959Y-74867219D02*
X115203006Y-74867219D01*
X127345863Y-66867219D02*
X126869673Y-66867219D01*
X126869673Y-66867219D02*
X126869673Y-65867219D01*
X127679197Y-66867219D02*
X127679197Y-65867219D01*
X127679197Y-65867219D02*
X128012530Y-66581504D01*
X128012530Y-66581504D02*
X128345863Y-65867219D01*
X128345863Y-65867219D02*
X128345863Y-66867219D01*
X128726816Y-65867219D02*
X129345863Y-65867219D01*
X129345863Y-65867219D02*
X129012530Y-66248171D01*
X129012530Y-66248171D02*
X129155387Y-66248171D01*
X129155387Y-66248171D02*
X129250625Y-66295790D01*
X129250625Y-66295790D02*
X129298244Y-66343409D01*
X129298244Y-66343409D02*
X129345863Y-66438647D01*
X129345863Y-66438647D02*
X129345863Y-66676742D01*
X129345863Y-66676742D02*
X129298244Y-66771980D01*
X129298244Y-66771980D02*
X129250625Y-66819600D01*
X129250625Y-66819600D02*
X129155387Y-66867219D01*
X129155387Y-66867219D02*
X128869673Y-66867219D01*
X128869673Y-66867219D02*
X128774435Y-66819600D01*
X128774435Y-66819600D02*
X128726816Y-66771980D01*
X130250625Y-65867219D02*
X129774435Y-65867219D01*
X129774435Y-65867219D02*
X129726816Y-66343409D01*
X129726816Y-66343409D02*
X129774435Y-66295790D01*
X129774435Y-66295790D02*
X129869673Y-66248171D01*
X129869673Y-66248171D02*
X130107768Y-66248171D01*
X130107768Y-66248171D02*
X130203006Y-66295790D01*
X130203006Y-66295790D02*
X130250625Y-66343409D01*
X130250625Y-66343409D02*
X130298244Y-66438647D01*
X130298244Y-66438647D02*
X130298244Y-66676742D01*
X130298244Y-66676742D02*
X130250625Y-66771980D01*
X130250625Y-66771980D02*
X130203006Y-66819600D01*
X130203006Y-66819600D02*
X130107768Y-66867219D01*
X130107768Y-66867219D02*
X129869673Y-66867219D01*
X129869673Y-66867219D02*
X129774435Y-66819600D01*
X129774435Y-66819600D02*
X129726816Y-66771980D01*
X155845863Y-49867219D02*
X155369673Y-49867219D01*
X155369673Y-49867219D02*
X155369673Y-48867219D01*
X156179197Y-49867219D02*
X156179197Y-48867219D01*
X156179197Y-48867219D02*
X156417292Y-48867219D01*
X156417292Y-48867219D02*
X156560149Y-48914838D01*
X156560149Y-48914838D02*
X156655387Y-49010076D01*
X156655387Y-49010076D02*
X156703006Y-49105314D01*
X156703006Y-49105314D02*
X156750625Y-49295790D01*
X156750625Y-49295790D02*
X156750625Y-49438647D01*
X156750625Y-49438647D02*
X156703006Y-49629123D01*
X156703006Y-49629123D02*
X156655387Y-49724361D01*
X156655387Y-49724361D02*
X156560149Y-49819600D01*
X156560149Y-49819600D02*
X156417292Y-49867219D01*
X156417292Y-49867219D02*
X156179197Y-49867219D01*
X157750625Y-49867219D02*
X157417292Y-49391028D01*
X157179197Y-49867219D02*
X157179197Y-48867219D01*
X157179197Y-48867219D02*
X157560149Y-48867219D01*
X157560149Y-48867219D02*
X157655387Y-48914838D01*
X157655387Y-48914838D02*
X157703006Y-48962457D01*
X157703006Y-48962457D02*
X157750625Y-49057695D01*
X157750625Y-49057695D02*
X157750625Y-49200552D01*
X157750625Y-49200552D02*
X157703006Y-49295790D01*
X157703006Y-49295790D02*
X157655387Y-49343409D01*
X157655387Y-49343409D02*
X157560149Y-49391028D01*
X157560149Y-49391028D02*
X157179197Y-49391028D01*
D12*
X131824800Y-72743734D02*
X131872419Y-72600877D01*
X131872419Y-72600877D02*
X131872419Y-72362782D01*
X131872419Y-72362782D02*
X131824800Y-72267544D01*
X131824800Y-72267544D02*
X131777180Y-72219925D01*
X131777180Y-72219925D02*
X131681942Y-72172306D01*
X131681942Y-72172306D02*
X131586704Y-72172306D01*
X131586704Y-72172306D02*
X131491466Y-72219925D01*
X131491466Y-72219925D02*
X131443847Y-72267544D01*
X131443847Y-72267544D02*
X131396228Y-72362782D01*
X131396228Y-72362782D02*
X131348609Y-72553258D01*
X131348609Y-72553258D02*
X131300990Y-72648496D01*
X131300990Y-72648496D02*
X131253371Y-72696115D01*
X131253371Y-72696115D02*
X131158133Y-72743734D01*
X131158133Y-72743734D02*
X131062895Y-72743734D01*
X131062895Y-72743734D02*
X130967657Y-72696115D01*
X130967657Y-72696115D02*
X130920038Y-72648496D01*
X130920038Y-72648496D02*
X130872419Y-72553258D01*
X130872419Y-72553258D02*
X130872419Y-72315163D01*
X130872419Y-72315163D02*
X130920038Y-72172306D01*
X131777180Y-71172306D02*
X131824800Y-71219925D01*
X131824800Y-71219925D02*
X131872419Y-71362782D01*
X131872419Y-71362782D02*
X131872419Y-71458020D01*
X131872419Y-71458020D02*
X131824800Y-71600877D01*
X131824800Y-71600877D02*
X131729561Y-71696115D01*
X131729561Y-71696115D02*
X131634323Y-71743734D01*
X131634323Y-71743734D02*
X131443847Y-71791353D01*
X131443847Y-71791353D02*
X131300990Y-71791353D01*
X131300990Y-71791353D02*
X131110514Y-71743734D01*
X131110514Y-71743734D02*
X131015276Y-71696115D01*
X131015276Y-71696115D02*
X130920038Y-71600877D01*
X130920038Y-71600877D02*
X130872419Y-71458020D01*
X130872419Y-71458020D02*
X130872419Y-71362782D01*
X130872419Y-71362782D02*
X130920038Y-71219925D01*
X130920038Y-71219925D02*
X130967657Y-71172306D01*
X131872419Y-70267544D02*
X131872419Y-70743734D01*
X131872419Y-70743734D02*
X130872419Y-70743734D01*
X135920038Y-72172306D02*
X135872419Y-72267544D01*
X135872419Y-72267544D02*
X135872419Y-72410401D01*
X135872419Y-72410401D02*
X135920038Y-72553258D01*
X135920038Y-72553258D02*
X136015276Y-72648496D01*
X136015276Y-72648496D02*
X136110514Y-72696115D01*
X136110514Y-72696115D02*
X136300990Y-72743734D01*
X136300990Y-72743734D02*
X136443847Y-72743734D01*
X136443847Y-72743734D02*
X136634323Y-72696115D01*
X136634323Y-72696115D02*
X136729561Y-72648496D01*
X136729561Y-72648496D02*
X136824800Y-72553258D01*
X136824800Y-72553258D02*
X136872419Y-72410401D01*
X136872419Y-72410401D02*
X136872419Y-72315163D01*
X136872419Y-72315163D02*
X136824800Y-72172306D01*
X136824800Y-72172306D02*
X136777180Y-72124687D01*
X136777180Y-72124687D02*
X136443847Y-72124687D01*
X136443847Y-72124687D02*
X136443847Y-72315163D01*
X136872419Y-71696115D02*
X135872419Y-71696115D01*
X135872419Y-71696115D02*
X136872419Y-71124687D01*
X136872419Y-71124687D02*
X135872419Y-71124687D01*
X136872419Y-70648496D02*
X135872419Y-70648496D01*
X135872419Y-70648496D02*
X135872419Y-70410401D01*
X135872419Y-70410401D02*
X135920038Y-70267544D01*
X135920038Y-70267544D02*
X136015276Y-70172306D01*
X136015276Y-70172306D02*
X136110514Y-70124687D01*
X136110514Y-70124687D02*
X136300990Y-70077068D01*
X136300990Y-70077068D02*
X136443847Y-70077068D01*
X136443847Y-70077068D02*
X136634323Y-70124687D01*
X136634323Y-70124687D02*
X136729561Y-70172306D01*
X136729561Y-70172306D02*
X136824800Y-70267544D01*
X136824800Y-70267544D02*
X136872419Y-70410401D01*
X136872419Y-70410401D02*
X136872419Y-70648496D01*
D11*
X160869673Y-49486266D02*
X161631578Y-49486266D01*
X161250625Y-49867219D02*
X161250625Y-49105314D01*
X168345863Y-73867219D02*
X167869673Y-73867219D01*
X167869673Y-73867219D02*
X167869673Y-72867219D01*
X168679197Y-73343409D02*
X169012530Y-73343409D01*
X169155387Y-73867219D02*
X168679197Y-73867219D01*
X168679197Y-73867219D02*
X168679197Y-72867219D01*
X168679197Y-72867219D02*
X169155387Y-72867219D01*
X169583959Y-73867219D02*
X169583959Y-72867219D01*
X169583959Y-72867219D02*
X169822054Y-72867219D01*
X169822054Y-72867219D02*
X169964911Y-72914838D01*
X169964911Y-72914838D02*
X170060149Y-73010076D01*
X170060149Y-73010076D02*
X170107768Y-73105314D01*
X170107768Y-73105314D02*
X170155387Y-73295790D01*
X170155387Y-73295790D02*
X170155387Y-73438647D01*
X170155387Y-73438647D02*
X170107768Y-73629123D01*
X170107768Y-73629123D02*
X170060149Y-73724361D01*
X170060149Y-73724361D02*
X169964911Y-73819600D01*
X169964911Y-73819600D02*
X169822054Y-73867219D01*
X169822054Y-73867219D02*
X169583959Y-73867219D01*
D13*
X109054510Y-53300828D02*
X109054510Y-51800828D01*
X109911653Y-53300828D02*
X109268796Y-52443685D01*
X109911653Y-51800828D02*
X109054510Y-52657971D01*
X110483082Y-52872257D02*
X111197368Y-52872257D01*
X110340225Y-53300828D02*
X110840225Y-51800828D01*
X110840225Y-51800828D02*
X111340225Y-53300828D01*
X111840224Y-53300828D02*
X111840224Y-51800828D01*
X113554510Y-53443685D02*
X113411653Y-53372257D01*
X113411653Y-53372257D02*
X113268796Y-53229400D01*
X113268796Y-53229400D02*
X113054510Y-53015114D01*
X113054510Y-53015114D02*
X112911653Y-52943685D01*
X112911653Y-52943685D02*
X112768796Y-52943685D01*
X112840225Y-53300828D02*
X112697368Y-53229400D01*
X112697368Y-53229400D02*
X112554510Y-53086542D01*
X112554510Y-53086542D02*
X112483082Y-52800828D01*
X112483082Y-52800828D02*
X112483082Y-52300828D01*
X112483082Y-52300828D02*
X112554510Y-52015114D01*
X112554510Y-52015114D02*
X112697368Y-51872257D01*
X112697368Y-51872257D02*
X112840225Y-51800828D01*
X112840225Y-51800828D02*
X113125939Y-51800828D01*
X113125939Y-51800828D02*
X113268796Y-51872257D01*
X113268796Y-51872257D02*
X113411653Y-52015114D01*
X113411653Y-52015114D02*
X113483082Y-52300828D01*
X113483082Y-52300828D02*
X113483082Y-52800828D01*
X113483082Y-52800828D02*
X113411653Y-53086542D01*
X113411653Y-53086542D02*
X113268796Y-53229400D01*
X113268796Y-53229400D02*
X113125939Y-53300828D01*
X113125939Y-53300828D02*
X112840225Y-53300828D01*
X114125939Y-51800828D02*
X114125939Y-53015114D01*
X114125939Y-53015114D02*
X114197368Y-53157971D01*
X114197368Y-53157971D02*
X114268797Y-53229400D01*
X114268797Y-53229400D02*
X114411654Y-53300828D01*
X114411654Y-53300828D02*
X114697368Y-53300828D01*
X114697368Y-53300828D02*
X114840225Y-53229400D01*
X114840225Y-53229400D02*
X114911654Y-53157971D01*
X114911654Y-53157971D02*
X114983082Y-53015114D01*
X114983082Y-53015114D02*
X114983082Y-51800828D01*
X115697368Y-52515114D02*
X116197368Y-52515114D01*
X116411654Y-53300828D02*
X115697368Y-53300828D01*
X115697368Y-53300828D02*
X115697368Y-51800828D01*
X115697368Y-51800828D02*
X116411654Y-51800828D01*
X118197368Y-52515114D02*
X118697368Y-52515114D01*
X118911654Y-53300828D02*
X118197368Y-53300828D01*
X118197368Y-53300828D02*
X118197368Y-51800828D01*
X118197368Y-51800828D02*
X118911654Y-51800828D01*
X121197368Y-52515114D02*
X120697368Y-52515114D01*
X120697368Y-53300828D02*
X120697368Y-51800828D01*
X120697368Y-51800828D02*
X121411654Y-51800828D01*
X122697368Y-53300828D02*
X121983082Y-53300828D01*
X121983082Y-53300828D02*
X121983082Y-51800828D01*
X123125940Y-52872257D02*
X123840226Y-52872257D01*
X122983083Y-53300828D02*
X123483083Y-51800828D01*
X123483083Y-51800828D02*
X123983083Y-53300828D01*
X124268797Y-51800828D02*
X124768797Y-53300828D01*
X124768797Y-53300828D02*
X125268797Y-51800828D01*
X125768796Y-53300828D02*
X125768796Y-51800828D01*
X126768797Y-51800828D02*
X127054511Y-51800828D01*
X127054511Y-51800828D02*
X127197368Y-51872257D01*
X127197368Y-51872257D02*
X127340225Y-52015114D01*
X127340225Y-52015114D02*
X127411654Y-52300828D01*
X127411654Y-52300828D02*
X127411654Y-52800828D01*
X127411654Y-52800828D02*
X127340225Y-53086542D01*
X127340225Y-53086542D02*
X127197368Y-53229400D01*
X127197368Y-53229400D02*
X127054511Y-53300828D01*
X127054511Y-53300828D02*
X126768797Y-53300828D01*
X126768797Y-53300828D02*
X126625940Y-53229400D01*
X126625940Y-53229400D02*
X126483082Y-53086542D01*
X126483082Y-53086542D02*
X126411654Y-52800828D01*
X126411654Y-52800828D02*
X126411654Y-52300828D01*
X126411654Y-52300828D02*
X126483082Y-52015114D01*
X126483082Y-52015114D02*
X126625940Y-51872257D01*
X126625940Y-51872257D02*
X126768797Y-51800828D01*
X109554510Y-49015114D02*
X109054510Y-49015114D01*
X109054510Y-49800828D02*
X109054510Y-48300828D01*
X109054510Y-48300828D02*
X109768796Y-48300828D01*
X110625939Y-48300828D02*
X110911653Y-48300828D01*
X110911653Y-48300828D02*
X111054510Y-48372257D01*
X111054510Y-48372257D02*
X111197367Y-48515114D01*
X111197367Y-48515114D02*
X111268796Y-48800828D01*
X111268796Y-48800828D02*
X111268796Y-49300828D01*
X111268796Y-49300828D02*
X111197367Y-49586542D01*
X111197367Y-49586542D02*
X111054510Y-49729400D01*
X111054510Y-49729400D02*
X110911653Y-49800828D01*
X110911653Y-49800828D02*
X110625939Y-49800828D01*
X110625939Y-49800828D02*
X110483082Y-49729400D01*
X110483082Y-49729400D02*
X110340224Y-49586542D01*
X110340224Y-49586542D02*
X110268796Y-49300828D01*
X110268796Y-49300828D02*
X110268796Y-48800828D01*
X110268796Y-48800828D02*
X110340224Y-48515114D01*
X110340224Y-48515114D02*
X110483082Y-48372257D01*
X110483082Y-48372257D02*
X110625939Y-48300828D01*
X111697368Y-48300828D02*
X112554511Y-48300828D01*
X112125939Y-49800828D02*
X112125939Y-48300828D01*
X113340225Y-48300828D02*
X113625939Y-48300828D01*
X113625939Y-48300828D02*
X113768796Y-48372257D01*
X113768796Y-48372257D02*
X113911653Y-48515114D01*
X113911653Y-48515114D02*
X113983082Y-48800828D01*
X113983082Y-48800828D02*
X113983082Y-49300828D01*
X113983082Y-49300828D02*
X113911653Y-49586542D01*
X113911653Y-49586542D02*
X113768796Y-49729400D01*
X113768796Y-49729400D02*
X113625939Y-49800828D01*
X113625939Y-49800828D02*
X113340225Y-49800828D01*
X113340225Y-49800828D02*
X113197368Y-49729400D01*
X113197368Y-49729400D02*
X113054510Y-49586542D01*
X113054510Y-49586542D02*
X112983082Y-49300828D01*
X112983082Y-49300828D02*
X112983082Y-48800828D01*
X112983082Y-48800828D02*
X113054510Y-48515114D01*
X113054510Y-48515114D02*
X113197368Y-48372257D01*
X113197368Y-48372257D02*
X113340225Y-48300828D01*
X113197368Y-47943685D02*
X113483082Y-47729400D01*
X113483082Y-47729400D02*
X113768796Y-47943685D01*
X114625939Y-49800828D02*
X114625939Y-48300828D01*
X114625939Y-48300828D02*
X115125939Y-49372257D01*
X115125939Y-49372257D02*
X115625939Y-48300828D01*
X115625939Y-48300828D02*
X115625939Y-49800828D01*
X116340225Y-49015114D02*
X116840225Y-49015114D01*
X117054511Y-49800828D02*
X116340225Y-49800828D01*
X116340225Y-49800828D02*
X116340225Y-48300828D01*
X116340225Y-48300828D02*
X117054511Y-48300828D01*
X117483083Y-48300828D02*
X118340226Y-48300828D01*
X117911654Y-49800828D02*
X117911654Y-48300828D01*
X119697368Y-49800828D02*
X119197368Y-49086542D01*
X118840225Y-49800828D02*
X118840225Y-48300828D01*
X118840225Y-48300828D02*
X119411654Y-48300828D01*
X119411654Y-48300828D02*
X119554511Y-48372257D01*
X119554511Y-48372257D02*
X119625940Y-48443685D01*
X119625940Y-48443685D02*
X119697368Y-48586542D01*
X119697368Y-48586542D02*
X119697368Y-48800828D01*
X119697368Y-48800828D02*
X119625940Y-48943685D01*
X119625940Y-48943685D02*
X119554511Y-49015114D01*
X119554511Y-49015114D02*
X119411654Y-49086542D01*
X119411654Y-49086542D02*
X118840225Y-49086542D01*
X120625940Y-48300828D02*
X120911654Y-48300828D01*
X120911654Y-48300828D02*
X121054511Y-48372257D01*
X121054511Y-48372257D02*
X121197368Y-48515114D01*
X121197368Y-48515114D02*
X121268797Y-48800828D01*
X121268797Y-48800828D02*
X121268797Y-49300828D01*
X121268797Y-49300828D02*
X121197368Y-49586542D01*
X121197368Y-49586542D02*
X121054511Y-49729400D01*
X121054511Y-49729400D02*
X120911654Y-49800828D01*
X120911654Y-49800828D02*
X120625940Y-49800828D01*
X120625940Y-49800828D02*
X120483083Y-49729400D01*
X120483083Y-49729400D02*
X120340225Y-49586542D01*
X120340225Y-49586542D02*
X120268797Y-49300828D01*
X120268797Y-49300828D02*
X120268797Y-48800828D01*
X120268797Y-48800828D02*
X120340225Y-48515114D01*
X120340225Y-48515114D02*
X120483083Y-48372257D01*
X120483083Y-48372257D02*
X120625940Y-48300828D01*
D11*
X164369673Y-73486266D02*
X165131578Y-73486266D01*
X164750625Y-73867219D02*
X164750625Y-73105314D01*
X174774435Y-48867219D02*
X175393482Y-48867219D01*
X175393482Y-48867219D02*
X175060149Y-49248171D01*
X175060149Y-49248171D02*
X175203006Y-49248171D01*
X175203006Y-49248171D02*
X175298244Y-49295790D01*
X175298244Y-49295790D02*
X175345863Y-49343409D01*
X175345863Y-49343409D02*
X175393482Y-49438647D01*
X175393482Y-49438647D02*
X175393482Y-49676742D01*
X175393482Y-49676742D02*
X175345863Y-49771980D01*
X175345863Y-49771980D02*
X175298244Y-49819600D01*
X175298244Y-49819600D02*
X175203006Y-49867219D01*
X175203006Y-49867219D02*
X174917292Y-49867219D01*
X174917292Y-49867219D02*
X174822054Y-49819600D01*
X174822054Y-49819600D02*
X174774435Y-49771980D01*
X175822054Y-49771980D02*
X175869673Y-49819600D01*
X175869673Y-49819600D02*
X175822054Y-49867219D01*
X175822054Y-49867219D02*
X175774435Y-49819600D01*
X175774435Y-49819600D02*
X175822054Y-49771980D01*
X175822054Y-49771980D02*
X175822054Y-49867219D01*
X176203006Y-48867219D02*
X176822053Y-48867219D01*
X176822053Y-48867219D02*
X176488720Y-49248171D01*
X176488720Y-49248171D02*
X176631577Y-49248171D01*
X176631577Y-49248171D02*
X176726815Y-49295790D01*
X176726815Y-49295790D02*
X176774434Y-49343409D01*
X176774434Y-49343409D02*
X176822053Y-49438647D01*
X176822053Y-49438647D02*
X176822053Y-49676742D01*
X176822053Y-49676742D02*
X176774434Y-49771980D01*
X176774434Y-49771980D02*
X176726815Y-49819600D01*
X176726815Y-49819600D02*
X176631577Y-49867219D01*
X176631577Y-49867219D02*
X176345863Y-49867219D01*
X176345863Y-49867219D02*
X176250625Y-49819600D01*
X176250625Y-49819600D02*
X176203006Y-49771980D01*
X177107768Y-48867219D02*
X177441101Y-49867219D01*
X177441101Y-49867219D02*
X177774434Y-48867219D01*
X172869673Y-73486266D02*
X173631578Y-73486266D01*
D14*
X142666666Y-79454819D02*
X142666666Y-80169104D01*
X142666666Y-80169104D02*
X142619047Y-80311961D01*
X142619047Y-80311961D02*
X142523809Y-80407200D01*
X142523809Y-80407200D02*
X142380952Y-80454819D01*
X142380952Y-80454819D02*
X142285714Y-80454819D01*
X143047619Y-79454819D02*
X143666666Y-79454819D01*
X143666666Y-79454819D02*
X143333333Y-79835771D01*
X143333333Y-79835771D02*
X143476190Y-79835771D01*
X143476190Y-79835771D02*
X143571428Y-79883390D01*
X143571428Y-79883390D02*
X143619047Y-79931009D01*
X143619047Y-79931009D02*
X143666666Y-80026247D01*
X143666666Y-80026247D02*
X143666666Y-80264342D01*
X143666666Y-80264342D02*
X143619047Y-80359580D01*
X143619047Y-80359580D02*
X143571428Y-80407200D01*
X143571428Y-80407200D02*
X143476190Y-80454819D01*
X143476190Y-80454819D02*
X143190476Y-80454819D01*
X143190476Y-80454819D02*
X143095238Y-80407200D01*
X143095238Y-80407200D02*
X143047619Y-80359580D01*
X123738095Y-71954819D02*
X123738095Y-72764342D01*
X123738095Y-72764342D02*
X123785714Y-72859580D01*
X123785714Y-72859580D02*
X123833333Y-72907200D01*
X123833333Y-72907200D02*
X123928571Y-72954819D01*
X123928571Y-72954819D02*
X124119047Y-72954819D01*
X124119047Y-72954819D02*
X124214285Y-72907200D01*
X124214285Y-72907200D02*
X124261904Y-72859580D01*
X124261904Y-72859580D02*
X124309523Y-72764342D01*
X124309523Y-72764342D02*
X124309523Y-71954819D01*
X125309523Y-72954819D02*
X124738095Y-72954819D01*
X125023809Y-72954819D02*
X125023809Y-71954819D01*
X125023809Y-71954819D02*
X124928571Y-72097676D01*
X124928571Y-72097676D02*
X124833333Y-72192914D01*
X124833333Y-72192914D02*
X124738095Y-72240533D01*
X150333333Y-56824819D02*
X150000000Y-56348628D01*
X149761905Y-56824819D02*
X149761905Y-55824819D01*
X149761905Y-55824819D02*
X150142857Y-55824819D01*
X150142857Y-55824819D02*
X150238095Y-55872438D01*
X150238095Y-55872438D02*
X150285714Y-55920057D01*
X150285714Y-55920057D02*
X150333333Y-56015295D01*
X150333333Y-56015295D02*
X150333333Y-56158152D01*
X150333333Y-56158152D02*
X150285714Y-56253390D01*
X150285714Y-56253390D02*
X150238095Y-56301009D01*
X150238095Y-56301009D02*
X150142857Y-56348628D01*
X150142857Y-56348628D02*
X149761905Y-56348628D01*
X150714286Y-55920057D02*
X150761905Y-55872438D01*
X150761905Y-55872438D02*
X150857143Y-55824819D01*
X150857143Y-55824819D02*
X151095238Y-55824819D01*
X151095238Y-55824819D02*
X151190476Y-55872438D01*
X151190476Y-55872438D02*
X151238095Y-55920057D01*
X151238095Y-55920057D02*
X151285714Y-56015295D01*
X151285714Y-56015295D02*
X151285714Y-56110533D01*
X151285714Y-56110533D02*
X151238095Y-56253390D01*
X151238095Y-56253390D02*
X150666667Y-56824819D01*
X150666667Y-56824819D02*
X151285714Y-56824819D01*
X173666666Y-79454819D02*
X173666666Y-80169104D01*
X173666666Y-80169104D02*
X173619047Y-80311961D01*
X173619047Y-80311961D02*
X173523809Y-80407200D01*
X173523809Y-80407200D02*
X173380952Y-80454819D01*
X173380952Y-80454819D02*
X173285714Y-80454819D01*
X174666666Y-80454819D02*
X174095238Y-80454819D01*
X174380952Y-80454819D02*
X174380952Y-79454819D01*
X174380952Y-79454819D02*
X174285714Y-79597676D01*
X174285714Y-79597676D02*
X174190476Y-79692914D01*
X174190476Y-79692914D02*
X174095238Y-79740533D01*
X159333333Y-78954819D02*
X159000000Y-78478628D01*
X158761905Y-78954819D02*
X158761905Y-77954819D01*
X158761905Y-77954819D02*
X159142857Y-77954819D01*
X159142857Y-77954819D02*
X159238095Y-78002438D01*
X159238095Y-78002438D02*
X159285714Y-78050057D01*
X159285714Y-78050057D02*
X159333333Y-78145295D01*
X159333333Y-78145295D02*
X159333333Y-78288152D01*
X159333333Y-78288152D02*
X159285714Y-78383390D01*
X159285714Y-78383390D02*
X159238095Y-78431009D01*
X159238095Y-78431009D02*
X159142857Y-78478628D01*
X159142857Y-78478628D02*
X158761905Y-78478628D01*
X160285714Y-78954819D02*
X159714286Y-78954819D01*
X160000000Y-78954819D02*
X160000000Y-77954819D01*
X160000000Y-77954819D02*
X159904762Y-78097676D01*
X159904762Y-78097676D02*
X159809524Y-78192914D01*
X159809524Y-78192914D02*
X159714286Y-78240533D01*
X180666666Y-55454819D02*
X180666666Y-56169104D01*
X180666666Y-56169104D02*
X180619047Y-56311961D01*
X180619047Y-56311961D02*
X180523809Y-56407200D01*
X180523809Y-56407200D02*
X180380952Y-56454819D01*
X180380952Y-56454819D02*
X180285714Y-56454819D01*
X181571428Y-55788152D02*
X181571428Y-56454819D01*
X181333333Y-55407200D02*
X181095238Y-56121485D01*
X181095238Y-56121485D02*
X181714285Y-56121485D01*
X131738095Y-64954819D02*
X131738095Y-65764342D01*
X131738095Y-65764342D02*
X131785714Y-65859580D01*
X131785714Y-65859580D02*
X131833333Y-65907200D01*
X131833333Y-65907200D02*
X131928571Y-65954819D01*
X131928571Y-65954819D02*
X132119047Y-65954819D01*
X132119047Y-65954819D02*
X132214285Y-65907200D01*
X132214285Y-65907200D02*
X132261904Y-65859580D01*
X132261904Y-65859580D02*
X132309523Y-65764342D01*
X132309523Y-65764342D02*
X132309523Y-64954819D01*
X132738095Y-65050057D02*
X132785714Y-65002438D01*
X132785714Y-65002438D02*
X132880952Y-64954819D01*
X132880952Y-64954819D02*
X133119047Y-64954819D01*
X133119047Y-64954819D02*
X133214285Y-65002438D01*
X133214285Y-65002438D02*
X133261904Y-65050057D01*
X133261904Y-65050057D02*
X133309523Y-65145295D01*
X133309523Y-65145295D02*
X133309523Y-65240533D01*
X133309523Y-65240533D02*
X133261904Y-65383390D01*
X133261904Y-65383390D02*
X132690476Y-65954819D01*
X132690476Y-65954819D02*
X133309523Y-65954819D01*
X161166666Y-55454819D02*
X161166666Y-56169104D01*
X161166666Y-56169104D02*
X161119047Y-56311961D01*
X161119047Y-56311961D02*
X161023809Y-56407200D01*
X161023809Y-56407200D02*
X160880952Y-56454819D01*
X160880952Y-56454819D02*
X160785714Y-56454819D01*
X161595238Y-55550057D02*
X161642857Y-55502438D01*
X161642857Y-55502438D02*
X161738095Y-55454819D01*
X161738095Y-55454819D02*
X161976190Y-55454819D01*
X161976190Y-55454819D02*
X162071428Y-55502438D01*
X162071428Y-55502438D02*
X162119047Y-55550057D01*
X162119047Y-55550057D02*
X162166666Y-55645295D01*
X162166666Y-55645295D02*
X162166666Y-55740533D01*
X162166666Y-55740533D02*
X162119047Y-55883390D01*
X162119047Y-55883390D02*
X161547619Y-56454819D01*
X161547619Y-56454819D02*
X162166666Y-56454819D01*
D15*
%TO.C,J3*%
X128650000Y-73750000D02*
X128650000Y-75000000D01*
X128940000Y-74040000D02*
X128940000Y-80010000D01*
X128940000Y-80010000D02*
X141560000Y-80010000D01*
X128950000Y-74050000D02*
X128950000Y-74800000D01*
X128950000Y-74800000D02*
X130750000Y-74800000D01*
X128950000Y-76300000D02*
X129700000Y-76300000D01*
X129700000Y-76300000D02*
X129700000Y-79250000D01*
X129700000Y-79250000D02*
X135250000Y-79250000D01*
X129900000Y-73750000D02*
X128650000Y-73750000D01*
X130750000Y-74050000D02*
X128950000Y-74050000D01*
X130750000Y-74800000D02*
X130750000Y-74050000D01*
X132250000Y-74050000D02*
X132250000Y-74800000D01*
X132250000Y-74800000D02*
X138250000Y-74800000D01*
X138250000Y-74050000D02*
X132250000Y-74050000D01*
X138250000Y-74800000D02*
X138250000Y-74050000D01*
X139750000Y-74050000D02*
X139750000Y-74800000D01*
X139750000Y-74800000D02*
X141550000Y-74800000D01*
X140800000Y-76300000D02*
X140800000Y-79250000D01*
X140800000Y-79250000D02*
X135250000Y-79250000D01*
X141550000Y-74050000D02*
X139750000Y-74050000D01*
X141550000Y-74800000D02*
X141550000Y-74050000D01*
X141550000Y-76300000D02*
X140800000Y-76300000D01*
X141560000Y-74040000D02*
X128940000Y-74040000D01*
X141560000Y-80010000D02*
X141560000Y-74040000D01*
D16*
%TO.C,U1*%
X100270000Y-55380000D02*
X100270000Y-59880000D01*
D12*
X100270000Y-68880000D02*
X100270000Y-59880000D01*
D16*
X100270000Y-68880000D02*
X100270000Y-73380000D01*
X122970000Y-55380000D02*
X100270000Y-55380000D01*
X122970000Y-55380000D02*
X122970000Y-73380000D01*
X122970000Y-73380000D02*
X100270000Y-73380000D01*
D15*
%TO.C,R2*%
X142420000Y-52630000D02*
X142420000Y-52960000D01*
X142420000Y-55370000D02*
X142420000Y-55040000D01*
X148960000Y-52630000D02*
X142420000Y-52630000D01*
X148960000Y-52960000D02*
X148960000Y-52630000D01*
X148960000Y-55040000D02*
X148960000Y-55370000D01*
X148960000Y-55370000D02*
X142420000Y-55370000D01*
%TO.C,J1*%
X164940000Y-74490000D02*
X164940000Y-80460000D01*
X164940000Y-80460000D02*
X172560000Y-80460000D01*
X164950000Y-78200000D02*
X165700000Y-78200000D01*
X164950000Y-79700000D02*
X164950000Y-80450000D01*
X164950000Y-80450000D02*
X166750000Y-80450000D01*
X165700000Y-75250000D02*
X168750000Y-75250000D01*
X165700000Y-78200000D02*
X165700000Y-75250000D01*
X166750000Y-79700000D02*
X164950000Y-79700000D01*
X166750000Y-80450000D02*
X166750000Y-79700000D01*
X168250000Y-79700000D02*
X168250000Y-80450000D01*
X168250000Y-80450000D02*
X169250000Y-80450000D01*
X169250000Y-79700000D02*
X168250000Y-79700000D01*
X169250000Y-80450000D02*
X169250000Y-79700000D01*
X170750000Y-79700000D02*
X170750000Y-80450000D01*
X170750000Y-80450000D02*
X172550000Y-80450000D01*
X171600000Y-80750000D02*
X172850000Y-80750000D01*
X171800000Y-75250000D02*
X168750000Y-75250000D01*
X171800000Y-78200000D02*
X171800000Y-75250000D01*
X172550000Y-78200000D02*
X171800000Y-78200000D01*
X172550000Y-79700000D02*
X170750000Y-79700000D01*
X172550000Y-80450000D02*
X172550000Y-79700000D01*
X172560000Y-74490000D02*
X164940000Y-74490000D01*
X172560000Y-80460000D02*
X172560000Y-74490000D01*
X172850000Y-80750000D02*
X172850000Y-79500000D01*
%TO.C,R1*%
X150420000Y-76130000D02*
X156960000Y-76130000D01*
X150420000Y-76460000D02*
X150420000Y-76130000D01*
X150420000Y-78540000D02*
X150420000Y-78870000D01*
X150420000Y-78870000D02*
X156960000Y-78870000D01*
X156960000Y-76130000D02*
X156960000Y-76460000D01*
X156960000Y-78870000D02*
X156960000Y-78540000D01*
%TO.C,J4*%
X171650000Y-50250000D02*
X171650000Y-51500000D01*
X171940000Y-50540000D02*
X171940000Y-56510000D01*
X171940000Y-56510000D02*
X179560000Y-56510000D01*
X171950000Y-50550000D02*
X171950000Y-51300000D01*
X171950000Y-51300000D02*
X173750000Y-51300000D01*
X171950000Y-52800000D02*
X172700000Y-52800000D01*
X172700000Y-52800000D02*
X172700000Y-55750000D01*
X172700000Y-55750000D02*
X175750000Y-55750000D01*
X172900000Y-50250000D02*
X171650000Y-50250000D01*
X173750000Y-50550000D02*
X171950000Y-50550000D01*
X173750000Y-51300000D02*
X173750000Y-50550000D01*
X175250000Y-50550000D02*
X175250000Y-51300000D01*
X175250000Y-51300000D02*
X176250000Y-51300000D01*
X176250000Y-50550000D02*
X175250000Y-50550000D01*
X176250000Y-51300000D02*
X176250000Y-50550000D01*
X177750000Y-50550000D02*
X177750000Y-51300000D01*
X177750000Y-51300000D02*
X179550000Y-51300000D01*
X178800000Y-52800000D02*
X178800000Y-55750000D01*
X178800000Y-55750000D02*
X175750000Y-55750000D01*
X179550000Y-50550000D02*
X177750000Y-50550000D01*
X179550000Y-51300000D02*
X179550000Y-50550000D01*
X179550000Y-52800000D02*
X178800000Y-52800000D01*
X179560000Y-50540000D02*
X171940000Y-50540000D01*
X179560000Y-56510000D02*
X179560000Y-50540000D01*
%TO.C,U2*%
X130030000Y-61150000D02*
X126430000Y-61150000D01*
X128230000Y-65600000D02*
G75*
G02*
X126391522Y-61161522I0J2600000D01*
G01*
X130068478Y-61161522D02*
G75*
G02*
X128230000Y-65600001I-1838478J-1838478D01*
G01*
%TO.C,J2*%
X152440000Y-50490000D02*
X152440000Y-56460000D01*
X152440000Y-56460000D02*
X160060000Y-56460000D01*
X152450000Y-54200000D02*
X153200000Y-54200000D01*
X152450000Y-55700000D02*
X152450000Y-56450000D01*
X152450000Y-56450000D02*
X154250000Y-56450000D01*
X153200000Y-51250000D02*
X156250000Y-51250000D01*
X153200000Y-54200000D02*
X153200000Y-51250000D01*
X154250000Y-55700000D02*
X152450000Y-55700000D01*
X154250000Y-56450000D02*
X154250000Y-55700000D01*
X155750000Y-55700000D02*
X155750000Y-56450000D01*
X155750000Y-56450000D02*
X156750000Y-56450000D01*
X156750000Y-55700000D02*
X155750000Y-55700000D01*
X156750000Y-56450000D02*
X156750000Y-55700000D01*
X158250000Y-55700000D02*
X158250000Y-56450000D01*
X158250000Y-56450000D02*
X160050000Y-56450000D01*
X159100000Y-56750000D02*
X160350000Y-56750000D01*
X159300000Y-51250000D02*
X156250000Y-51250000D01*
X159300000Y-54200000D02*
X159300000Y-51250000D01*
X160050000Y-54200000D02*
X159300000Y-54200000D01*
X160050000Y-55700000D02*
X158250000Y-55700000D01*
X160050000Y-56450000D02*
X160050000Y-55700000D01*
X160060000Y-50490000D02*
X152440000Y-50490000D01*
X160060000Y-56460000D02*
X160060000Y-50490000D01*
X160350000Y-56750000D02*
X160350000Y-55500000D01*
%TD*%
M02*
