M48
; DRILL file {KiCad 9.0.6} date 2026-01-20T16:44:22-0300
; FORMAT={-:-/ absolute / inch / decimal}
; #@! TF.CreationDate,2026-01-20T16:44:22-03:00
; #@! TF.GenerationSoftware,Kicad,Pcbnew,9.0.6
; #@! TF.FileFunction,Plated,1,2,PTH
FMAT,2
INCH
; #@! TA.AperFunction,Plated,PTH,ComponentDrill
T1C0.0295
; #@! TA.AperFunction,Plated,PTH,ComponentDrill
T2C0.0315
; #@! TA.AperFunction,Plated,PTH,ComponentDrill
T3C0.0331
; #@! TA.AperFunction,Plated,PTH,ComponentDrill
T4C0.0374
; #@! TA.AperFunction,Plated,PTH,ComponentDrill
T5C0.0394
%
G90
G05
T1
X4.9984Y-2.4803
X5.0484Y-2.4803
X5.0984Y-2.4803
T2
X5.5858Y-2.126
X5.8858Y-2.126
X5.9008Y-3.0512
X6.2008Y-3.0512
T3
X4.0047Y-2.2346
X4.0047Y-2.8346
X4.1047Y-2.2346
X4.1047Y-2.8346
X4.2047Y-2.2346
X4.2047Y-2.8346
X4.3047Y-2.2346
X4.3047Y-2.8346
X4.4047Y-2.2346
X4.4047Y-2.8346
X4.5047Y-2.2346
X4.5047Y-2.8346
X4.6047Y-2.2346
X4.6047Y-2.8346
X4.7047Y-2.2346
X4.7047Y-2.8346
T4
X5.1772Y-3.0118
X5.2756Y-3.0118
X5.374Y-3.0118
X5.4724Y-3.0118
T5
X6.1024Y-2.126
X6.2008Y-2.126
X6.5945Y-3.0709
X6.6929Y-3.0709
X6.8701Y-2.0866
X6.9685Y-2.0866
M30
