%TF.GenerationSoftware,KiCad,Pcbnew,9.0.6*%
%TF.CreationDate,2026-03-13T13:50:26-03:00*%
%TF.ProjectId,pcb_fotometro,7063625f-666f-4746-9f6d-6574726f2e6b,rev?*%
%TF.SameCoordinates,Original*%
%TF.FileFunction,Copper,L2,Bot*%
%TF.FilePolarity,Positive*%
%FSLAX46Y46*%
G04 Gerber Fmt 4.6, Leading zero omitted, Abs format (unit mm)*
G04 Created by KiCad (PCBNEW 9.0.6) date 2026-03-13 13:50:26*
%MOMM*%
%LPD*%
G01*
G04 APERTURE LIST*
G04 Aperture macros list*
%AMRoundRect*
0 Rectangle with rounded corners*
0 $1 Rounding radius*
0 $2 $3 $4 $5 $6 $7 $8 $9 X,Y pos of 4 corners*
0 Add a 4 corners polygon primitive as box body*
4,1,4,$2,$3,$4,$5,$6,$7,$8,$9,$2,$3,0*
0 Add four circle primitives for the rounded corners*
1,1,$1+$1,$2,$3*
1,1,$1+$1,$4,$5*
1,1,$1+$1,$6,$7*
1,1,$1+$1,$8,$9*
0 Add four rect primitives between the rounded corners*
20,1,$1+$1,$2,$3,$4,$5,0*
20,1,$1+$1,$4,$5,$6,$7,0*
20,1,$1+$1,$6,$7,$8,$9,0*
20,1,$1+$1,$8,$9,$2,$3,0*%
G04 Aperture macros list end*
%TA.AperFunction,ComponentPad*%
%ADD10RoundRect,0.250000X0.600000X0.725000X-0.600000X0.725000X-0.600000X-0.725000X0.600000X-0.725000X0*%
%TD*%
%TA.AperFunction,ComponentPad*%
%ADD11O,1.700000X1.950000*%
%TD*%
%TA.AperFunction,ComponentPad*%
%ADD12RoundRect,0.250000X-0.600000X-0.725000X0.600000X-0.725000X0.600000X0.725000X-0.600000X0.725000X0*%
%TD*%
%TA.AperFunction,ComponentPad*%
%ADD13C,1.348000*%
%TD*%
%TA.AperFunction,ComponentPad*%
%ADD14C,1.600000*%
%TD*%
%TA.AperFunction,ComponentPad*%
%ADD15RoundRect,0.250000X-0.600000X-0.750000X0.600000X-0.750000X0.600000X0.750000X-0.600000X0.750000X0*%
%TD*%
%TA.AperFunction,ComponentPad*%
%ADD16O,1.700000X2.000000*%
%TD*%
%TA.AperFunction,ComponentPad*%
%ADD17R,1.050000X1.500000*%
%TD*%
%TA.AperFunction,ComponentPad*%
%ADD18O,1.050000X1.500000*%
%TD*%
%TA.AperFunction,ComponentPad*%
%ADD19RoundRect,0.250000X0.600000X0.750000X-0.600000X0.750000X-0.600000X-0.750000X0.600000X-0.750000X0*%
%TD*%
%TA.AperFunction,Conductor*%
%ADD20C,0.800000*%
%TD*%
G04 APERTURE END LIST*
D10*
%TO.P,J3,1,Pin_1*%
%TO.N,GND*%
X139500000Y-77500000D03*
D11*
%TO.P,J3,2,Pin_2*%
%TO.N,+5V*%
X137000000Y-77500000D03*
%TO.P,J3,3,Pin_3*%
%TO.N,SCL*%
X134500000Y-77500000D03*
%TO.P,J3,4,Pin_4*%
%TO.N,SDA*%
X132000000Y-77500000D03*
%TD*%
D12*
%TO.P,J5,1,Pin_1*%
%TO.N,GND*%
X174000000Y-52500000D03*
D11*
%TO.P,J5,2,Pin_2*%
%TO.N,B*%
X176500000Y-52500000D03*
%TO.P,J5,3,Pin_3*%
%TO.N,G*%
X179000000Y-52500000D03*
%TO.P,J5,4,Pin_4*%
%TO.N,R*%
X181500000Y-52500000D03*
%TD*%
D13*
%TO.P,U1,0,GPIO0*%
%TO.N,A0*%
X119500000Y-56760000D03*
%TO.P,U1,1,GPIO1*%
%TO.N,B*%
X116960000Y-56760000D03*
%TO.P,U1,2,GPIO2*%
%TO.N,G*%
X114420000Y-56760000D03*
%TO.P,U1,3,GPIO3*%
%TO.N,R*%
X111880000Y-56760000D03*
%TO.P,U1,3.3,3V3*%
%TO.N,+3.3V*%
X106800000Y-56760000D03*
%TO.P,U1,4,GPIO4*%
%TO.N,D_LDR*%
X109340000Y-56760000D03*
%TO.P,U1,5,GPIO5*%
%TO.N,Net-(U1-GPIO5)*%
X101720000Y-72000000D03*
%TO.P,U1,5V,5V*%
%TO.N,+5V*%
X101720000Y-56760000D03*
%TO.P,U1,6,GPIO6*%
%TO.N,unconnected-(U1-GPIO6-Pad6)*%
X104260000Y-72000000D03*
%TO.P,U1,7,GPIO7*%
%TO.N,unconnected-(U1-GPIO7-Pad7)*%
X106800000Y-72000000D03*
%TO.P,U1,8,GPIO8*%
%TO.N,SDA*%
X109340000Y-72000000D03*
%TO.P,U1,9,GPIO9*%
%TO.N,SCL*%
X111880000Y-72000000D03*
%TO.P,U1,10,GPIO10*%
%TO.N,unconnected-(U1-GPIO10-Pad10)*%
X114420000Y-72000000D03*
%TO.P,U1,20,GPIO20*%
%TO.N,unconnected-(U1-GPIO20-Pad20)*%
X116960000Y-72000000D03*
%TO.P,U1,21,GPIO21*%
%TO.N,unconnected-(U1-GPIO21-Pad21)*%
X119500000Y-72000000D03*
%TO.P,U1,G,GND*%
%TO.N,GND*%
X104260000Y-56760000D03*
%TD*%
D14*
%TO.P,R2,1*%
%TO.N,D_LDR*%
X138500000Y-66500000D03*
%TO.P,R2,2*%
%TO.N,GND*%
X130880000Y-66500000D03*
%TD*%
D15*
%TO.P,J1,1,Pin_1*%
%TO.N,GND*%
X158000000Y-52500000D03*
D16*
%TO.P,J1,2,Pin_2*%
%TO.N,Net-(J1-Pin_2)*%
X160500000Y-52500000D03*
%TD*%
D14*
%TO.P,R1,1*%
%TO.N,+5V*%
X130880000Y-60000000D03*
%TO.P,R1,2*%
%TO.N,Net-(J1-Pin_2)*%
X138500000Y-60000000D03*
%TD*%
D15*
%TO.P,J4,1,Pin_1*%
%TO.N,GND*%
X144000000Y-52500000D03*
D16*
%TO.P,J4,2,Pin_2*%
%TO.N,+3.3V*%
X146500000Y-52500000D03*
%TD*%
D17*
%TO.P,U2,1,+V_{S}*%
%TO.N,+5V*%
X192270000Y-68570000D03*
D18*
%TO.P,U2,2,V_{OUT}*%
%TO.N,Net-(U1-GPIO5)*%
X191000000Y-68570000D03*
%TO.P,U2,3,GND*%
%TO.N,GND*%
X189730000Y-68570000D03*
%TD*%
D19*
%TO.P,J2,1,Pin_1*%
%TO.N,D_LDR*%
X156500000Y-77500000D03*
D16*
%TO.P,J2,2,Pin_2*%
%TO.N,+5V*%
X154000000Y-77500000D03*
%TD*%
D10*
%TO.P,J6,1,Pin_1*%
%TO.N,GND*%
X181000000Y-77500000D03*
D11*
%TO.P,J6,2,Pin_2*%
%TO.N,+5V*%
X178500000Y-77500000D03*
%TO.P,J6,3,Pin_3*%
%TO.N,+3.3V*%
X176000000Y-77500000D03*
%TO.P,J6,4,Pin_4*%
%TO.N,A0*%
X173500000Y-77500000D03*
%TD*%
D20*
%TO.N,GND*%
X172399000Y-54101000D02*
X174000000Y-52500000D01*
X158000000Y-52500000D02*
X159601000Y-54101000D01*
X159601000Y-54101000D02*
X172399000Y-54101000D01*
%TO.N,R*%
X176500000Y-47500000D02*
X181500000Y-52500000D01*
X111880000Y-56760000D02*
X121140000Y-47500000D01*
X121140000Y-47500000D02*
X176500000Y-47500000D01*
%TO.N,B*%
X176500000Y-52375000D02*
X176500000Y-52500000D01*
X123220000Y-50500000D02*
X174625000Y-50500000D01*
X116960000Y-56760000D02*
X116960000Y-56960000D01*
X116960000Y-56760000D02*
X123220000Y-50500000D01*
X174625000Y-50500000D02*
X176500000Y-52375000D01*
%TO.N,G*%
X175500000Y-49000000D02*
X179000000Y-52500000D01*
X114420000Y-56760000D02*
X122180000Y-49000000D01*
X122180000Y-49000000D02*
X175500000Y-49000000D01*
%TO.N,Net-(U1-GPIO5)*%
X189530000Y-66000000D02*
X187725000Y-66000000D01*
X191000000Y-68570000D02*
X191000000Y-67470000D01*
X187725000Y-66000000D02*
X185225000Y-68500000D01*
X185225000Y-68500000D02*
X105220000Y-68500000D01*
X191000000Y-67470000D02*
X189530000Y-66000000D01*
X105220000Y-68500000D02*
X101720000Y-72000000D01*
%TO.N,SCL*%
X134500000Y-77500000D02*
X131500000Y-74500000D01*
X131500000Y-74500000D02*
X114380000Y-74500000D01*
X114380000Y-74500000D02*
X111880000Y-72000000D01*
%TO.N,+3.3V*%
X146500000Y-54500000D02*
X146500000Y-52500000D01*
X147250000Y-54250000D02*
X147250000Y-53250000D01*
X147000000Y-54500000D02*
X147250000Y-54250000D01*
X109040000Y-59000000D02*
X128500000Y-59000000D01*
X147750000Y-53750000D02*
X146500000Y-52500000D01*
X131000000Y-56500000D02*
X145000000Y-56500000D01*
X106800000Y-56760000D02*
X109040000Y-59000000D01*
X146500000Y-54500000D02*
X147000000Y-54500000D01*
X148250000Y-54250000D02*
X147750000Y-53750000D01*
X147250000Y-53250000D02*
X146500000Y-52500000D01*
X188500000Y-59000000D02*
X153000000Y-59000000D01*
X128500000Y-59000000D02*
X131000000Y-56500000D01*
X176000000Y-75000000D02*
X178500000Y-72500000D01*
X193000000Y-72500000D02*
X194500000Y-71000000D01*
X178500000Y-72500000D02*
X193000000Y-72500000D01*
X176000000Y-77500000D02*
X176000000Y-75000000D01*
X145000000Y-56500000D02*
X146500000Y-55000000D01*
X147250000Y-54250000D02*
X147750000Y-53750000D01*
X194500000Y-65000000D02*
X188500000Y-59000000D01*
X146500000Y-55000000D02*
X146500000Y-54500000D01*
X147250000Y-54250000D02*
X148250000Y-54250000D01*
X153000000Y-59000000D02*
X148250000Y-54250000D01*
X146500000Y-55000000D02*
X147250000Y-54250000D01*
X194500000Y-71000000D02*
X194500000Y-65000000D01*
%TO.N,SDA*%
X114840000Y-77500000D02*
X132000000Y-77500000D01*
X109340000Y-72000000D02*
X114840000Y-77500000D01*
%TD*%
%TA.AperFunction,Conductor*%
%TO.N,GND*%
G36*
X147892677Y-55170185D02*
G01*
X147913319Y-55186819D01*
X150114930Y-57388429D01*
X152300536Y-59574035D01*
X152421966Y-59695465D01*
X152425966Y-59699465D01*
X152573446Y-59798009D01*
X152573459Y-59798016D01*
X152655392Y-59831953D01*
X152737334Y-59865894D01*
X152737336Y-59865894D01*
X152737341Y-59865896D01*
X152911304Y-59900499D01*
X152911307Y-59900500D01*
X152911309Y-59900500D01*
X188075638Y-59900500D01*
X188142677Y-59920185D01*
X188163319Y-59936819D01*
X193563181Y-65336680D01*
X193596666Y-65398003D01*
X193599500Y-65424361D01*
X193599500Y-70575638D01*
X193579815Y-70642677D01*
X193563181Y-70663319D01*
X192663319Y-71563181D01*
X192601996Y-71596666D01*
X192575638Y-71599500D01*
X178411303Y-71599500D01*
X178237341Y-71634103D01*
X178237329Y-71634106D01*
X178155392Y-71668045D01*
X178155393Y-71668046D01*
X178073455Y-71701985D01*
X178020553Y-71737334D01*
X178020552Y-71737335D01*
X177925961Y-71800537D01*
X175300537Y-74425961D01*
X175261064Y-74485039D01*
X175261063Y-74485040D01*
X175201985Y-74573455D01*
X175168046Y-74655393D01*
X175134106Y-74737330D01*
X175134103Y-74737342D01*
X175120284Y-74806814D01*
X175120285Y-74806815D01*
X175099500Y-74911311D01*
X175099500Y-76314242D01*
X175079815Y-76381281D01*
X175063181Y-76401923D01*
X174969894Y-76495209D01*
X174969890Y-76495214D01*
X174850318Y-76659793D01*
X174794989Y-76702459D01*
X174725375Y-76708438D01*
X174663580Y-76675833D01*
X174649682Y-76659793D01*
X174530109Y-76495214D01*
X174530105Y-76495209D01*
X174379786Y-76344890D01*
X174207820Y-76219951D01*
X174018414Y-76123444D01*
X174018413Y-76123443D01*
X174018412Y-76123443D01*
X173816243Y-76057754D01*
X173816241Y-76057753D01*
X173816240Y-76057753D01*
X173654957Y-76032208D01*
X173606287Y-76024500D01*
X173393713Y-76024500D01*
X173345042Y-76032208D01*
X173183760Y-76057753D01*
X172981585Y-76123444D01*
X172792179Y-76219951D01*
X172620213Y-76344890D01*
X172469890Y-76495213D01*
X172344951Y-76667179D01*
X172248444Y-76856585D01*
X172182753Y-77058760D01*
X172173069Y-77119905D01*
X172149500Y-77268713D01*
X172149500Y-77731287D01*
X172182754Y-77941243D01*
X172193722Y-77975000D01*
X172248444Y-78143414D01*
X172344951Y-78332820D01*
X172469890Y-78504786D01*
X172620213Y-78655109D01*
X172792179Y-78780048D01*
X172792181Y-78780049D01*
X172792184Y-78780051D01*
X172981588Y-78876557D01*
X173183757Y-78942246D01*
X173393713Y-78975500D01*
X173393714Y-78975500D01*
X173606286Y-78975500D01*
X173606287Y-78975500D01*
X173816243Y-78942246D01*
X174018412Y-78876557D01*
X174207816Y-78780051D01*
X174229789Y-78764086D01*
X174379786Y-78655109D01*
X174379788Y-78655106D01*
X174379792Y-78655104D01*
X174530104Y-78504792D01*
X174649683Y-78340204D01*
X174705011Y-78297540D01*
X174774624Y-78291561D01*
X174836420Y-78324166D01*
X174850313Y-78340199D01*
X174895793Y-78402797D01*
X174969896Y-78504792D01*
X175120213Y-78655109D01*
X175292179Y-78780048D01*
X175292181Y-78780049D01*
X175292184Y-78780051D01*
X175481588Y-78876557D01*
X175683757Y-78942246D01*
X175893713Y-78975500D01*
X175893714Y-78975500D01*
X176106286Y-78975500D01*
X176106287Y-78975500D01*
X176316243Y-78942246D01*
X176518412Y-78876557D01*
X176707816Y-78780051D01*
X176729789Y-78764086D01*
X176879786Y-78655109D01*
X176879788Y-78655106D01*
X176879792Y-78655104D01*
X177030104Y-78504792D01*
X177149683Y-78340204D01*
X177205011Y-78297540D01*
X177274624Y-78291561D01*
X177336420Y-78324166D01*
X177350313Y-78340199D01*
X177395793Y-78402797D01*
X177469896Y-78504792D01*
X177620213Y-78655109D01*
X177792179Y-78780048D01*
X177792181Y-78780049D01*
X177792184Y-78780051D01*
X177981588Y-78876557D01*
X178183757Y-78942246D01*
X178393713Y-78975500D01*
X178393714Y-78975500D01*
X178606286Y-78975500D01*
X178606287Y-78975500D01*
X178816243Y-78942246D01*
X179018412Y-78876557D01*
X179207816Y-78780051D01*
X179292320Y-78718656D01*
X179379784Y-78655110D01*
X179379784Y-78655109D01*
X179379792Y-78655104D01*
X179518967Y-78515928D01*
X179580286Y-78482446D01*
X179649978Y-78487430D01*
X179705912Y-78529301D01*
X179712184Y-78538515D01*
X179807684Y-78693345D01*
X179931654Y-78817315D01*
X180080875Y-78909356D01*
X180080880Y-78909358D01*
X180247302Y-78964505D01*
X180247309Y-78964506D01*
X180350019Y-78974999D01*
X180749999Y-78974999D01*
X180750000Y-78974998D01*
X180750000Y-77904145D01*
X180816657Y-77942630D01*
X180937465Y-77975000D01*
X181062535Y-77975000D01*
X181183343Y-77942630D01*
X181250000Y-77904145D01*
X181250000Y-78974999D01*
X181649972Y-78974999D01*
X181649986Y-78974998D01*
X181752697Y-78964505D01*
X181919119Y-78909358D01*
X181919124Y-78909356D01*
X182068345Y-78817315D01*
X182192315Y-78693345D01*
X182284356Y-78544124D01*
X182284358Y-78544119D01*
X182339505Y-78377697D01*
X182339506Y-78377690D01*
X182349999Y-78274986D01*
X182350000Y-78274973D01*
X182350000Y-77750000D01*
X181404146Y-77750000D01*
X181442630Y-77683343D01*
X181475000Y-77562535D01*
X181475000Y-77437465D01*
X181442630Y-77316657D01*
X181404146Y-77250000D01*
X182349999Y-77250000D01*
X182349999Y-76725028D01*
X182349998Y-76725013D01*
X182339505Y-76622302D01*
X182284358Y-76455880D01*
X182284356Y-76455875D01*
X182192315Y-76306654D01*
X182068345Y-76182684D01*
X181919124Y-76090643D01*
X181919119Y-76090641D01*
X181752697Y-76035494D01*
X181752690Y-76035493D01*
X181649986Y-76025000D01*
X181250000Y-76025000D01*
X181250000Y-77095854D01*
X181183343Y-77057370D01*
X181062535Y-77025000D01*
X180937465Y-77025000D01*
X180816657Y-77057370D01*
X180750000Y-77095854D01*
X180750000Y-76025000D01*
X180350028Y-76025000D01*
X180350012Y-76025001D01*
X180247302Y-76035494D01*
X180080880Y-76090641D01*
X180080875Y-76090643D01*
X179931654Y-76182684D01*
X179807683Y-76306655D01*
X179807680Y-76306659D01*
X179712183Y-76461484D01*
X179660235Y-76508209D01*
X179591273Y-76519430D01*
X179527191Y-76491587D01*
X179518964Y-76484068D01*
X179379786Y-76344890D01*
X179207820Y-76219951D01*
X179018414Y-76123444D01*
X179018413Y-76123443D01*
X179018412Y-76123443D01*
X178816243Y-76057754D01*
X178816241Y-76057753D01*
X178816240Y-76057753D01*
X178654957Y-76032208D01*
X178606287Y-76024500D01*
X178393713Y-76024500D01*
X178345042Y-76032208D01*
X178183760Y-76057753D01*
X177981585Y-76123444D01*
X177792179Y-76219951D01*
X177620213Y-76344890D01*
X177469894Y-76495209D01*
X177469890Y-76495214D01*
X177350318Y-76659793D01*
X177294989Y-76702459D01*
X177225375Y-76708438D01*
X177163580Y-76675833D01*
X177149682Y-76659793D01*
X177030109Y-76495214D01*
X177030105Y-76495209D01*
X176936819Y-76401923D01*
X176903334Y-76340600D01*
X176900500Y-76314242D01*
X176900500Y-75424362D01*
X176920185Y-75357323D01*
X176936819Y-75336681D01*
X178836681Y-73436819D01*
X178898004Y-73403334D01*
X178924362Y-73400500D01*
X193088693Y-73400500D01*
X193088694Y-73400499D01*
X193262666Y-73365895D01*
X193344606Y-73331953D01*
X193426547Y-73298013D01*
X193514959Y-73238936D01*
X193574036Y-73199464D01*
X195199463Y-71574036D01*
X195199853Y-71573453D01*
X195272398Y-71464883D01*
X195326011Y-71420078D01*
X195395336Y-71411371D01*
X195458363Y-71441526D01*
X195495082Y-71500969D01*
X195499500Y-71533774D01*
X195499500Y-74375500D01*
X195479815Y-74442539D01*
X195427011Y-74488294D01*
X195375500Y-74499500D01*
X188429813Y-74499500D01*
X188422184Y-74500000D01*
X188000000Y-74500000D01*
X188000000Y-74922185D01*
X187999500Y-74929815D01*
X187999500Y-81875500D01*
X187979815Y-81942539D01*
X187927011Y-81988294D01*
X187875500Y-81999500D01*
X108124500Y-81999500D01*
X108057461Y-81979815D01*
X108011706Y-81927011D01*
X108000500Y-81875500D01*
X108000500Y-74929815D01*
X108000000Y-74922185D01*
X108000000Y-74500000D01*
X107577816Y-74500000D01*
X107570187Y-74499500D01*
X107565892Y-74499500D01*
X100624500Y-74499500D01*
X100557461Y-74479815D01*
X100511706Y-74427011D01*
X100500500Y-74375500D01*
X100500500Y-72701314D01*
X100520185Y-72634275D01*
X100572989Y-72588520D01*
X100642147Y-72578576D01*
X100705703Y-72607601D01*
X100724814Y-72628424D01*
X100777772Y-72701314D01*
X100824141Y-72765136D01*
X100954865Y-72895860D01*
X100954870Y-72895864D01*
X101085318Y-72990639D01*
X101104428Y-73004523D01*
X101212106Y-73059388D01*
X101269147Y-73088452D01*
X101269150Y-73088453D01*
X101444969Y-73145580D01*
X101627560Y-73174500D01*
X101627565Y-73174500D01*
X101812440Y-73174500D01*
X101995030Y-73145580D01*
X102170849Y-73088453D01*
X102170852Y-73088452D01*
X102335572Y-73004523D01*
X102485136Y-72895859D01*
X102615859Y-72765136D01*
X102724523Y-72615572D01*
X102808452Y-72450852D01*
X102865580Y-72275029D01*
X102867526Y-72262740D01*
X102897450Y-72199607D01*
X102956760Y-72162672D01*
X103026622Y-72163666D01*
X103084857Y-72202272D01*
X103112471Y-72262730D01*
X103114419Y-72275028D01*
X103171546Y-72450849D01*
X103171547Y-72450852D01*
X103228588Y-72562799D01*
X103241693Y-72588520D01*
X103255479Y-72615575D01*
X103364135Y-72765129D01*
X103364139Y-72765134D01*
X103494865Y-72895860D01*
X103494870Y-72895864D01*
X103625318Y-72990639D01*
X103644428Y-73004523D01*
X103752106Y-73059388D01*
X103809147Y-73088452D01*
X103809150Y-73088453D01*
X103984969Y-73145580D01*
X104167560Y-73174500D01*
X104167565Y-73174500D01*
X104352440Y-73174500D01*
X104535030Y-73145580D01*
X104710849Y-73088453D01*
X104710852Y-73088452D01*
X104875572Y-73004523D01*
X105025136Y-72895859D01*
X105155859Y-72765136D01*
X105264523Y-72615572D01*
X105348452Y-72450852D01*
X105405580Y-72275029D01*
X105407527Y-72262737D01*
X105437456Y-72199602D01*
X105496768Y-72162671D01*
X105566630Y-72163669D01*
X105624863Y-72202279D01*
X105652473Y-72262737D01*
X105654420Y-72275030D01*
X105711546Y-72450849D01*
X105711547Y-72450852D01*
X105768588Y-72562799D01*
X105781693Y-72588520D01*
X105795479Y-72615575D01*
X105904135Y-72765129D01*
X105904139Y-72765134D01*
X106034865Y-72895860D01*
X106034870Y-72895864D01*
X106165318Y-72990639D01*
X106184428Y-73004523D01*
X106292106Y-73059388D01*
X106349147Y-73088452D01*
X106349150Y-73088453D01*
X106524969Y-73145580D01*
X106707560Y-73174500D01*
X106707565Y-73174500D01*
X106892440Y-73174500D01*
X107075030Y-73145580D01*
X107250849Y-73088453D01*
X107250852Y-73088452D01*
X107415572Y-73004523D01*
X107565136Y-72895859D01*
X107695859Y-72765136D01*
X107804523Y-72615572D01*
X107888452Y-72450852D01*
X107945580Y-72275029D01*
X107947527Y-72262737D01*
X107977456Y-72199602D01*
X108036768Y-72162671D01*
X108106630Y-72163669D01*
X108164863Y-72202279D01*
X108192473Y-72262737D01*
X108194420Y-72275030D01*
X108251546Y-72450849D01*
X108251547Y-72450852D01*
X108308588Y-72562799D01*
X108321693Y-72588520D01*
X108335479Y-72615575D01*
X108444135Y-72765129D01*
X108444139Y-72765134D01*
X108574865Y-72895860D01*
X108574870Y-72895864D01*
X108705318Y-72990639D01*
X108724428Y-73004523D01*
X108832106Y-73059388D01*
X108889147Y-73088452D01*
X108889150Y-73088453D01*
X109064970Y-73145580D01*
X109124120Y-73154948D01*
X109199969Y-73166961D01*
X109263104Y-73196890D01*
X109268253Y-73201753D01*
X114140536Y-78074035D01*
X114265965Y-78199464D01*
X114413453Y-78298013D01*
X114413454Y-78298013D01*
X114413455Y-78298014D01*
X114461452Y-78317895D01*
X114577334Y-78365895D01*
X114751304Y-78400499D01*
X114751308Y-78400500D01*
X114751309Y-78400500D01*
X114928692Y-78400500D01*
X130830942Y-78400500D01*
X130897981Y-78420185D01*
X130931260Y-78451615D01*
X130969890Y-78504786D01*
X131120213Y-78655109D01*
X131292179Y-78780048D01*
X131292181Y-78780049D01*
X131292184Y-78780051D01*
X131481588Y-78876557D01*
X131683757Y-78942246D01*
X131893713Y-78975500D01*
X131893714Y-78975500D01*
X132106286Y-78975500D01*
X132106287Y-78975500D01*
X132316243Y-78942246D01*
X132518412Y-78876557D01*
X132707816Y-78780051D01*
X132729789Y-78764086D01*
X132879786Y-78655109D01*
X132879788Y-78655106D01*
X132879792Y-78655104D01*
X133030104Y-78504792D01*
X133149683Y-78340204D01*
X133205011Y-78297540D01*
X133274624Y-78291561D01*
X133336420Y-78324166D01*
X133350313Y-78340199D01*
X133395793Y-78402797D01*
X133469896Y-78504792D01*
X133620213Y-78655109D01*
X133792179Y-78780048D01*
X133792181Y-78780049D01*
X133792184Y-78780051D01*
X133981588Y-78876557D01*
X134183757Y-78942246D01*
X134393713Y-78975500D01*
X134393714Y-78975500D01*
X134606286Y-78975500D01*
X134606287Y-78975500D01*
X134816243Y-78942246D01*
X135018412Y-78876557D01*
X135207816Y-78780051D01*
X135229789Y-78764086D01*
X135379786Y-78655109D01*
X135379788Y-78655106D01*
X135379792Y-78655104D01*
X135530104Y-78504792D01*
X135649683Y-78340204D01*
X135705011Y-78297540D01*
X135774624Y-78291561D01*
X135836420Y-78324166D01*
X135850313Y-78340199D01*
X135895793Y-78402797D01*
X135969896Y-78504792D01*
X136120213Y-78655109D01*
X136292179Y-78780048D01*
X136292181Y-78780049D01*
X136292184Y-78780051D01*
X136481588Y-78876557D01*
X136683757Y-78942246D01*
X136893713Y-78975500D01*
X136893714Y-78975500D01*
X137106286Y-78975500D01*
X137106287Y-78975500D01*
X137316243Y-78942246D01*
X137518412Y-78876557D01*
X137707816Y-78780051D01*
X137792320Y-78718656D01*
X137879784Y-78655110D01*
X137879784Y-78655109D01*
X137879792Y-78655104D01*
X138018967Y-78515928D01*
X138080286Y-78482446D01*
X138149978Y-78487430D01*
X138205912Y-78529301D01*
X138212184Y-78538515D01*
X138307684Y-78693345D01*
X138431654Y-78817315D01*
X138580875Y-78909356D01*
X138580880Y-78909358D01*
X138747302Y-78964505D01*
X138747309Y-78964506D01*
X138850019Y-78974999D01*
X139249999Y-78974999D01*
X139250000Y-78974998D01*
X139250000Y-77904145D01*
X139316657Y-77942630D01*
X139437465Y-77975000D01*
X139562535Y-77975000D01*
X139683343Y-77942630D01*
X139750000Y-77904145D01*
X139750000Y-78974999D01*
X140149972Y-78974999D01*
X140149986Y-78974998D01*
X140252697Y-78964505D01*
X140419119Y-78909358D01*
X140419124Y-78909356D01*
X140568345Y-78817315D01*
X140692315Y-78693345D01*
X140784356Y-78544124D01*
X140784358Y-78544119D01*
X140839505Y-78377697D01*
X140839506Y-78377690D01*
X140849999Y-78274986D01*
X140850000Y-78274973D01*
X140850000Y-77750000D01*
X139904146Y-77750000D01*
X139942630Y-77683343D01*
X139975000Y-77562535D01*
X139975000Y-77437465D01*
X139942630Y-77316657D01*
X139904146Y-77250000D01*
X140849999Y-77250000D01*
X140849999Y-77243713D01*
X152649500Y-77243713D01*
X152649500Y-77756286D01*
X152678793Y-77941239D01*
X152682754Y-77966243D01*
X152685599Y-77975000D01*
X152748444Y-78168414D01*
X152844951Y-78357820D01*
X152969890Y-78529786D01*
X153120213Y-78680109D01*
X153292179Y-78805048D01*
X153292181Y-78805049D01*
X153292184Y-78805051D01*
X153481588Y-78901557D01*
X153683757Y-78967246D01*
X153893713Y-79000500D01*
X153893714Y-79000500D01*
X154106286Y-79000500D01*
X154106287Y-79000500D01*
X154316243Y-78967246D01*
X154518412Y-78901557D01*
X154707816Y-78805051D01*
X154879792Y-78680104D01*
X155018604Y-78541291D01*
X155079923Y-78507809D01*
X155149615Y-78512793D01*
X155205549Y-78554664D01*
X155211821Y-78563878D01*
X155215185Y-78569333D01*
X155215186Y-78569334D01*
X155307288Y-78718656D01*
X155431344Y-78842712D01*
X155580666Y-78934814D01*
X155747203Y-78989999D01*
X155849991Y-79000500D01*
X157150008Y-79000499D01*
X157252797Y-78989999D01*
X157419334Y-78934814D01*
X157568656Y-78842712D01*
X157692712Y-78718656D01*
X157784814Y-78569334D01*
X157839999Y-78402797D01*
X157850500Y-78300009D01*
X157850499Y-76699992D01*
X157839999Y-76597203D01*
X157784814Y-76430666D01*
X157692712Y-76281344D01*
X157568656Y-76157288D01*
X157419334Y-76065186D01*
X157252797Y-76010001D01*
X157252795Y-76010000D01*
X157150010Y-75999500D01*
X155849998Y-75999500D01*
X155849981Y-75999501D01*
X155747203Y-76010000D01*
X155747200Y-76010001D01*
X155580668Y-76065185D01*
X155580663Y-76065187D01*
X155431342Y-76157289D01*
X155307289Y-76281342D01*
X155211821Y-76436121D01*
X155159873Y-76482845D01*
X155090910Y-76494068D01*
X155026828Y-76466224D01*
X155018601Y-76458705D01*
X154879786Y-76319890D01*
X154707820Y-76194951D01*
X154518414Y-76098444D01*
X154518413Y-76098443D01*
X154518412Y-76098443D01*
X154316243Y-76032754D01*
X154316241Y-76032753D01*
X154316240Y-76032753D01*
X154154957Y-76007208D01*
X154106287Y-75999500D01*
X153893713Y-75999500D01*
X153845042Y-76007208D01*
X153683760Y-76032753D01*
X153606818Y-76057753D01*
X153547663Y-76076974D01*
X153481585Y-76098444D01*
X153292179Y-76194951D01*
X153120213Y-76319890D01*
X152969890Y-76470213D01*
X152844951Y-76642179D01*
X152748444Y-76831585D01*
X152682753Y-77033760D01*
X152649500Y-77243713D01*
X140849999Y-77243713D01*
X140849999Y-76725028D01*
X140849998Y-76725013D01*
X140839505Y-76622302D01*
X140784358Y-76455880D01*
X140784356Y-76455875D01*
X140692315Y-76306654D01*
X140568345Y-76182684D01*
X140419124Y-76090643D01*
X140419119Y-76090641D01*
X140252697Y-76035494D01*
X140252690Y-76035493D01*
X140149986Y-76025000D01*
X139750000Y-76025000D01*
X139750000Y-77095854D01*
X139683343Y-77057370D01*
X139562535Y-77025000D01*
X139437465Y-77025000D01*
X139316657Y-77057370D01*
X139250000Y-77095854D01*
X139250000Y-76025000D01*
X138850028Y-76025000D01*
X138850012Y-76025001D01*
X138747302Y-76035494D01*
X138580880Y-76090641D01*
X138580875Y-76090643D01*
X138431654Y-76182684D01*
X138307683Y-76306655D01*
X138307680Y-76306659D01*
X138212183Y-76461484D01*
X138160235Y-76508209D01*
X138091273Y-76519430D01*
X138027191Y-76491587D01*
X138018964Y-76484068D01*
X137879786Y-76344890D01*
X137707820Y-76219951D01*
X137518414Y-76123444D01*
X137518413Y-76123443D01*
X137518412Y-76123443D01*
X137316243Y-76057754D01*
X137316241Y-76057753D01*
X137316240Y-76057753D01*
X137154957Y-76032208D01*
X137106287Y-76024500D01*
X136893713Y-76024500D01*
X136845042Y-76032208D01*
X136683760Y-76057753D01*
X136481585Y-76123444D01*
X136292179Y-76219951D01*
X136120213Y-76344890D01*
X135969894Y-76495209D01*
X135969890Y-76495214D01*
X135850318Y-76659793D01*
X135794989Y-76702459D01*
X135725375Y-76708438D01*
X135663580Y-76675833D01*
X135649682Y-76659793D01*
X135530109Y-76495214D01*
X135530105Y-76495209D01*
X135379786Y-76344890D01*
X135207820Y-76219951D01*
X135018414Y-76123444D01*
X135018413Y-76123443D01*
X135018412Y-76123443D01*
X134816243Y-76057754D01*
X134816241Y-76057753D01*
X134816240Y-76057753D01*
X134654957Y-76032208D01*
X134606287Y-76024500D01*
X134393713Y-76024500D01*
X134393712Y-76024500D01*
X134373487Y-76027703D01*
X134304193Y-76018747D01*
X134266410Y-75992910D01*
X132074035Y-73800535D01*
X132074030Y-73800531D01*
X132019622Y-73764178D01*
X132019616Y-73764175D01*
X132014959Y-73761063D01*
X131926547Y-73701987D01*
X131844606Y-73668046D01*
X131762666Y-73634105D01*
X131762658Y-73634103D01*
X131588696Y-73599500D01*
X131588692Y-73599500D01*
X131588691Y-73599500D01*
X114804362Y-73599500D01*
X114737323Y-73579815D01*
X114716681Y-73563181D01*
X114525301Y-73371801D01*
X114491816Y-73310478D01*
X114496800Y-73240786D01*
X114538672Y-73184853D01*
X114593584Y-73161647D01*
X114695029Y-73145580D01*
X114870852Y-73088452D01*
X115035572Y-73004523D01*
X115185136Y-72895859D01*
X115315859Y-72765136D01*
X115424523Y-72615572D01*
X115508452Y-72450852D01*
X115565580Y-72275029D01*
X115567527Y-72262737D01*
X115597456Y-72199602D01*
X115656768Y-72162671D01*
X115726630Y-72163669D01*
X115784863Y-72202279D01*
X115812473Y-72262737D01*
X115814420Y-72275030D01*
X115871546Y-72450849D01*
X115871547Y-72450852D01*
X115928588Y-72562799D01*
X115941693Y-72588520D01*
X115955479Y-72615575D01*
X116064135Y-72765129D01*
X116064139Y-72765134D01*
X116194865Y-72895860D01*
X116194870Y-72895864D01*
X116325318Y-72990639D01*
X116344428Y-73004523D01*
X116452106Y-73059388D01*
X116509147Y-73088452D01*
X116509150Y-73088453D01*
X116684969Y-73145580D01*
X116867560Y-73174500D01*
X116867565Y-73174500D01*
X117052440Y-73174500D01*
X117235030Y-73145580D01*
X117410849Y-73088453D01*
X117410852Y-73088452D01*
X117575572Y-73004523D01*
X117725136Y-72895859D01*
X117855859Y-72765136D01*
X117964523Y-72615572D01*
X118048452Y-72450852D01*
X118105580Y-72275029D01*
X118107527Y-72262737D01*
X118137456Y-72199602D01*
X118196768Y-72162671D01*
X118266630Y-72163669D01*
X118324863Y-72202279D01*
X118352473Y-72262737D01*
X118354420Y-72275030D01*
X118411546Y-72450849D01*
X118411547Y-72450852D01*
X118468588Y-72562799D01*
X118481693Y-72588520D01*
X118495479Y-72615575D01*
X118604135Y-72765129D01*
X118604139Y-72765134D01*
X118734865Y-72895860D01*
X118734870Y-72895864D01*
X118865318Y-72990639D01*
X118884428Y-73004523D01*
X118992106Y-73059388D01*
X119049147Y-73088452D01*
X119049150Y-73088453D01*
X119224969Y-73145580D01*
X119407560Y-73174500D01*
X119407565Y-73174500D01*
X119592440Y-73174500D01*
X119775030Y-73145580D01*
X119950849Y-73088453D01*
X119950852Y-73088452D01*
X120115572Y-73004523D01*
X120265136Y-72895859D01*
X120395859Y-72765136D01*
X120504523Y-72615572D01*
X120588452Y-72450852D01*
X120645579Y-72275032D01*
X120645580Y-72275030D01*
X120674500Y-72092440D01*
X120674500Y-71907559D01*
X120645580Y-71724969D01*
X120588453Y-71549150D01*
X120588452Y-71549147D01*
X120545517Y-71464883D01*
X120504523Y-71384428D01*
X120462633Y-71326771D01*
X120395864Y-71234870D01*
X120395860Y-71234865D01*
X120265134Y-71104139D01*
X120265129Y-71104135D01*
X120115575Y-70995479D01*
X120115574Y-70995478D01*
X120115572Y-70995477D01*
X120062799Y-70968588D01*
X119950852Y-70911547D01*
X119950849Y-70911546D01*
X119775030Y-70854419D01*
X119592440Y-70825500D01*
X119592435Y-70825500D01*
X119407565Y-70825500D01*
X119407560Y-70825500D01*
X119224969Y-70854419D01*
X119049150Y-70911546D01*
X119049147Y-70911547D01*
X118884424Y-70995479D01*
X118734870Y-71104135D01*
X118734865Y-71104139D01*
X118604139Y-71234865D01*
X118604135Y-71234870D01*
X118495479Y-71384424D01*
X118411547Y-71549147D01*
X118411546Y-71549150D01*
X118354420Y-71724969D01*
X118352473Y-71737263D01*
X118322543Y-71800397D01*
X118263231Y-71837328D01*
X118193369Y-71836330D01*
X118135136Y-71797719D01*
X118107527Y-71737263D01*
X118107192Y-71735150D01*
X118105580Y-71724971D01*
X118064812Y-71599500D01*
X118048453Y-71549150D01*
X118048452Y-71549147D01*
X118005517Y-71464883D01*
X117964523Y-71384428D01*
X117922633Y-71326771D01*
X117855864Y-71234870D01*
X117855860Y-71234865D01*
X117725134Y-71104139D01*
X117725129Y-71104135D01*
X117575575Y-70995479D01*
X117575574Y-70995478D01*
X117575572Y-70995477D01*
X117522799Y-70968588D01*
X117410852Y-70911547D01*
X117410849Y-70911546D01*
X117235030Y-70854419D01*
X117052440Y-70825500D01*
X117052435Y-70825500D01*
X116867565Y-70825500D01*
X116867560Y-70825500D01*
X116684969Y-70854419D01*
X116509150Y-70911546D01*
X116509147Y-70911547D01*
X116344424Y-70995479D01*
X116194870Y-71104135D01*
X116194865Y-71104139D01*
X116064139Y-71234865D01*
X116064135Y-71234870D01*
X115955479Y-71384424D01*
X115871547Y-71549147D01*
X115871546Y-71549150D01*
X115814420Y-71724969D01*
X115812473Y-71737263D01*
X115782543Y-71800397D01*
X115723231Y-71837328D01*
X115653369Y-71836330D01*
X115595136Y-71797719D01*
X115567527Y-71737263D01*
X115567192Y-71735150D01*
X115565580Y-71724971D01*
X115524812Y-71599500D01*
X115508453Y-71549150D01*
X115508452Y-71549147D01*
X115465517Y-71464883D01*
X115424523Y-71384428D01*
X115382633Y-71326771D01*
X115315864Y-71234870D01*
X115315860Y-71234865D01*
X115185134Y-71104139D01*
X115185129Y-71104135D01*
X115035575Y-70995479D01*
X115035574Y-70995478D01*
X115035572Y-70995477D01*
X114982799Y-70968588D01*
X114870852Y-70911547D01*
X114870849Y-70911546D01*
X114695030Y-70854419D01*
X114512440Y-70825500D01*
X114512435Y-70825500D01*
X114327565Y-70825500D01*
X114327560Y-70825500D01*
X114144969Y-70854419D01*
X113969150Y-70911546D01*
X113969147Y-70911547D01*
X113804424Y-70995479D01*
X113654870Y-71104135D01*
X113654865Y-71104139D01*
X113524139Y-71234865D01*
X113524135Y-71234870D01*
X113415479Y-71384424D01*
X113331547Y-71549147D01*
X113331546Y-71549150D01*
X113274419Y-71724970D01*
X113272471Y-71737270D01*
X113242537Y-71800403D01*
X113183224Y-71837330D01*
X113113361Y-71836328D01*
X113055131Y-71797714D01*
X113027526Y-71737258D01*
X113025580Y-71724971D01*
X113007084Y-71668045D01*
X112968453Y-71549150D01*
X112968452Y-71549147D01*
X112925517Y-71464883D01*
X112884523Y-71384428D01*
X112842633Y-71326771D01*
X112775864Y-71234870D01*
X112775860Y-71234865D01*
X112645134Y-71104139D01*
X112645129Y-71104135D01*
X112495575Y-70995479D01*
X112495574Y-70995478D01*
X112495572Y-70995477D01*
X112442799Y-70968588D01*
X112330852Y-70911547D01*
X112330849Y-70911546D01*
X112155030Y-70854419D01*
X111972440Y-70825500D01*
X111972435Y-70825500D01*
X111787565Y-70825500D01*
X111787560Y-70825500D01*
X111604969Y-70854419D01*
X111429150Y-70911546D01*
X111429147Y-70911547D01*
X111264424Y-70995479D01*
X111114870Y-71104135D01*
X111114865Y-71104139D01*
X110984139Y-71234865D01*
X110984135Y-71234870D01*
X110875479Y-71384424D01*
X110791547Y-71549147D01*
X110791546Y-71549150D01*
X110734419Y-71724970D01*
X110732471Y-71737270D01*
X110702537Y-71800403D01*
X110643224Y-71837330D01*
X110573361Y-71836328D01*
X110515131Y-71797714D01*
X110487526Y-71737258D01*
X110485580Y-71724971D01*
X110467084Y-71668045D01*
X110428453Y-71549150D01*
X110428452Y-71549147D01*
X110385517Y-71464883D01*
X110344523Y-71384428D01*
X110302633Y-71326771D01*
X110235864Y-71234870D01*
X110235860Y-71234865D01*
X110105134Y-71104139D01*
X110105129Y-71104135D01*
X109955575Y-70995479D01*
X109955574Y-70995478D01*
X109955572Y-70995477D01*
X109902799Y-70968588D01*
X109790852Y-70911547D01*
X109790849Y-70911546D01*
X109615030Y-70854419D01*
X109432440Y-70825500D01*
X109432435Y-70825500D01*
X109247565Y-70825500D01*
X109247560Y-70825500D01*
X109064969Y-70854419D01*
X108889150Y-70911546D01*
X108889147Y-70911547D01*
X108724424Y-70995479D01*
X108574870Y-71104135D01*
X108574865Y-71104139D01*
X108444139Y-71234865D01*
X108444135Y-71234870D01*
X108335479Y-71384424D01*
X108251547Y-71549147D01*
X108251546Y-71549150D01*
X108194420Y-71724969D01*
X108192473Y-71737263D01*
X108162543Y-71800397D01*
X108103231Y-71837328D01*
X108033369Y-71836330D01*
X107975136Y-71797719D01*
X107947527Y-71737263D01*
X107947192Y-71735150D01*
X107945580Y-71724971D01*
X107904812Y-71599500D01*
X107888453Y-71549150D01*
X107888452Y-71549147D01*
X107845517Y-71464883D01*
X107804523Y-71384428D01*
X107762633Y-71326771D01*
X107695864Y-71234870D01*
X107695860Y-71234865D01*
X107565134Y-71104139D01*
X107565129Y-71104135D01*
X107415575Y-70995479D01*
X107415574Y-70995478D01*
X107415572Y-70995477D01*
X107362799Y-70968588D01*
X107250852Y-70911547D01*
X107250849Y-70911546D01*
X107075030Y-70854419D01*
X106892440Y-70825500D01*
X106892435Y-70825500D01*
X106707565Y-70825500D01*
X106707560Y-70825500D01*
X106524969Y-70854419D01*
X106349150Y-70911546D01*
X106349147Y-70911547D01*
X106184424Y-70995479D01*
X106034870Y-71104135D01*
X106034865Y-71104139D01*
X105904139Y-71234865D01*
X105904135Y-71234870D01*
X105795479Y-71384424D01*
X105711547Y-71549147D01*
X105711546Y-71549150D01*
X105654420Y-71724969D01*
X105652473Y-71737263D01*
X105622543Y-71800397D01*
X105563231Y-71837328D01*
X105493369Y-71836330D01*
X105435136Y-71797719D01*
X105407527Y-71737263D01*
X105407192Y-71735150D01*
X105405580Y-71724971D01*
X105364812Y-71599500D01*
X105348453Y-71549150D01*
X105348452Y-71549147D01*
X105305517Y-71464883D01*
X105264523Y-71384428D01*
X105222633Y-71326771D01*
X105155864Y-71234870D01*
X105155860Y-71234865D01*
X105025134Y-71104139D01*
X105025129Y-71104135D01*
X104875575Y-70995479D01*
X104875574Y-70995478D01*
X104875572Y-70995477D01*
X104822799Y-70968588D01*
X104710852Y-70911547D01*
X104710849Y-70911546D01*
X104535030Y-70854419D01*
X104433583Y-70838352D01*
X104370448Y-70808423D01*
X104333517Y-70749111D01*
X104334515Y-70679248D01*
X104365298Y-70628200D01*
X105556680Y-69436819D01*
X105618003Y-69403334D01*
X105644361Y-69400500D01*
X185313693Y-69400500D01*
X185313694Y-69400499D01*
X185487666Y-69365895D01*
X185569606Y-69331953D01*
X185651547Y-69298013D01*
X185739959Y-69238936D01*
X185799036Y-69199464D01*
X188061681Y-66936819D01*
X188123004Y-66903334D01*
X188149362Y-66900500D01*
X189105638Y-66900500D01*
X189172677Y-66920185D01*
X189193319Y-66936819D01*
X189430518Y-67174018D01*
X189464003Y-67235341D01*
X189459019Y-67305033D01*
X189417147Y-67360966D01*
X189390289Y-67376260D01*
X189244486Y-67436652D01*
X189244473Y-67436659D01*
X189076600Y-67548829D01*
X189076596Y-67548832D01*
X188933832Y-67691596D01*
X188933829Y-67691600D01*
X188821659Y-67859473D01*
X188821652Y-67859486D01*
X188744390Y-68046016D01*
X188744387Y-68046025D01*
X188705000Y-68244041D01*
X188705000Y-68320000D01*
X189449670Y-68320000D01*
X189429925Y-68339745D01*
X189380556Y-68425255D01*
X189355000Y-68520630D01*
X189355000Y-68619370D01*
X189380556Y-68714745D01*
X189429925Y-68800255D01*
X189449670Y-68820000D01*
X188705000Y-68820000D01*
X188705000Y-68895958D01*
X188744387Y-69093974D01*
X188744390Y-69093983D01*
X188821652Y-69280513D01*
X188821659Y-69280526D01*
X188933829Y-69448399D01*
X188933832Y-69448403D01*
X189076596Y-69591167D01*
X189076600Y-69591170D01*
X189244473Y-69703340D01*
X189244486Y-69703347D01*
X189431016Y-69780609D01*
X189431025Y-69780612D01*
X189480000Y-69790353D01*
X189480000Y-68850330D01*
X189499745Y-68870075D01*
X189585255Y-68919444D01*
X189680630Y-68945000D01*
X189779370Y-68945000D01*
X189874745Y-68919444D01*
X189960255Y-68870075D01*
X189974500Y-68855830D01*
X189974500Y-68896003D01*
X189979722Y-68922259D01*
X189979968Y-68933046D01*
X189979788Y-68933714D01*
X189980000Y-68935865D01*
X189980000Y-69790352D01*
X190028974Y-69780612D01*
X190028983Y-69780609D01*
X190215515Y-69703346D01*
X190215518Y-69703344D01*
X190295658Y-69649796D01*
X190362335Y-69628917D01*
X190429716Y-69647401D01*
X190433422Y-69649783D01*
X190514244Y-69703786D01*
X190700873Y-69781091D01*
X190866777Y-69814091D01*
X190898992Y-69820499D01*
X190898996Y-69820500D01*
X190898997Y-69820500D01*
X191101004Y-69820500D01*
X191101005Y-69820499D01*
X191299127Y-69781091D01*
X191300284Y-69780612D01*
X191342879Y-69762968D01*
X191379798Y-69747674D01*
X191449267Y-69740205D01*
X191494658Y-69759962D01*
X191494886Y-69759546D01*
X191499540Y-69762087D01*
X191501562Y-69762967D01*
X191502669Y-69763796D01*
X191502670Y-69763796D01*
X191502671Y-69763797D01*
X191637517Y-69814091D01*
X191637516Y-69814091D01*
X191644444Y-69814835D01*
X191697127Y-69820500D01*
X192842872Y-69820499D01*
X192902483Y-69814091D01*
X193037331Y-69763796D01*
X193152546Y-69677546D01*
X193238796Y-69562331D01*
X193289091Y-69427483D01*
X193295500Y-69367873D01*
X193295499Y-67772128D01*
X193289091Y-67712517D01*
X193281289Y-67691600D01*
X193238797Y-67577671D01*
X193238793Y-67577664D01*
X193152547Y-67462455D01*
X193152544Y-67462452D01*
X193037335Y-67376206D01*
X193037328Y-67376202D01*
X192902482Y-67325908D01*
X192902483Y-67325908D01*
X192842883Y-67319501D01*
X192842881Y-67319500D01*
X192842873Y-67319500D01*
X192842865Y-67319500D01*
X191989970Y-67319500D01*
X191922931Y-67299815D01*
X191877176Y-67247011D01*
X191874180Y-67239870D01*
X191870409Y-67230029D01*
X191865895Y-67207334D01*
X191810680Y-67074035D01*
X191810046Y-67072505D01*
X191810039Y-67072486D01*
X191798015Y-67043458D01*
X191798013Y-67043453D01*
X191768331Y-66999031D01*
X191738936Y-66955039D01*
X191738936Y-66955038D01*
X191738933Y-66955036D01*
X191699466Y-66895966D01*
X191699464Y-66895964D01*
X190104039Y-65300538D01*
X190104038Y-65300537D01*
X190006904Y-65235635D01*
X190000750Y-65231523D01*
X189956547Y-65201987D01*
X189874606Y-65168046D01*
X189792666Y-65134105D01*
X189792658Y-65134103D01*
X189618696Y-65099500D01*
X189618692Y-65099500D01*
X189618691Y-65099500D01*
X187813692Y-65099500D01*
X187636308Y-65099500D01*
X187636303Y-65099500D01*
X187462341Y-65134103D01*
X187462329Y-65134106D01*
X187380392Y-65168045D01*
X187380393Y-65168046D01*
X187298456Y-65201985D01*
X187254248Y-65231524D01*
X187150963Y-65300535D01*
X187150960Y-65300538D01*
X184888319Y-67563181D01*
X184826996Y-67596666D01*
X184800638Y-67599500D01*
X139539047Y-67599500D01*
X139472008Y-67579815D01*
X139426253Y-67527011D01*
X139416309Y-67457853D01*
X139445334Y-67394297D01*
X139451366Y-67387819D01*
X139462983Y-67376202D01*
X139491966Y-67347219D01*
X139491968Y-67347215D01*
X139491971Y-67347213D01*
X139573249Y-67235341D01*
X139612287Y-67181610D01*
X139705220Y-66999219D01*
X139768477Y-66804534D01*
X139800500Y-66602352D01*
X139800500Y-66397648D01*
X139792257Y-66345606D01*
X139768477Y-66195465D01*
X139737458Y-66100000D01*
X139705220Y-66000781D01*
X139705218Y-66000778D01*
X139705218Y-66000776D01*
X139671503Y-65934607D01*
X139612287Y-65818390D01*
X139580092Y-65774077D01*
X139491971Y-65652786D01*
X139347213Y-65508028D01*
X139181613Y-65387715D01*
X139181612Y-65387714D01*
X139181610Y-65387713D01*
X139124653Y-65358691D01*
X138999223Y-65294781D01*
X138804534Y-65231522D01*
X138618041Y-65201985D01*
X138602352Y-65199500D01*
X138397648Y-65199500D01*
X138381959Y-65201985D01*
X138195465Y-65231522D01*
X138000776Y-65294781D01*
X137818386Y-65387715D01*
X137652786Y-65508028D01*
X137508028Y-65652786D01*
X137387715Y-65818386D01*
X137294781Y-66000776D01*
X137231522Y-66195465D01*
X137199500Y-66397648D01*
X137199500Y-66602351D01*
X137231522Y-66804534D01*
X137294781Y-66999223D01*
X137358691Y-67124653D01*
X137387585Y-67181359D01*
X137387715Y-67181613D01*
X137508028Y-67347213D01*
X137548634Y-67387819D01*
X137582119Y-67449142D01*
X137577135Y-67518834D01*
X137535263Y-67574767D01*
X137469799Y-67599184D01*
X137460953Y-67599500D01*
X131677309Y-67599500D01*
X131610270Y-67579815D01*
X131589628Y-67563181D01*
X130926447Y-66900000D01*
X130932661Y-66900000D01*
X131034394Y-66872741D01*
X131125606Y-66820080D01*
X131200080Y-66745606D01*
X131252741Y-66654394D01*
X131280000Y-66552661D01*
X131280000Y-66546447D01*
X131959474Y-67225921D01*
X131991859Y-67181349D01*
X132084755Y-66999031D01*
X132147990Y-66804417D01*
X132180000Y-66602317D01*
X132180000Y-66397682D01*
X132147990Y-66195582D01*
X132084755Y-66000968D01*
X131991859Y-65818650D01*
X131959474Y-65774077D01*
X131959474Y-65774076D01*
X131280000Y-66453551D01*
X131280000Y-66447339D01*
X131252741Y-66345606D01*
X131200080Y-66254394D01*
X131125606Y-66179920D01*
X131034394Y-66127259D01*
X130932661Y-66100000D01*
X130926446Y-66100000D01*
X131605922Y-65420524D01*
X131605921Y-65420523D01*
X131561359Y-65388147D01*
X131561350Y-65388141D01*
X131379031Y-65295244D01*
X131184417Y-65232009D01*
X130982317Y-65200000D01*
X130777683Y-65200000D01*
X130575582Y-65232009D01*
X130380968Y-65295244D01*
X130198644Y-65388143D01*
X130154077Y-65420523D01*
X130154077Y-65420524D01*
X130833554Y-66100000D01*
X130827339Y-66100000D01*
X130725606Y-66127259D01*
X130634394Y-66179920D01*
X130559920Y-66254394D01*
X130507259Y-66345606D01*
X130480000Y-66447339D01*
X130480000Y-66453553D01*
X129800524Y-65774077D01*
X129800523Y-65774077D01*
X129768143Y-65818644D01*
X129675244Y-66000968D01*
X129612009Y-66195582D01*
X129580000Y-66397682D01*
X129580000Y-66602317D01*
X129612009Y-66804417D01*
X129675244Y-66999031D01*
X129768141Y-67181350D01*
X129768147Y-67181359D01*
X129800523Y-67225921D01*
X129800524Y-67225922D01*
X130480000Y-66546446D01*
X130480000Y-66552661D01*
X130507259Y-66654394D01*
X130559920Y-66745606D01*
X130634394Y-66820080D01*
X130725606Y-66872741D01*
X130827339Y-66900000D01*
X130833553Y-66900000D01*
X130170370Y-67563181D01*
X130109047Y-67596666D01*
X130082689Y-67599500D01*
X105131306Y-67599500D01*
X104957341Y-67634103D01*
X104957332Y-67634106D01*
X104793459Y-67701983D01*
X104793447Y-67701990D01*
X104646183Y-67800390D01*
X104645959Y-67800540D01*
X101648253Y-70798245D01*
X101586930Y-70831730D01*
X101579971Y-70833037D01*
X101444967Y-70854420D01*
X101444966Y-70854420D01*
X101269150Y-70911546D01*
X101269147Y-70911547D01*
X101104424Y-70995479D01*
X100954870Y-71104135D01*
X100954865Y-71104139D01*
X100824139Y-71234865D01*
X100824135Y-71234870D01*
X100724818Y-71371570D01*
X100669489Y-71414236D01*
X100599875Y-71420215D01*
X100538080Y-71387610D01*
X100503723Y-71326771D01*
X100500500Y-71298685D01*
X100500500Y-63878711D01*
X147149500Y-63878711D01*
X147149500Y-64121288D01*
X147181161Y-64361785D01*
X147243947Y-64596104D01*
X147302447Y-64737334D01*
X147336776Y-64820212D01*
X147458064Y-65030289D01*
X147458066Y-65030292D01*
X147458067Y-65030293D01*
X147605733Y-65222736D01*
X147605739Y-65222743D01*
X147777256Y-65394260D01*
X147777262Y-65394265D01*
X147969711Y-65541936D01*
X148179788Y-65663224D01*
X148403900Y-65756054D01*
X148638211Y-65818838D01*
X148818586Y-65842584D01*
X148878711Y-65850500D01*
X148878712Y-65850500D01*
X149121289Y-65850500D01*
X149169388Y-65844167D01*
X149361789Y-65818838D01*
X149596100Y-65756054D01*
X149820212Y-65663224D01*
X150030289Y-65541936D01*
X150222738Y-65394265D01*
X150394265Y-65222738D01*
X150541936Y-65030289D01*
X150663224Y-64820212D01*
X150756054Y-64596100D01*
X150818838Y-64361789D01*
X150850500Y-64121288D01*
X150850500Y-63878712D01*
X150850500Y-63878711D01*
X180149500Y-63878711D01*
X180149500Y-64121288D01*
X180181161Y-64361785D01*
X180243947Y-64596104D01*
X180302447Y-64737334D01*
X180336776Y-64820212D01*
X180458064Y-65030289D01*
X180458066Y-65030292D01*
X180458067Y-65030293D01*
X180605733Y-65222736D01*
X180605739Y-65222743D01*
X180777256Y-65394260D01*
X180777262Y-65394265D01*
X180969711Y-65541936D01*
X181179788Y-65663224D01*
X181403900Y-65756054D01*
X181638211Y-65818838D01*
X181818586Y-65842584D01*
X181878711Y-65850500D01*
X181878712Y-65850500D01*
X182121289Y-65850500D01*
X182169388Y-65844167D01*
X182361789Y-65818838D01*
X182596100Y-65756054D01*
X182820212Y-65663224D01*
X183030289Y-65541936D01*
X183222738Y-65394265D01*
X183394265Y-65222738D01*
X183541936Y-65030289D01*
X183663224Y-64820212D01*
X183756054Y-64596100D01*
X183818838Y-64361789D01*
X183850500Y-64121288D01*
X183850500Y-63878712D01*
X183818838Y-63638211D01*
X183756054Y-63403900D01*
X183663224Y-63179788D01*
X183541936Y-62969711D01*
X183394265Y-62777262D01*
X183394260Y-62777256D01*
X183222743Y-62605739D01*
X183222736Y-62605733D01*
X183030293Y-62458067D01*
X183030292Y-62458066D01*
X183030289Y-62458064D01*
X182820212Y-62336776D01*
X182820205Y-62336773D01*
X182596104Y-62243947D01*
X182361785Y-62181161D01*
X182121289Y-62149500D01*
X182121288Y-62149500D01*
X181878712Y-62149500D01*
X181878711Y-62149500D01*
X181638214Y-62181161D01*
X181403895Y-62243947D01*
X181179794Y-62336773D01*
X181179785Y-62336777D01*
X180969706Y-62458067D01*
X180777263Y-62605733D01*
X180777256Y-62605739D01*
X180605739Y-62777256D01*
X180605733Y-62777263D01*
X180458067Y-62969706D01*
X180336777Y-63179785D01*
X180336773Y-63179794D01*
X180243947Y-63403895D01*
X180181161Y-63638214D01*
X180149500Y-63878711D01*
X150850500Y-63878711D01*
X150818838Y-63638211D01*
X150756054Y-63403900D01*
X150663224Y-63179788D01*
X150541936Y-62969711D01*
X150394265Y-62777262D01*
X150394260Y-62777256D01*
X150222743Y-62605739D01*
X150222736Y-62605733D01*
X150030293Y-62458067D01*
X150030292Y-62458066D01*
X150030289Y-62458064D01*
X149820212Y-62336776D01*
X149820205Y-62336773D01*
X149596104Y-62243947D01*
X149361785Y-62181161D01*
X149121289Y-62149500D01*
X149121288Y-62149500D01*
X148878712Y-62149500D01*
X148878711Y-62149500D01*
X148638214Y-62181161D01*
X148403895Y-62243947D01*
X148179794Y-62336773D01*
X148179785Y-62336777D01*
X147969706Y-62458067D01*
X147777263Y-62605733D01*
X147777256Y-62605739D01*
X147605739Y-62777256D01*
X147605733Y-62777263D01*
X147458067Y-62969706D01*
X147336777Y-63179785D01*
X147336773Y-63179794D01*
X147243947Y-63403895D01*
X147181161Y-63638214D01*
X147149500Y-63878711D01*
X100500500Y-63878711D01*
X100500500Y-57461314D01*
X100520185Y-57394275D01*
X100572989Y-57348520D01*
X100642147Y-57338576D01*
X100705703Y-57367601D01*
X100724814Y-57388424D01*
X100777772Y-57461314D01*
X100824141Y-57525136D01*
X100954865Y-57655860D01*
X100954870Y-57655864D01*
X101083431Y-57749268D01*
X101104428Y-57764523D01*
X101212106Y-57819388D01*
X101269147Y-57848452D01*
X101269150Y-57848453D01*
X101444969Y-57905580D01*
X101627560Y-57934500D01*
X101627565Y-57934500D01*
X101812440Y-57934500D01*
X101995030Y-57905580D01*
X102170849Y-57848453D01*
X102170852Y-57848452D01*
X102171767Y-57847986D01*
X102335572Y-57764523D01*
X102485136Y-57655859D01*
X102615859Y-57525136D01*
X102724523Y-57375572D01*
X102808452Y-57210852D01*
X102808455Y-57210845D01*
X102865578Y-57035034D01*
X102865580Y-57035029D01*
X102867780Y-57021137D01*
X102897708Y-56958005D01*
X102957019Y-56921073D01*
X103026882Y-56922069D01*
X103085115Y-56960678D01*
X103112726Y-57021136D01*
X103114907Y-57034910D01*
X103172014Y-57210664D01*
X103255900Y-57375303D01*
X103255903Y-57375307D01*
X103270730Y-57395715D01*
X103270730Y-57395716D01*
X103842356Y-56824089D01*
X103868622Y-56922114D01*
X103923916Y-57017886D01*
X104002114Y-57096084D01*
X104097886Y-57151378D01*
X104195909Y-57177643D01*
X103624283Y-57749268D01*
X103624283Y-57749269D01*
X103644686Y-57764092D01*
X103809338Y-57847986D01*
X103985091Y-57905092D01*
X104167605Y-57934000D01*
X104352395Y-57934000D01*
X104534908Y-57905092D01*
X104710661Y-57847986D01*
X104875310Y-57764094D01*
X104895715Y-57749268D01*
X104895716Y-57749268D01*
X104324090Y-57177642D01*
X104422114Y-57151378D01*
X104517886Y-57096084D01*
X104596084Y-57017886D01*
X104651378Y-56922114D01*
X104677642Y-56824090D01*
X105249268Y-57395716D01*
X105249268Y-57395715D01*
X105264094Y-57375310D01*
X105347986Y-57210661D01*
X105405091Y-57034911D01*
X105407272Y-57021143D01*
X105437199Y-56958007D01*
X105496509Y-56921073D01*
X105566372Y-56922068D01*
X105624606Y-56960676D01*
X105652219Y-57021133D01*
X105652220Y-57021140D01*
X105654420Y-57035029D01*
X105654420Y-57035031D01*
X105654421Y-57035033D01*
X105711545Y-57210845D01*
X105711547Y-57210852D01*
X105755958Y-57298012D01*
X105790546Y-57365895D01*
X105795479Y-57375575D01*
X105904135Y-57525129D01*
X105904139Y-57525134D01*
X106034865Y-57655860D01*
X106034870Y-57655864D01*
X106163431Y-57749268D01*
X106184428Y-57764523D01*
X106292106Y-57819388D01*
X106349147Y-57848452D01*
X106349150Y-57848453D01*
X106524970Y-57905580D01*
X106584120Y-57914948D01*
X106659969Y-57926961D01*
X106723104Y-57956890D01*
X106728253Y-57961753D01*
X108340536Y-59574035D01*
X108461966Y-59695465D01*
X108465966Y-59699465D01*
X108613446Y-59798009D01*
X108613459Y-59798016D01*
X108695392Y-59831953D01*
X108777334Y-59865894D01*
X108819935Y-59874368D01*
X108951305Y-59900500D01*
X108951308Y-59900500D01*
X128588693Y-59900500D01*
X128588694Y-59900499D01*
X128762666Y-59865895D01*
X128844606Y-59831953D01*
X128926547Y-59798013D01*
X129017359Y-59737334D01*
X129074036Y-59699464D01*
X129538861Y-59234638D01*
X129600182Y-59201155D01*
X129669873Y-59206139D01*
X129725807Y-59248010D01*
X129750224Y-59313475D01*
X129737025Y-59378615D01*
X129674782Y-59500773D01*
X129611522Y-59695465D01*
X129579500Y-59897648D01*
X129579500Y-60102351D01*
X129611522Y-60304534D01*
X129674781Y-60499223D01*
X129767715Y-60681613D01*
X129888028Y-60847213D01*
X130032786Y-60991971D01*
X130187749Y-61104556D01*
X130198390Y-61112287D01*
X130314607Y-61171503D01*
X130380776Y-61205218D01*
X130380778Y-61205218D01*
X130380781Y-61205220D01*
X130485137Y-61239127D01*
X130575465Y-61268477D01*
X130676557Y-61284488D01*
X130777648Y-61300500D01*
X130777649Y-61300500D01*
X130982351Y-61300500D01*
X130982352Y-61300500D01*
X131184534Y-61268477D01*
X131379219Y-61205220D01*
X131561610Y-61112287D01*
X131654590Y-61044732D01*
X131727213Y-60991971D01*
X131727215Y-60991968D01*
X131727219Y-60991966D01*
X131871966Y-60847219D01*
X131871968Y-60847215D01*
X131871971Y-60847213D01*
X131924732Y-60774590D01*
X131992287Y-60681610D01*
X132085220Y-60499219D01*
X132148477Y-60304534D01*
X132180500Y-60102352D01*
X132180500Y-59897648D01*
X137199500Y-59897648D01*
X137199500Y-60102351D01*
X137231522Y-60304534D01*
X137294781Y-60499223D01*
X137387715Y-60681613D01*
X137508028Y-60847213D01*
X137652786Y-60991971D01*
X137807749Y-61104556D01*
X137818390Y-61112287D01*
X137934607Y-61171503D01*
X138000776Y-61205218D01*
X138000778Y-61205218D01*
X138000781Y-61205220D01*
X138105137Y-61239127D01*
X138195465Y-61268477D01*
X138296557Y-61284488D01*
X138397648Y-61300500D01*
X138397649Y-61300500D01*
X138602351Y-61300500D01*
X138602352Y-61300500D01*
X138804534Y-61268477D01*
X138999219Y-61205220D01*
X139181610Y-61112287D01*
X139274590Y-61044732D01*
X139347213Y-60991971D01*
X139347215Y-60991968D01*
X139347219Y-60991966D01*
X139491966Y-60847219D01*
X139491968Y-60847215D01*
X139491971Y-60847213D01*
X139544732Y-60774590D01*
X139612287Y-60681610D01*
X139705220Y-60499219D01*
X139768477Y-60304534D01*
X139800500Y-60102352D01*
X139800500Y-59897648D01*
X139784719Y-59798013D01*
X139768477Y-59695465D01*
X139705218Y-59500776D01*
X139642973Y-59378615D01*
X139612287Y-59318390D01*
X139604556Y-59307749D01*
X139491971Y-59152786D01*
X139347213Y-59008028D01*
X139181613Y-58887715D01*
X139181612Y-58887714D01*
X139181610Y-58887713D01*
X139124653Y-58858691D01*
X138999223Y-58794781D01*
X138804534Y-58731522D01*
X138629995Y-58703878D01*
X138602352Y-58699500D01*
X138397648Y-58699500D01*
X138373329Y-58703351D01*
X138195465Y-58731522D01*
X138000776Y-58794781D01*
X137818386Y-58887715D01*
X137652786Y-59008028D01*
X137508028Y-59152786D01*
X137387715Y-59318386D01*
X137294781Y-59500776D01*
X137231522Y-59695465D01*
X137199500Y-59897648D01*
X132180500Y-59897648D01*
X132164719Y-59798013D01*
X132148477Y-59695465D01*
X132085218Y-59500776D01*
X132022973Y-59378615D01*
X131992287Y-59318390D01*
X131984556Y-59307749D01*
X131871971Y-59152786D01*
X131727213Y-59008028D01*
X131561613Y-58887715D01*
X131561612Y-58887714D01*
X131561610Y-58887713D01*
X131504653Y-58858691D01*
X131379223Y-58794781D01*
X131184534Y-58731522D01*
X131009995Y-58703878D01*
X130982352Y-58699500D01*
X130777648Y-58699500D01*
X130753329Y-58703351D01*
X130575465Y-58731522D01*
X130380776Y-58794781D01*
X130258616Y-58857026D01*
X130189947Y-58869922D01*
X130125206Y-58843646D01*
X130084949Y-58786539D01*
X130081957Y-58716734D01*
X130114640Y-58658860D01*
X131336681Y-57436819D01*
X131398004Y-57403334D01*
X131424362Y-57400500D01*
X145088693Y-57400500D01*
X145088694Y-57400499D01*
X145262666Y-57365895D01*
X145344606Y-57331953D01*
X145426547Y-57298013D01*
X145556992Y-57210852D01*
X145574036Y-57199464D01*
X147063826Y-55709671D01*
X147063831Y-55709668D01*
X147074034Y-55699464D01*
X147074036Y-55699464D01*
X147586681Y-55186819D01*
X147613608Y-55172115D01*
X147639427Y-55155523D01*
X147645627Y-55154631D01*
X147648004Y-55153334D01*
X147674362Y-55150500D01*
X147825638Y-55150500D01*
X147892677Y-55170185D01*
G37*
%TD.AperFunction*%
%TA.AperFunction,Conductor*%
G36*
X187942539Y-47020185D02*
G01*
X187988294Y-47072989D01*
X187999500Y-47124500D01*
X187999500Y-54070186D01*
X188000000Y-54077816D01*
X188000000Y-54500000D01*
X188422184Y-54500000D01*
X188429813Y-54500500D01*
X188434108Y-54500500D01*
X195375500Y-54500500D01*
X195442539Y-54520185D01*
X195488294Y-54572989D01*
X195499500Y-54624500D01*
X195499500Y-64466225D01*
X195479815Y-64533264D01*
X195427011Y-64579019D01*
X195357853Y-64588963D01*
X195294297Y-64559938D01*
X195272398Y-64535117D01*
X195199463Y-64425964D01*
X195074035Y-64300536D01*
X189074036Y-58300536D01*
X189074035Y-58300535D01*
X189074030Y-58300531D01*
X189019622Y-58264178D01*
X189019616Y-58264175D01*
X189014959Y-58261063D01*
X188926547Y-58201987D01*
X188844606Y-58168046D01*
X188762666Y-58134105D01*
X188762658Y-58134103D01*
X188588696Y-58099500D01*
X188588692Y-58099500D01*
X188588691Y-58099500D01*
X153424361Y-58099500D01*
X153357322Y-58079815D01*
X153336680Y-58063181D01*
X148819717Y-53546216D01*
X148819694Y-53546195D01*
X148573485Y-53299986D01*
X148324036Y-53050536D01*
X147886819Y-52613319D01*
X147853334Y-52551996D01*
X147850500Y-52525638D01*
X147850500Y-52243713D01*
X147842467Y-52192993D01*
X147817246Y-52033757D01*
X147751557Y-51831588D01*
X147655051Y-51642184D01*
X147655049Y-51642181D01*
X147622503Y-51597384D01*
X147599024Y-51531578D01*
X147614850Y-51463524D01*
X147664956Y-51414830D01*
X147722822Y-51400500D01*
X156553989Y-51400500D01*
X156621028Y-51420185D01*
X156666783Y-51472989D01*
X156676727Y-51542147D01*
X156671695Y-51563505D01*
X156660494Y-51597305D01*
X156660493Y-51597309D01*
X156650000Y-51700013D01*
X156650000Y-52250000D01*
X157566988Y-52250000D01*
X157534075Y-52307007D01*
X157500000Y-52434174D01*
X157500000Y-52565826D01*
X157534075Y-52692993D01*
X157566988Y-52750000D01*
X156650001Y-52750000D01*
X156650001Y-53299986D01*
X156660494Y-53402697D01*
X156715641Y-53569119D01*
X156715643Y-53569124D01*
X156807684Y-53718345D01*
X156931654Y-53842315D01*
X157080875Y-53934356D01*
X157080880Y-53934358D01*
X157247302Y-53989505D01*
X157247309Y-53989506D01*
X157350019Y-53999999D01*
X157749999Y-53999999D01*
X157750000Y-53999998D01*
X157750000Y-52933012D01*
X157807007Y-52965925D01*
X157934174Y-53000000D01*
X158065826Y-53000000D01*
X158192993Y-52965925D01*
X158250000Y-52933012D01*
X158250000Y-53999999D01*
X158649972Y-53999999D01*
X158649986Y-53999998D01*
X158752697Y-53989505D01*
X158919119Y-53934358D01*
X158919124Y-53934356D01*
X159068345Y-53842315D01*
X159192317Y-53718343D01*
X159287815Y-53563516D01*
X159339763Y-53516791D01*
X159408725Y-53505568D01*
X159472808Y-53533412D01*
X159481035Y-53540931D01*
X159620213Y-53680109D01*
X159792179Y-53805048D01*
X159792181Y-53805049D01*
X159792184Y-53805051D01*
X159981588Y-53901557D01*
X160183757Y-53967246D01*
X160393713Y-54000500D01*
X160393714Y-54000500D01*
X160606286Y-54000500D01*
X160606287Y-54000500D01*
X160816243Y-53967246D01*
X161018412Y-53901557D01*
X161207816Y-53805051D01*
X161242230Y-53780048D01*
X161379786Y-53680109D01*
X161379788Y-53680106D01*
X161379792Y-53680104D01*
X161530104Y-53529792D01*
X161530106Y-53529788D01*
X161530109Y-53529786D01*
X161655048Y-53357820D01*
X161655047Y-53357820D01*
X161655051Y-53357816D01*
X161751557Y-53168412D01*
X161817246Y-52966243D01*
X161850500Y-52756287D01*
X161850500Y-52243713D01*
X161817246Y-52033757D01*
X161751557Y-51831588D01*
X161655051Y-51642184D01*
X161655049Y-51642181D01*
X161622503Y-51597384D01*
X161599024Y-51531578D01*
X161614850Y-51463524D01*
X161664956Y-51414830D01*
X161722822Y-51400500D01*
X172562273Y-51400500D01*
X172629312Y-51420185D01*
X172675067Y-51472989D01*
X172685011Y-51542147D01*
X172679979Y-51563504D01*
X172660494Y-51622302D01*
X172660493Y-51622309D01*
X172650000Y-51725013D01*
X172650000Y-52250000D01*
X173595854Y-52250000D01*
X173557370Y-52316657D01*
X173525000Y-52437465D01*
X173525000Y-52562535D01*
X173557370Y-52683343D01*
X173595854Y-52750000D01*
X172650001Y-52750000D01*
X172650001Y-53274986D01*
X172660494Y-53377697D01*
X172715641Y-53544119D01*
X172715643Y-53544124D01*
X172807684Y-53693345D01*
X172931654Y-53817315D01*
X173080875Y-53909356D01*
X173080880Y-53909358D01*
X173247302Y-53964505D01*
X173247309Y-53964506D01*
X173350019Y-53974999D01*
X173749999Y-53974999D01*
X173750000Y-53974998D01*
X173750000Y-52904145D01*
X173816657Y-52942630D01*
X173937465Y-52975000D01*
X174062535Y-52975000D01*
X174183343Y-52942630D01*
X174250000Y-52904145D01*
X174250000Y-53974999D01*
X174649972Y-53974999D01*
X174649986Y-53974998D01*
X174752697Y-53964505D01*
X174919119Y-53909358D01*
X174919124Y-53909356D01*
X175068345Y-53817315D01*
X175192317Y-53693343D01*
X175287815Y-53538516D01*
X175339763Y-53491791D01*
X175408725Y-53480568D01*
X175472808Y-53508412D01*
X175481035Y-53515931D01*
X175620213Y-53655109D01*
X175792179Y-53780048D01*
X175792181Y-53780049D01*
X175792184Y-53780051D01*
X175981588Y-53876557D01*
X176183757Y-53942246D01*
X176393713Y-53975500D01*
X176393714Y-53975500D01*
X176606286Y-53975500D01*
X176606287Y-53975500D01*
X176816243Y-53942246D01*
X177018412Y-53876557D01*
X177207816Y-53780051D01*
X177292748Y-53718345D01*
X177379786Y-53655109D01*
X177379788Y-53655106D01*
X177379792Y-53655104D01*
X177530104Y-53504792D01*
X177649683Y-53340204D01*
X177705011Y-53297540D01*
X177774624Y-53291561D01*
X177836420Y-53324166D01*
X177850313Y-53340199D01*
X177952296Y-53480568D01*
X177969896Y-53504792D01*
X178120213Y-53655109D01*
X178292179Y-53780048D01*
X178292181Y-53780049D01*
X178292184Y-53780051D01*
X178481588Y-53876557D01*
X178683757Y-53942246D01*
X178893713Y-53975500D01*
X178893714Y-53975500D01*
X179106286Y-53975500D01*
X179106287Y-53975500D01*
X179316243Y-53942246D01*
X179518412Y-53876557D01*
X179707816Y-53780051D01*
X179792748Y-53718345D01*
X179879786Y-53655109D01*
X179879788Y-53655106D01*
X179879792Y-53655104D01*
X180030104Y-53504792D01*
X180149683Y-53340204D01*
X180205011Y-53297540D01*
X180274624Y-53291561D01*
X180336420Y-53324166D01*
X180350313Y-53340199D01*
X180452296Y-53480568D01*
X180469896Y-53504792D01*
X180620213Y-53655109D01*
X180792179Y-53780048D01*
X180792181Y-53780049D01*
X180792184Y-53780051D01*
X180981588Y-53876557D01*
X181183757Y-53942246D01*
X181393713Y-53975500D01*
X181393714Y-53975500D01*
X181606286Y-53975500D01*
X181606287Y-53975500D01*
X181816243Y-53942246D01*
X182018412Y-53876557D01*
X182207816Y-53780051D01*
X182292748Y-53718345D01*
X182379786Y-53655109D01*
X182379788Y-53655106D01*
X182379792Y-53655104D01*
X182530104Y-53504792D01*
X182530106Y-53504788D01*
X182530109Y-53504786D01*
X182655048Y-53332820D01*
X182655047Y-53332820D01*
X182655051Y-53332816D01*
X182751557Y-53143412D01*
X182817246Y-52941243D01*
X182850500Y-52731287D01*
X182850500Y-52268713D01*
X182817246Y-52058757D01*
X182751557Y-51856588D01*
X182655051Y-51667184D01*
X182655049Y-51667181D01*
X182655048Y-51667179D01*
X182530109Y-51495213D01*
X182379786Y-51344890D01*
X182207820Y-51219951D01*
X182018414Y-51123444D01*
X182018413Y-51123443D01*
X182018412Y-51123443D01*
X181816243Y-51057754D01*
X181816241Y-51057753D01*
X181816240Y-51057753D01*
X181654957Y-51032208D01*
X181606287Y-51024500D01*
X181393713Y-51024500D01*
X181393712Y-51024500D01*
X181373487Y-51027703D01*
X181304193Y-51018747D01*
X181266410Y-50992910D01*
X177485681Y-47212181D01*
X177452196Y-47150858D01*
X177457180Y-47081166D01*
X177499052Y-47025233D01*
X177564516Y-47000816D01*
X177573362Y-47000500D01*
X187875500Y-47000500D01*
X187942539Y-47020185D01*
G37*
%TD.AperFunction*%
%TA.AperFunction,Conductor*%
G36*
X142581310Y-51408522D02*
G01*
X142609348Y-51413543D01*
X142614407Y-51418240D01*
X142621028Y-51420185D01*
X142639673Y-51441703D01*
X142660548Y-51461087D01*
X142662264Y-51467773D01*
X142666783Y-51472989D01*
X142670835Y-51501174D01*
X142677916Y-51528764D01*
X142676189Y-51538407D01*
X142676727Y-51542147D01*
X142671695Y-51563505D01*
X142660494Y-51597305D01*
X142660493Y-51597309D01*
X142650000Y-51700013D01*
X142650000Y-52250000D01*
X143566988Y-52250000D01*
X143534075Y-52307007D01*
X143500000Y-52434174D01*
X143500000Y-52565826D01*
X143534075Y-52692993D01*
X143566988Y-52750000D01*
X142650001Y-52750000D01*
X142650001Y-53299986D01*
X142660494Y-53402697D01*
X142715641Y-53569119D01*
X142715643Y-53569124D01*
X142807684Y-53718345D01*
X142931654Y-53842315D01*
X143080875Y-53934356D01*
X143080880Y-53934358D01*
X143247302Y-53989505D01*
X143247309Y-53989506D01*
X143350019Y-53999999D01*
X143749999Y-53999999D01*
X143750000Y-53999998D01*
X143750000Y-52933012D01*
X143807007Y-52965925D01*
X143934174Y-53000000D01*
X144065826Y-53000000D01*
X144192993Y-52965925D01*
X144250000Y-52933012D01*
X144250000Y-53999999D01*
X144649972Y-53999999D01*
X144649986Y-53999998D01*
X144752697Y-53989505D01*
X144919119Y-53934358D01*
X144919124Y-53934356D01*
X145068345Y-53842315D01*
X145192317Y-53718343D01*
X145287815Y-53563516D01*
X145305106Y-53547963D01*
X145319044Y-53529345D01*
X145330596Y-53525036D01*
X145339763Y-53516791D01*
X145362718Y-53513055D01*
X145384508Y-53504928D01*
X145396554Y-53507548D01*
X145408725Y-53505568D01*
X145430056Y-53514836D01*
X145452781Y-53519780D01*
X145468477Y-53531530D01*
X145472808Y-53533412D01*
X145481035Y-53540931D01*
X145563181Y-53623077D01*
X145596666Y-53684400D01*
X145599500Y-53710758D01*
X145599500Y-54575638D01*
X145579815Y-54642677D01*
X145563181Y-54663319D01*
X144663319Y-55563181D01*
X144601996Y-55596666D01*
X144575638Y-55599500D01*
X130911303Y-55599500D01*
X130737341Y-55634103D01*
X130737329Y-55634106D01*
X130655392Y-55668045D01*
X130655393Y-55668046D01*
X130573455Y-55701985D01*
X130493400Y-55755477D01*
X130492758Y-55755906D01*
X130425961Y-55800537D01*
X130425960Y-55800538D01*
X128163319Y-58063181D01*
X128101996Y-58096666D01*
X128075638Y-58099500D01*
X119961112Y-58099500D01*
X119894073Y-58079815D01*
X119848318Y-58027011D01*
X119838374Y-57957853D01*
X119867399Y-57894297D01*
X119922794Y-57857569D01*
X119950849Y-57848453D01*
X119950852Y-57848452D01*
X119951767Y-57847986D01*
X120115572Y-57764523D01*
X120265136Y-57655859D01*
X120395859Y-57525136D01*
X120504523Y-57375572D01*
X120588452Y-57210852D01*
X120588455Y-57210845D01*
X120645580Y-57035030D01*
X120674500Y-56852440D01*
X120674500Y-56667559D01*
X120645580Y-56484969D01*
X120588453Y-56309150D01*
X120588452Y-56309147D01*
X120522757Y-56180215D01*
X120504523Y-56144428D01*
X120462633Y-56086771D01*
X120395864Y-55994870D01*
X120395860Y-55994865D01*
X120265134Y-55864139D01*
X120265129Y-55864135D01*
X120115574Y-55755478D01*
X119950852Y-55671547D01*
X119950849Y-55671546D01*
X119775029Y-55614419D01*
X119673584Y-55598352D01*
X119610449Y-55568422D01*
X119573518Y-55509111D01*
X119574516Y-55439248D01*
X119605299Y-55388200D01*
X123556681Y-51436819D01*
X123618004Y-51403334D01*
X123644362Y-51400500D01*
X142553989Y-51400500D01*
X142581310Y-51408522D01*
G37*
%TD.AperFunction*%
%TA.AperFunction,Conductor*%
G36*
X120133678Y-47020185D02*
G01*
X120179433Y-47072989D01*
X120189377Y-47142147D01*
X120160352Y-47205703D01*
X120154320Y-47212181D01*
X111808253Y-55558245D01*
X111746930Y-55591730D01*
X111739971Y-55593037D01*
X111604967Y-55614420D01*
X111604966Y-55614420D01*
X111429150Y-55671546D01*
X111429147Y-55671547D01*
X111264426Y-55755478D01*
X111114870Y-55864135D01*
X111114865Y-55864139D01*
X110984139Y-55994865D01*
X110984135Y-55994870D01*
X110875479Y-56144424D01*
X110791547Y-56309147D01*
X110791546Y-56309150D01*
X110734420Y-56484969D01*
X110732473Y-56497263D01*
X110702543Y-56560397D01*
X110643231Y-56597328D01*
X110573369Y-56596330D01*
X110515136Y-56557719D01*
X110487527Y-56497263D01*
X110487192Y-56495150D01*
X110485580Y-56484971D01*
X110447776Y-56368622D01*
X110428453Y-56309150D01*
X110428452Y-56309147D01*
X110362757Y-56180215D01*
X110344523Y-56144428D01*
X110302633Y-56086771D01*
X110235864Y-55994870D01*
X110235860Y-55994865D01*
X110105134Y-55864139D01*
X110105129Y-55864135D01*
X109955574Y-55755478D01*
X109790852Y-55671547D01*
X109790849Y-55671546D01*
X109615030Y-55614419D01*
X109432440Y-55585500D01*
X109432435Y-55585500D01*
X109247565Y-55585500D01*
X109247560Y-55585500D01*
X109064969Y-55614419D01*
X108889150Y-55671546D01*
X108889147Y-55671547D01*
X108724426Y-55755478D01*
X108574870Y-55864135D01*
X108574865Y-55864139D01*
X108444139Y-55994865D01*
X108444135Y-55994870D01*
X108335479Y-56144424D01*
X108251547Y-56309147D01*
X108251546Y-56309150D01*
X108194419Y-56484970D01*
X108192471Y-56497270D01*
X108162537Y-56560403D01*
X108103224Y-56597330D01*
X108033361Y-56596328D01*
X107975131Y-56557714D01*
X107947526Y-56497258D01*
X107945580Y-56484971D01*
X107907776Y-56368622D01*
X107888453Y-56309150D01*
X107888452Y-56309147D01*
X107822757Y-56180215D01*
X107804523Y-56144428D01*
X107762633Y-56086771D01*
X107695864Y-55994870D01*
X107695860Y-55994865D01*
X107565134Y-55864139D01*
X107565129Y-55864135D01*
X107415574Y-55755478D01*
X107250852Y-55671547D01*
X107250849Y-55671546D01*
X107075030Y-55614419D01*
X106892440Y-55585500D01*
X106892435Y-55585500D01*
X106707565Y-55585500D01*
X106707560Y-55585500D01*
X106524969Y-55614419D01*
X106349150Y-55671546D01*
X106349147Y-55671547D01*
X106184426Y-55755478D01*
X106034870Y-55864135D01*
X106034865Y-55864139D01*
X105904139Y-55994865D01*
X105904135Y-55994870D01*
X105795479Y-56144424D01*
X105711547Y-56309147D01*
X105711546Y-56309150D01*
X105654419Y-56484971D01*
X105652218Y-56498867D01*
X105622286Y-56562000D01*
X105562973Y-56598928D01*
X105493110Y-56597927D01*
X105434879Y-56559315D01*
X105407272Y-56498857D01*
X105405091Y-56485087D01*
X105347986Y-56309338D01*
X105264092Y-56144686D01*
X105249269Y-56124283D01*
X104677642Y-56695909D01*
X104651378Y-56597886D01*
X104596084Y-56502114D01*
X104517886Y-56423916D01*
X104422114Y-56368622D01*
X104324090Y-56342356D01*
X104895716Y-55770730D01*
X104875307Y-55755903D01*
X104875303Y-55755900D01*
X104710664Y-55672014D01*
X104534908Y-55614907D01*
X104352395Y-55586000D01*
X104167605Y-55586000D01*
X103985091Y-55614907D01*
X103809338Y-55672013D01*
X103644692Y-55755903D01*
X103644688Y-55755906D01*
X103624283Y-55770729D01*
X103624283Y-55770730D01*
X104195910Y-56342356D01*
X104097886Y-56368622D01*
X104002114Y-56423916D01*
X103923916Y-56502114D01*
X103868622Y-56597886D01*
X103842356Y-56695909D01*
X103270730Y-56124283D01*
X103270729Y-56124283D01*
X103255906Y-56144688D01*
X103255903Y-56144692D01*
X103172013Y-56309338D01*
X103114908Y-56485088D01*
X103112726Y-56498864D01*
X103082795Y-56561998D01*
X103023483Y-56598928D01*
X102953620Y-56597928D01*
X102895388Y-56559317D01*
X102867780Y-56498860D01*
X102865580Y-56484970D01*
X102808453Y-56309150D01*
X102808452Y-56309147D01*
X102742757Y-56180215D01*
X102724523Y-56144428D01*
X102682633Y-56086771D01*
X102615864Y-55994870D01*
X102615860Y-55994865D01*
X102485134Y-55864139D01*
X102485129Y-55864135D01*
X102335574Y-55755478D01*
X102170852Y-55671547D01*
X102170849Y-55671546D01*
X101995030Y-55614419D01*
X101812440Y-55585500D01*
X101812435Y-55585500D01*
X101627565Y-55585500D01*
X101627560Y-55585500D01*
X101444969Y-55614419D01*
X101269150Y-55671546D01*
X101269147Y-55671547D01*
X101104426Y-55755478D01*
X100954870Y-55864135D01*
X100954865Y-55864139D01*
X100824139Y-55994865D01*
X100824135Y-55994870D01*
X100724818Y-56131570D01*
X100669489Y-56174236D01*
X100599875Y-56180215D01*
X100538080Y-56147610D01*
X100503723Y-56086771D01*
X100500500Y-56058685D01*
X100500500Y-54624500D01*
X100520185Y-54557461D01*
X100572989Y-54511706D01*
X100624500Y-54500500D01*
X107570187Y-54500500D01*
X107577816Y-54500000D01*
X108000000Y-54500000D01*
X108000000Y-54077816D01*
X108000500Y-54070186D01*
X108000500Y-47124500D01*
X108020185Y-47057461D01*
X108072989Y-47011706D01*
X108124500Y-47000500D01*
X120066639Y-47000500D01*
X120133678Y-47020185D01*
G37*
%TD.AperFunction*%
%TD*%
M02*
