M48
; DRILL file {KiCad 9.0.6} date 2026-03-13T13:50:22-0300
; FORMAT={-:-/ absolute / inch / decimal}
; #@! TF.CreationDate,2026-03-13T13:50:22-03:00
; #@! TF.GenerationSoftware,Kicad,Pcbnew,9.0.6
; #@! TF.FileFunction,Plated,1,2,PTH
FMAT,2
INCH
; #@! TA.AperFunction,Plated,PTH,ComponentDrill
T1C0.0295
; #@! TA.AperFunction,Plated,PTH,ComponentDrill
T2C0.0315
; #@! TA.AperFunction,Plated,PTH,ComponentDrill
T3C0.0331
; #@! TA.AperFunction,Plated,PTH,ComponentDrill
T4C0.0374
; #@! TA.AperFunction,Plated,PTH,ComponentDrill
T5C0.0394
%
G90
G05
T1
X7.4697Y-2.6996
X7.5197Y-2.6996
X7.5697Y-2.6996
T2
X5.1528Y-2.3622
X5.1528Y-2.6181
X5.4528Y-2.3622
X5.4528Y-2.6181
T3
X4.0047Y-2.2346
X4.0047Y-2.8346
X4.1047Y-2.2346
X4.1047Y-2.8346
X4.2047Y-2.2346
X4.2047Y-2.8346
X4.3047Y-2.2346
X4.3047Y-2.8346
X4.4047Y-2.2346
X4.4047Y-2.8346
X4.5047Y-2.2346
X4.5047Y-2.8346
X4.6047Y-2.2346
X4.6047Y-2.8346
X4.7047Y-2.2346
X4.7047Y-2.8346
T4
X5.1969Y-3.0512
X5.2953Y-3.0512
X5.3937Y-3.0512
X5.4921Y-3.0512
X6.8307Y-3.0512
X6.8504Y-2.0669
X6.9291Y-3.0512
X6.9488Y-2.0669
X7.0276Y-3.0512
X7.0472Y-2.0669
X7.126Y-3.0512
X7.1457Y-2.0669
T5
X5.6693Y-2.0669
X5.7677Y-2.0669
X6.063Y-3.0512
X6.1614Y-3.0512
X6.2205Y-2.0669
X6.3189Y-2.0669
M30
